<svg width="1048" height="537" xmlns="http://www.w3.org/2000/svg" xmlns:xlink="http://www.w3.org/1999/xlink" overflow="hidden"><defs><clipPath id="clip0"><rect x="112" y="99" width="1048" height="537"/></clipPath></defs><g clip-path="url(#clip0)" transform="translate(-112 -99)"><text font-family="Times New Roman,Times New Roman_MSFontService,sans-serif" font-weight="700" font-size="24" transform="translate(208.646 130)">Input<tspan font-size="24" x="123.816" y="0">Projection</tspan><tspan font-size="24" x="293.284" y="0">Output</tspan></text><path d="M213.5 195.834C213.5 190.679 217.679 186.5 222.834 186.5L260.167 186.5C265.321 186.5 269.5 190.679 269.5 195.834L269.5 236.167C269.5 241.321 265.321 245.5 260.167 245.5L222.834 245.5C217.679 245.5 213.5 241.321 213.5 236.167Z" stroke="#4472C4" stroke-width="1.33333" stroke-miterlimit="8" fill="#FFFFFF" fill-rule="evenodd"/><path d="M212.5 295.834C212.5 290.679 216.679 286.5 221.834 286.5L259.167 286.5C264.321 286.5 268.5 290.679 268.5 295.834L268.5 336.167C268.5 341.321 264.321 345.5 259.167 345.5L221.834 345.5C216.679 345.5 212.5 341.321 212.5 336.167Z" stroke="#4472C4" stroke-width="1.33333" stroke-miterlimit="8" fill="#FFFFFF" fill-rule="evenodd"/><path d="M212.5 444.834C212.5 439.679 216.679 435.5 221.834 435.5L259.167 435.5C264.321 435.5 268.5 439.679 268.5 444.834L268.5 485.167C268.5 490.321 264.321 494.5 259.167 494.5L221.834 494.5C216.679 494.5 212.5 490.321 212.5 485.167Z" stroke="#4472C4" stroke-width="1.33333" stroke-miterlimit="8" fill="#FFFFFF" fill-rule="evenodd"/><path d="M212.5 544.834C212.5 539.679 216.679 535.5 221.834 535.5L259.167 535.5C264.321 535.5 268.5 539.679 268.5 544.834L268.5 585.167C268.5 590.321 264.321 594.5 259.167 594.5L221.834 594.5C216.679 594.5 212.5 590.321 212.5 585.167Z" stroke="#4472C4" stroke-width="1.33333" stroke-miterlimit="8" fill="#FFFFFF" fill-rule="evenodd"/><text font-family="Times New Roman,Times New Roman_MSFontService,sans-serif" font-weight="400" font-size="24" transform="translate(126.738 223)">w(t<tspan font-size="24" x="32" y="0">-</tspan>2)<tspan font-size="24" x="0" y="100">w(t</tspan><tspan font-size="24" x="32" y="100">-</tspan>1)<tspan font-size="24" x="0" y="350">w(t+2)</tspan><tspan font-size="24" x="0" y="250">w(t+1)</tspan></text><path d="M354.5 356.334C354.5 350.35 359.35 345.5 365.334 345.5L408.667 345.5C414.65 345.5 419.5 350.35 419.5 356.334L419.5 424.667C419.5 430.65 414.65 435.5 408.667 435.5L365.334 435.5C359.35 435.5 354.5 430.65 354.5 424.667Z" stroke="#4472C4" stroke-width="1.33333" stroke-miterlimit="8" fill="#FFFFFF" fill-rule="evenodd"/><text font-family="Times New Roman,Times New Roman_MSFontService,sans-serif" font-weight="400" font-size="24" transform="translate(362.003 326)">Sum</text><path d="M270.099 215.207 352.439 383.775 351.241 384.36 268.901 215.793ZM354.849 381.114 354.766 390.058 347.661 384.625Z"/><path d="M268.938 314.997 349.837 385.456 348.961 386.461 268.062 316.003ZM351.021 382.067 354.426 390.337 345.767 388.099Z"/><path d="M0.437847-0.502727 81.337 69.9558 80.4613 70.9613-0.437847 0.502727ZM82.5208 66.5665 85.9264 74.8371 77.2666 72.5993Z" transform="matrix(1 0 0 -1 268.5 465.337)"/><path d="M0.598127-0.29443 83.5802 168.282 82.3839 168.87-0.598127 0.29443ZM85.982 165.613 85.9264 174.557 78.8045 169.146Z" transform="matrix(1 0 0 -1 268.5 565.057)"/><path d="M511.5 356C511.5 350.201 516.201 345.5 522 345.5L564 345.5C569.799 345.5 574.5 350.201 574.5 356L574.5 425C574.5 430.799 569.799 435.5 564 435.5L522 435.5C516.201 435.5 511.5 430.799 511.5 425Z" stroke="#4472C4" stroke-width="1.33333" stroke-miterlimit="8" fill="#FFFFFF" fill-rule="evenodd"/><path d="M419.5 389.833 504.87 389.833 504.87 391.167 419.5 391.167ZM503.537 386.5 511.537 390.5 503.537 394.5Z"/><text font-family="Times New Roman,Times New Roman_MSFontService,sans-serif" font-weight="400" font-size="24" transform="translate(521.031 326)">w(t)<tspan font-weight="700" font-size="24" x="164.238" y="-196">Input</tspan><tspan font-weight="700" font-size="24" x="288.055" y="-196">Projection</tspan><tspan font-weight="700" font-size="24" x="457.523" y="-196">Output</tspan></text><path d="M1000.5 195.834C1000.5 190.679 1004.68 186.5 1009.83 186.5L1047.17 186.5C1052.32 186.5 1056.5 190.679 1056.5 195.834L1056.5 236.167C1056.5 241.321 1052.32 245.5 1047.17 245.5L1009.83 245.5C1004.68 245.5 1000.5 241.321 1000.5 236.167Z" stroke="#ED7D31" stroke-width="1.33333" stroke-miterlimit="8" fill="#FFFFFF" fill-rule="evenodd"/><path d="M999.5 295.834C999.5 290.679 1003.68 286.5 1008.83 286.5L1046.17 286.5C1051.32 286.5 1055.5 290.679 1055.5 295.834L1055.5 336.167C1055.5 341.321 1051.32 345.5 1046.17 345.5L1008.83 345.5C1003.68 345.5 999.5 341.321 999.5 336.167Z" stroke="#ED7D31" stroke-width="1.33333" stroke-miterlimit="8" fill="#FFFFFF" fill-rule="evenodd"/><path d="M999.5 444.834C999.5 439.679 1003.68 435.5 1008.83 435.5L1046.17 435.5C1051.32 435.5 1055.5 439.679 1055.5 444.834L1055.5 485.167C1055.5 490.321 1051.32 494.5 1046.17 494.5L1008.83 494.5C1003.68 494.5 999.5 490.321 999.5 485.167Z" stroke="#ED7D31" stroke-width="1.33333" stroke-miterlimit="8" fill="#FFFFFF" fill-rule="evenodd"/><path d="M999.5 544.834C999.5 539.679 1003.68 535.5 1008.83 535.5L1046.17 535.5C1051.32 535.5 1055.5 539.679 1055.5 544.834L1055.5 585.167C1055.5 590.321 1051.32 594.5 1046.17 594.5L1008.83 594.5C1003.68 594.5 999.5 590.321 999.5 585.167Z" stroke="#ED7D31" stroke-width="1.33333" stroke-miterlimit="8" fill="#FFFFFF" fill-rule="evenodd"/><text font-family="Times New Roman,Times New Roman_MSFontService,sans-serif" font-weight="400" font-size="24" transform="translate(1079.62 224)">w(t-2)<tspan font-size="24" x="0" y="100">w(t</tspan>-1)<tspan font-size="24" x="0" y="349">w(t+2)</tspan><tspan font-size="24" x="0" y="250">w(t+1)</tspan></text><path d="M831.5 356.334C831.5 350.35 836.35 345.5 842.334 345.5L885.667 345.5C891.65 345.5 896.5 350.35 896.5 356.334L896.5 424.667C896.5 430.65 891.65 435.5 885.667 435.5L842.334 435.5C836.35 435.5 831.5 430.65 831.5 424.667Z" stroke="#ED7D31" stroke-width="1.33333" stroke-miterlimit="8" fill="#FFFFFF" fill-rule="evenodd"/><text font-family="Times New Roman,Times New Roman_MSFontService,sans-serif" font-weight="400" font-size="24" transform="translate(838.627 326)">Sum</text><path d="M683.5 355.834C683.5 350.127 688.127 345.5 693.834 345.5L735.167 345.5C740.874 345.5 745.5 350.127 745.5 355.834L745.5 425.167C745.5 430.874 740.874 435.5 735.167 435.5L693.834 435.5C688.127 435.5 683.5 430.874 683.5 425.167Z" stroke="#ED7D31" stroke-width="1.33333" stroke-miterlimit="8" fill="#FFFFFF" fill-rule="evenodd"/><text font-family="Times New Roman,Times New Roman_MSFontService,sans-serif" font-weight="400" font-size="24" transform="translate(692.425 326)">w(t)</text><path d="M745.5 389.833 823.99 389.833 823.99 391.167 745.5 391.167ZM822.656 386.5 830.656 390.5 822.656 394.5Z"/><path d="M0.573067-0.340644 100.927 168.486 99.7811 169.167-0.573067 0.340644ZM103.111 165.637 103.761 174.557 96.2346 169.725Z" transform="matrix(1 0 0 -1 896.5 390.058)"/><path d="M0.391619-0.539518 98.0965 70.3814 97.3133 71.4604-0.391619 0.539518ZM98.9757 66.9006 103.1 74.8372 94.2762 73.3748Z" transform="matrix(1 0 0 -1 896.5 390.337)"/><path d="M896.892 389.961 994.597 460.881 993.813 461.96 896.108 391.04ZM995.476 457.401 999.6 465.337 990.776 463.875Z"/><path d="M897.074 390.161 996.784 558.978 995.636 559.656 895.926 390.839ZM998.976 556.135 999.6 565.057 992.088 560.203Z"/><text font-family="Times New Roman,Times New Roman_MSFontService,sans-serif" font-weight="700" font-size="24" transform="translate(354.957 615)">CBOW<tspan font-size="24" x="460.771" y="-1">Skip</tspan><tspan font-size="24" x="507.437" y="-1">-</tspan>Gram</text></g></svg>