<svg viewBox="0 0 508 269.601" xmlns="http://www.w3.org/2000/svg" width="508" height="270" xmlns:xlink="http://www.w3.org/1999/xlink">
    <defs/>
    <g id="group1" transform="translate(1.00,1.00)">
        <g id="shape2" transform="translate(0.00,0.00)">
            <path stroke="#323232" fill-rule="nonzero" fill="#ffffff" d="M209.6,148.8L209.6,7.0C209.6,3.1,206.5,.0,202.6,.0L7.0,.0C3.1,.0,.0,3.1,.0,7.0L.0,148.8C.0,152.7,3.1,155.8,7.0,155.8L202.6,155.8C206.5,155.8,209.6,152.7,209.6,148.8z"/>
            <text style="fill:#191919;font-family:Times New Roman;font-size:13.00pt" xml:space="preserve">
                <tspan y="20.0" x="3.5">Client</tspan>
            </text>
        </g>
        <g id="shape3" transform="translate(45.76,34.48)">
            <path stroke="#323232" fill-rule="nonzero" fill="#ffffff" d="M118.1,24.9L118.1,7.0C118.1,3.1,115.0,.0,111.1,.0L7.0,.0C3.1,.0,.0,3.1,.0,7.0L.0,24.9C.0,28.8,3.1,31.9,7.0,31.9L111.1,31.9C115.0,31.9,118.1,28.8,118.1,24.9z"/>
            <text style="fill:#191919;font-family:Times New Roman;font-size:13.00pt" xml:space="preserve">
                <tspan y="22.0" x="16.7">Client Code</tspan>
            </text>
        </g>
        <g id="shape4" transform="translate(45.76,103.49)">
            <path stroke="#323232" fill-rule="nonzero" fill="#ffffff" d="M118.1,24.9L118.1,7.0C118.1,3.1,115.0,.0,111.1,.0L7.0,.0C3.1,.0,.0,3.1,.0,7.0L.0,24.9C.0,28.8,3.1,31.9,7.0,31.9L111.1,31.9C115.0,31.9,118.1,28.8,118.1,24.9z"/>
            <text style="fill:#191919;font-family:Times New Roman;font-size:13.00pt" xml:space="preserve">
                <tspan y="22.0" x="19.5">Client Stub</tspan>
            </text>
        </g>
        <g id="shape5" transform="translate(45.76,191.97)">
            <path stroke="#323232" fill-rule="nonzero" fill="#ffffff" d="M118.1,36.6L118.1,7.0C118.1,3.1,115.0,.0,111.1,.0L7.0,.0C3.1,.0,.0,3.1,.0,7.0L.0,36.6C.0,40.5,3.1,43.6,7.0,43.6L111.1,43.6C115.0,43.6,118.1,40.5,118.1,36.6z"/>
            <text style="fill:#191919;font-family:Times New Roman;font-size:13.00pt" xml:space="preserve">
                <tspan y="27.8" x="27.5">NetWork</tspan>
            </text>
        </g>
        <g id="shape6" transform="translate(296.36,0.00)">
            <path stroke="#323232" fill-rule="nonzero" fill="#ffffff" d="M209.6,148.8L209.6,7.0C209.6,3.1,206.5,.0,202.6,.0L7.0,.0C3.1,.0,.0,3.1,.0,7.0L.0,148.8C.0,152.7,3.1,155.8,7.0,155.8L202.6,155.8C206.5,155.8,209.6,152.7,209.6,148.8z"/>
            <text style="fill:#191919;font-family:Times New Roman;font-size:13.00pt" xml:space="preserve">
                <tspan y="20.0" x="3.5">Server</tspan>
            </text>
        </g>
        <g id="shape7" transform="translate(342.12,34.48)">
            <path stroke="#323232" fill-rule="nonzero" fill="#ffffff" d="M118.1,24.9L118.1,7.0C118.1,3.1,115.0,.0,111.1,.0L7.0,.0C3.1,.0,.0,3.1,.0,7.0L.0,24.9C.0,28.8,3.1,31.9,7.0,31.9L111.1,31.9C115.0,31.9,118.1,28.8,118.1,24.9z"/>
            <text style="fill:#191919;font-family:Times New Roman;font-size:13.00pt" xml:space="preserve">
                <tspan y="22.0" x="15.1">Server Code</tspan>
            </text>
        </g>
        <g id="shape8" transform="translate(342.12,103.49)">
            <path stroke="#323232" fill-rule="nonzero" fill="#ffffff" d="M118.1,24.9L118.1,7.0C118.1,3.1,115.0,.0,111.1,.0L7.0,.0C3.1,.0,.0,3.1,.0,7.0L.0,24.9C.0,28.8,3.1,31.9,7.0,31.9L111.1,31.9C115.0,31.9,118.1,28.8,118.1,24.9z"/>
            <text style="fill:#191919;font-family:Times New Roman;font-size:13.00pt" xml:space="preserve">
                <tspan y="22.0" x="17.9">Server Stub</tspan>
            </text>
        </g>
        <g id="shape9" transform="translate(342.12,191.97)">
            <path stroke="#323232" fill-rule="nonzero" fill="#ffffff" d="M118.1,36.6L118.1,7.0C118.1,3.1,115.0,.0,111.1,.0L7.0,.0C3.1,.0,.0,3.1,.0,7.0L.0,36.6C.0,40.5,3.1,43.6,7.0,43.6L111.1,43.6C115.0,43.6,118.1,40.5,118.1,36.6z"/>
            <text style="fill:#191919;font-family:Times New Roman;font-size:13.00pt" xml:space="preserve">
                <tspan y="27.8" x="27.5">NetWork</tspan>
            </text>
        </g>
        <g id="shape10" transform="translate(81.70,66.40)">
            <path stroke="#191919" fill="none" d="M.0,.0L.0,30.2" stroke-width="1"/>
            <path stroke="#191919" fill="#191919" stroke-linecap="round" d="M3.5,30.2L.0,37.1L-3.5,30.2L3.5,30.2" stroke-width="1"/>
        </g>
        <g id="shape11" transform="translate(83.06,135.41)">
            <path stroke="#191919" fill="none" d="M.0,.0L.0,49.6" stroke-width="1"/>
            <path stroke="#191919" fill="#191919" stroke-linecap="round" d="M3.5,49.6L.0,56.6L-3.5,49.6L3.5,49.6" stroke-width="1"/>
        </g>
        <g id="shape12" transform="translate(128.56,103.49)">
            <path stroke="#191919" fill="none" d="M.0,.0L.0,-30.2" stroke-width="1"/>
            <path stroke="#191919" fill="#191919" stroke-linecap="round" d="M-3.5,-30.2L.0,-37.1L3.5,-30.2L-3.5,-30.2" stroke-width="1"/>
        </g>
        <g id="shape13" transform="translate(129.91,191.97)">
            <path stroke="#191919" fill="none" d="M.0,.0L.0,-49.6" stroke-width="1"/>
            <path stroke="#191919" fill="#191919" stroke-linecap="round" d="M-3.5,-49.6L.0,-56.6L3.5,-49.6L-3.5,-49.6" stroke-width="1"/>
        </g>
        <g id="shape14" transform="translate(163.88,225.25)">
            <path stroke="#191919" fill="none" d="M.0,.0L171.3,-0.0" stroke-width="1"/>
            <path stroke="#191919" fill="#191919" stroke-linecap="round" d="M171.3,-3.5L178.2,-0.0L171.3,3.5L171.3,-3.5" stroke-width="1"/>
        </g>
        <g id="shape15" transform="translate(342.12,200.96)">
            <path stroke="#191919" fill="none" d="M.0,.0L-171.3,.0" stroke-width="1"/>
            <path stroke="#191919" fill="#191919" stroke-linecap="round" d="M-171.3,3.5L-178.2,.0L-171.3,-3.5L-171.3,3.5" stroke-width="1"/>
        </g>
        <g id="shape16" transform="translate(380.36,135.41)">
            <path stroke="#191919" fill="none" d="M.0,.0L.0,49.6" stroke-width="1"/>
            <path stroke="#191919" fill="#191919" stroke-linecap="round" d="M3.5,49.6L.0,56.6L-3.5,49.6L3.5,49.6" stroke-width="1"/>
        </g>
        <g id="shape17" transform="translate(425.23,191.97)">
            <path stroke="#191919" fill="none" d="M.0,.0L.0,-49.6" stroke-width="1"/>
            <path stroke="#191919" fill="#191919" stroke-linecap="round" d="M-3.5,-49.6L.0,-56.6L3.5,-49.6L-3.5,-49.6" stroke-width="1"/>
        </g>
        <g id="shape18" transform="translate(380.36,66.40)">
            <path stroke="#191919" fill="none" d="M.0,.0L.0,30.2" stroke-width="1"/>
            <path stroke="#191919" fill="#191919" stroke-linecap="round" d="M3.5,30.2L.0,37.1L-3.5,30.2L3.5,30.2" stroke-width="1"/>
        </g>
        <g id="shape19" transform="translate(426.59,103.49)">
            <path stroke="#191919" fill="none" d="M.0,.0L.0,-30.2" stroke-width="1"/>
            <path stroke="#191919" fill="#191919" stroke-linecap="round" d="M-3.5,-30.2L.0,-37.1L3.5,-30.2L-3.5,-30.2" stroke-width="1"/>
        </g>
    </g>
</svg>
