<svg viewBox="0 0 163 506" xmlns="http://www.w3.org/2000/svg" xmlns:xlink="http://www.w3.org/1999/xlink" height="506" width="163">
    <defs/>
    <g transform="translate(1.00,1.00)" id="group1">
        <g transform="translate(30.50,0.00)" id="shape2">
            <path stroke="#323232" d="M22.0,44.0L78.0,44.0L78.0,44.0C90.2,44.0,100.0,34.2,100.0,22.0C100.0,9.8,90.2,.0,78.0,.0L22.0,.0L22.0,.0C9.8,.0,.0,9.8,.0,22.0C.0,34.2,9.8,44.0,22.0,44.0z" fill-rule="nonzero" fill="#ffffff"/>
            <text style="fill:#191919;font-family:Times New Roman;font-size:11.00pt" xml:space="preserve">
                <tspan x="35.6" y="26.9">开始</tspan>
            </text>
        </g>
        <g transform="translate(0.00,120.00)" id="shape3">
            <path stroke="#323232" d="M161.0,44.0L161.0,.0L.0,.0L.0,44.0L161.0,44.0z" fill-rule="nonzero" fill="#ffffff"/>
            <text style="fill:#191919;font-family:Times New Roman;font-size:11.00pt" xml:space="preserve">
                <tspan x="15.7" y="26.9">设置类别标签和种类</tspan>
            </text>
        </g>
        <g transform="translate(0.00,60.00)" id="shape4">
            <path stroke="#323232" d="M150.0,44.0L161.0,.0L11.0,.0L.0,44.0L150.0,44.0z" fill-rule="nonzero" fill="#ffffff"/>
            <text style="fill:#191919;font-family:Times New Roman;font-size:11.00pt" xml:space="preserve">
                <tspan x="20.9" y="26.9">加载Tags_User数据</tspan>
            </text>
        </g>
        <g transform="translate(80.50,44.00)" id="shape5">
            <path stroke="#191919" d="M.0,.0L.0,10.0" fill="none"/>
            <path stroke="#191919" d="M3.0,10.0L.0,16.0L-3.0,10.0L3.0,10.0" stroke-width="1" stroke-linecap="round" fill="#191919"/>
        </g>
        <g transform="translate(80.50,104.00)" id="shape6">
            <path stroke="#191919" d="M.0,.0L.0,10.0" fill="none"/>
            <path stroke="#191919" d="M3.0,10.0L.0,16.0L-3.0,10.0L3.0,10.0" stroke-width="1" stroke-linecap="round" fill="#191919"/>
        </g>
        <g transform="translate(0.00,180.00)" id="shape7">
            <path stroke="#323232" d="M161.0,54.0L161.0,.0L.0,.0L.0,54.0L161.0,54.0z" fill-rule="nonzero" fill="#ffffff"/>
            <text style="fill:#191919;font-family:Times New Roman;font-size:11.00pt" xml:space="preserve">
                <tspan x="22.9" y="22.4">在末尾加入第一列</tspan>
                <tspan x="44.5" y="40.8">使图形闭环</tspan>
            </text>
        </g>
        <g transform="translate(80.50,164.00)" id="shape8">
            <path stroke="#191919" d="M.0,.0L.0,10.0" fill="none"/>
            <path stroke="#191919" d="M3.0,10.0L.0,16.0L-3.0,10.0L3.0,10.0" stroke-width="1" stroke-linecap="round" fill="#191919"/>
        </g>
        <g transform="translate(80.50,234.00)" id="shape9">
            <path stroke="#191919" d="M.0,.0L.0,10.0" fill="none"/>
            <path stroke="#191919" d="M3.0,10.0L.0,16.0L-3.0,10.0L3.0,10.0" stroke-width="1" stroke-linecap="round" fill="#191919"/>
        </g>
        <g transform="translate(0.00,250.00)" id="shape10">
            <path stroke="#323232" d="M161.0,54.0L161.0,.0L.0,.0L.0,54.0L161.0,54.0z" fill-rule="nonzero" fill="#ffffff"/>
            <text style="fill:#191919;font-family:Times New Roman;font-size:11.00pt" xml:space="preserve">
                <tspan x="37.3" y="22.4">设置角度范围</tspan>
                <tspan x="15.7" y="40.8">并以极坐标形式绘图</tspan>
            </text>
        </g>
        <g transform="translate(0.00,320.00)" id="shape11">
            <path stroke="#323232" d="M161.0,54.0L161.0,.0L.0,.0L.0,54.0L161.0,54.0z" fill-rule="nonzero" fill="#ffffff"/>
            <text style="fill:#191919;font-family:Times New Roman;font-size:11.00pt" xml:space="preserve">
                <tspan x="51.7" y="31.9">添加图例</tspan>
            </text>
        </g>
        <g transform="translate(80.50,304.00)" id="shape12">
            <path stroke="#191919" d="M.0,.0L.0,10.0" fill="none"/>
            <path stroke="#191919" d="M3.0,10.0L.0,16.0L-3.0,10.0L3.0,10.0" stroke-width="1" stroke-linecap="round" fill="#191919"/>
        </g>
        <g transform="translate(0.00,390.00)" id="shape13">
            <path stroke="#323232" d="M161.0,54.0L161.0,.0L.0,.0L.0,54.0L161.0,54.0z" fill-rule="nonzero" fill="#ffffff"/>
            <text style="fill:#191919;font-family:Times New Roman;font-size:11.00pt" xml:space="preserve">
                <tspan x="41.3" y="31.9">保存png图片</tspan>
            </text>
        </g>
        <g transform="translate(80.50,374.00)" id="shape14">
            <path stroke="#191919" d="M.0,.0L.0,10.0" fill="none"/>
            <path stroke="#191919" d="M3.0,10.0L.0,16.0L-3.0,10.0L3.0,10.0" stroke-width="1" stroke-linecap="round" fill="#191919"/>
        </g>
        <g transform="translate(30.50,460.00)" id="shape15">
            <path stroke="#323232" d="M22.0,44.0L78.0,44.0L78.0,44.0C90.2,44.0,100.0,34.2,100.0,22.0C100.0,9.8,90.2,.0,78.0,.0L22.0,.0L22.0,.0C9.8,.0,.0,9.8,.0,22.0C.0,34.2,9.8,44.0,22.0,44.0z" fill-rule="nonzero" fill="#ffffff"/>
            <text style="fill:#191919;font-family:Times New Roman;font-size:11.00pt" xml:space="preserve">
                <tspan x="35.6" y="26.9">结束</tspan>
            </text>
        </g>
        <g transform="translate(80.50,444.00)" id="shape16">
            <path stroke="#191919" d="M.0,.0L.0,10.0" fill="none"/>
            <path stroke="#191919" d="M3.0,10.0L.0,16.0L-3.0,10.0L3.0,10.0" stroke-width="1" stroke-linecap="round" fill="#191919"/>
        </g>
    </g>
</svg>
