<svg width="1049" height="537" xmlns="http://www.w3.org/2000/svg" xmlns:xlink="http://www.w3.org/1999/xlink" overflow="hidden"><defs><clipPath id="clip0"><rect x="116" y="67" width="1049" height="537"/></clipPath></defs><g clip-path="url(#clip0)" transform="translate(-116 -67)"><text font-family="Times New Roman,Times New Roman_MSFontService,sans-serif" font-weight="700" font-size="24" transform="translate(213.233 98)">Input<tspan font-size="24" x="123.816" y="0">Projection</tspan><tspan font-size="24" x="293.284" y="0">Output</tspan></text><path d="M217.5 163.834C217.5 158.679 221.679 154.5 226.834 154.5L264.167 154.5C269.321 154.5 273.5 158.679 273.5 163.834L273.5 204.167C273.5 209.321 269.321 213.5 264.167 213.5L226.834 213.5C221.679 213.5 217.5 209.321 217.5 204.167Z" stroke="#000000" stroke-width="1.33333" stroke-miterlimit="8" fill="#FFFFFF" fill-rule="evenodd"/><path d="M217.5 263.834C217.5 258.679 221.679 254.5 226.834 254.5L264.167 254.5C269.321 254.5 273.5 258.679 273.5 263.834L273.5 304.167C273.5 309.321 269.321 313.5 264.167 313.5L226.834 313.5C221.679 313.5 217.5 309.321 217.5 304.167Z" stroke="#000000" stroke-width="1.33333" stroke-miterlimit="8" fill="#FFFFFF" fill-rule="evenodd"/><path d="M217.5 413.834C217.5 408.679 221.679 404.5 226.834 404.5L264.167 404.5C269.321 404.5 273.5 408.679 273.5 413.834L273.5 454.167C273.5 459.321 269.321 463.5 264.167 463.5L226.834 463.5C221.679 463.5 217.5 459.321 217.5 454.167Z" stroke="#000000" stroke-width="1.33333" stroke-miterlimit="8" fill="#FFFFFF" fill-rule="evenodd"/><path d="M217.5 512.834C217.5 507.679 221.679 503.5 226.834 503.5L264.167 503.5C269.321 503.5 273.5 507.679 273.5 512.834L273.5 553.167C273.5 558.321 269.321 562.5 264.167 562.5L226.834 562.5C221.679 562.5 217.5 558.321 217.5 553.167Z" stroke="#000000" stroke-width="1.33333" stroke-miterlimit="8" fill="#FFFFFF" fill-rule="evenodd"/><text font-family="Times New Roman,Times New Roman_MSFontService,sans-serif" font-weight="400" font-size="24" transform="translate(131.325 192)">w(t-2)<tspan font-size="24" x="0" y="100">w(t</tspan>-1)<tspan font-size="24" x="0" y="349">w(t+2)</tspan><tspan font-size="24" x="0" y="249">w(t+1)</tspan></text><path d="M358.5 324.5C358.5 318.425 363.425 313.5 369.5 313.5L413.5 313.5C419.575 313.5 424.5 318.425 424.5 324.5L424.5 393.5C424.5 399.575 419.575 404.5 413.5 404.5L369.5 404.5C363.425 404.5 358.5 399.575 358.5 393.5Z" stroke="#000000" stroke-width="1.33333" stroke-miterlimit="8" fill="#FFFFFF" fill-rule="evenodd"/><text font-family="Times New Roman,Times New Roman_MSFontService,sans-serif" font-weight="400" font-size="24" transform="translate(366.591 294)">Sum</text><path d="M274.099 184.207 356.439 352.775 355.241 353.36 272.901 184.793ZM358.849 350.114 358.766 359.058 351.661 353.625Z"/><path d="M273.938 282.997 354.837 353.456 353.961 354.461 273.062 284.003ZM356.021 350.067 359.426 358.337 350.767 356.099Z"/><path d="M0.437847-0.502727 81.337 69.9558 80.4613 70.9613-0.437847 0.502727ZM82.5208 66.5665 85.9264 74.8371 77.2666 72.5993Z" transform="matrix(1 0 0 -1 273.5 433.337)"/><path d="M0.598127-0.29443 83.5802 168.282 82.3839 168.87-0.598127 0.29443ZM85.982 165.613 85.9264 174.557 78.8045 169.146Z" transform="matrix(1 0 0 -1 273.5 533.057)"/><path d="M516.5 324C516.5 318.201 521.201 313.5 527 313.5L569 313.5C574.799 313.5 579.5 318.201 579.5 324L579.5 394C579.5 399.799 574.799 404.5 569 404.5L527 404.5C521.201 404.5 516.5 399.799 516.5 394Z" stroke="#000000" stroke-width="1.33333" stroke-miterlimit="8" fill="#FFFFFF" fill-rule="evenodd"/><path d="M424.5 357.833 509.87 357.833 509.87 359.167 424.5 359.167ZM508.537 354.5 516.537 358.5 508.537 362.5Z"/><text font-family="Times New Roman,Times New Roman_MSFontService,sans-serif" font-weight="400" font-size="24" transform="translate(525.619 294)">w(t)<tspan font-weight="700" font-size="24" x="164.238" y="-196">Input</tspan><tspan font-weight="700" font-size="24" x="288.055" y="-196">Projection</tspan><tspan font-weight="700" font-size="24" x="457.523" y="-196">Output</tspan></text><path d="M1004.5 163.834C1004.5 158.679 1008.68 154.5 1013.83 154.5L1051.17 154.5C1056.32 154.5 1060.5 158.679 1060.5 163.834L1060.5 204.167C1060.5 209.321 1056.32 213.5 1051.17 213.5L1013.83 213.5C1008.68 213.5 1004.5 209.321 1004.5 204.167Z" stroke="#000000" stroke-width="1.33333" stroke-miterlimit="8" fill="#FFFFFF" fill-rule="evenodd"/><path d="M1004.5 263.834C1004.5 258.679 1008.68 254.5 1013.83 254.5L1051.17 254.5C1056.32 254.5 1060.5 258.679 1060.5 263.834L1060.5 304.167C1060.5 309.321 1056.32 313.5 1051.17 313.5L1013.83 313.5C1008.68 313.5 1004.5 309.321 1004.5 304.167Z" stroke="#000000" stroke-width="1.33333" stroke-miterlimit="8" fill="#FFFFFF" fill-rule="evenodd"/><path d="M1004.5 413.834C1004.5 408.679 1008.68 404.5 1013.83 404.5L1051.17 404.5C1056.32 404.5 1060.5 408.679 1060.5 413.834L1060.5 454.167C1060.5 459.321 1056.32 463.5 1051.17 463.5L1013.83 463.5C1008.68 463.5 1004.5 459.321 1004.5 454.167Z" stroke="#000000" stroke-width="1.33333" stroke-miterlimit="8" fill="#FFFFFF" fill-rule="evenodd"/><path d="M1004.5 512.834C1004.5 507.679 1008.68 503.5 1013.83 503.5L1051.17 503.5C1056.32 503.5 1060.5 507.679 1060.5 512.834L1060.5 553.167C1060.5 558.321 1056.32 562.5 1051.17 562.5L1013.83 562.5C1008.68 562.5 1004.5 558.321 1004.5 553.167Z" stroke="#000000" stroke-width="1.33333" stroke-miterlimit="8" fill="#FFFFFF" fill-rule="evenodd"/><text font-family="Times New Roman,Times New Roman_MSFontService,sans-serif" font-weight="400" font-size="24" transform="translate(1084.21 192)">w(t-2)<tspan font-size="24" x="0" y="100">w(t</tspan>-1)<tspan font-size="24" x="0" y="350">w(t+2)</tspan><tspan font-size="24" x="0" y="250">w(t+1)</tspan></text><path d="M835.5 324.5C835.5 318.425 840.425 313.5 846.5 313.5L890.5 313.5C896.575 313.5 901.5 318.425 901.5 324.5L901.5 393.5C901.5 399.575 896.575 404.5 890.5 404.5L846.5 404.5C840.425 404.5 835.5 399.575 835.5 393.5Z" stroke="#000000" stroke-width="1.33333" stroke-miterlimit="8" fill="#FFFFFF" fill-rule="evenodd"/><text font-family="Times New Roman,Times New Roman_MSFontService,sans-serif" font-weight="400" font-size="24" transform="translate(843.215 294)">Sum</text><path d="M687.5 324C687.5 318.201 692.201 313.5 698 313.5L740 313.5C745.799 313.5 750.5 318.201 750.5 324L750.5 394C750.5 399.799 745.799 404.5 740 404.5L698 404.5C692.201 404.5 687.5 399.799 687.5 394Z" stroke="#000000" stroke-width="1.33333" stroke-miterlimit="8" fill="#FFFFFF" fill-rule="evenodd"/><text font-family="Times New Roman,Times New Roman_MSFontService,sans-serif" font-weight="400" font-size="24" transform="translate(697.013 294)">w(t)</text><path d="M750.5 357.833 828.99 357.833 828.99 359.167 750.5 359.167ZM827.656 354.5 835.656 358.5 827.656 362.5Z"/><path d="M0.573067-0.340644 100.927 168.486 99.7811 169.167-0.573067 0.340644ZM103.111 165.637 103.761 174.557 96.2346 169.725Z" transform="matrix(1 0 0 -1 901.5 359.058)"/><path d="M0.391619-0.539518 98.0965 70.3814 97.3133 71.4604-0.391619 0.539518ZM98.9757 66.9006 103.1 74.8372 94.2762 73.3748Z" transform="matrix(1 0 0 -1 901.5 358.337)"/><path d="M901.892 357.961 999.597 428.881 998.813 429.96 901.108 359.04ZM1000.48 425.401 1004.6 433.337 995.776 431.875Z"/><path d="M902.074 358.161 1001.78 526.978 1000.64 527.656 900.926 358.839ZM1003.98 524.135 1004.6 533.057 997.088 528.203Z"/><text font-family="Times New Roman,Times New Roman_MSFontService,sans-serif" font-weight="700" font-size="24" transform="translate(359.545 583)">CBOW<tspan font-size="24" x="460.771" y="-1">Skip</tspan><tspan font-size="24" x="507.437" y="-1">-</tspan>Gram</text></g></svg>