<svg width="1078" height="362" xmlns="http://www.w3.org/2000/svg" xmlns:xlink="http://www.w3.org/1999/xlink" overflow="hidden"><defs><clipPath id="clip0"><rect x="-11" y="390" width="1078" height="362"/></clipPath></defs><g clip-path="url(#clip0)" transform="translate(11 -390)"><path d="M14.5001 425.5C14.5001 419.977 18.9773 415.5 24.5003 415.5L141.5 415.5C147.023 415.5 151.5 419.977 151.5 425.5L151.5 465.5C151.5 471.023 147.023 475.5 141.5 475.5L24.5003 475.5C18.9773 475.5 14.5001 471.023 14.5001 465.5Z" stroke="#4472C4" stroke-width="1.33333" stroke-miterlimit="8" fill="#DEEBF7" fill-rule="evenodd"/><text font-family="Calibri,Calibri_MSFontService,sans-serif" font-weight="400" font-size="24" transform="translate(59.9506 453)">Usr1</text><path d="M14.5001 517.5C14.5001 511.977 18.9773 507.5 24.5003 507.5L141.5 507.5C147.023 507.5 151.5 511.977 151.5 517.5L151.5 557.5C151.5 563.023 147.023 567.5 141.5 567.5L24.5003 567.5C18.9773 567.5 14.5001 563.023 14.5001 557.5Z" stroke="#4472C4" stroke-width="1.33333" stroke-miterlimit="8" fill="#DEEBF7" fill-rule="evenodd"/><text font-family="Calibri,Calibri_MSFontService,sans-serif" font-weight="400" font-size="24" transform="translate(59.9506 544)">Usr2</text><path d="M14.5001 609.5C14.5001 603.977 18.9773 599.5 24.5003 599.5L141.5 599.5C147.023 599.5 151.5 603.977 151.5 609.5L151.5 649.5C151.5 655.023 147.023 659.5 141.5 659.5L24.5003 659.5C18.9773 659.5 14.5001 655.023 14.5001 649.5Z" stroke="#4472C4" stroke-width="1.33333" stroke-miterlimit="8" fill="#FFFFFF" fill-rule="evenodd"/><text font-family="Calibri,Calibri_MSFontService,sans-serif" font-weight="400" font-size="24" transform="translate(59.9506 637)">Usr3</text><path d="M14.5001 701.5C14.5001 695.977 18.9773 691.5 24.5003 691.5L141.5 691.5C147.023 691.5 151.5 695.977 151.5 701.5L151.5 741.5C151.5 747.023 147.023 751.5 141.5 751.5L24.5003 751.5C18.9773 751.5 14.5001 747.023 14.5001 741.5Z" stroke="#4472C4" stroke-width="1.33333" stroke-miterlimit="8" fill="#DEEBF7" fill-rule="evenodd"/><text font-family="Calibri,Calibri_MSFontService,sans-serif" font-weight="400" font-size="24" transform="translate(59.9504 729)">Usr4</text><path d="M355.5 425.5C355.5 419.977 359.977 415.5 365.5 415.5L482.5 415.5C488.023 415.5 492.5 419.977 492.5 425.5L492.5 465.5C492.5 471.023 488.023 475.5 482.5 475.5L365.5 475.5C359.977 475.5 355.5 471.023 355.5 465.5Z" stroke="#4472C4" stroke-width="1.33333" stroke-miterlimit="8" fill="#FFFFFF" fill-rule="evenodd"/><text font-family="Calibri,Calibri_MSFontService,sans-serif" font-weight="400" font-size="24" transform="translate(395.022 453)">Ietm1</text><path d="M355.5 517.5C355.5 511.977 359.977 507.5 365.5 507.5L482.5 507.5C488.023 507.5 492.5 511.977 492.5 517.5L492.5 557.5C492.5 563.023 488.023 567.5 482.5 567.5L365.5 567.5C359.977 567.5 355.5 563.023 355.5 557.5Z" stroke="#4472C4" stroke-width="1.33333" stroke-miterlimit="8" fill="#FFFFFF" fill-rule="evenodd"/><text font-family="Calibri,Calibri_MSFontService,sans-serif" font-weight="400" font-size="24" transform="translate(395.088 544)">Item2</text><path d="M355.5 609.5C355.5 603.977 359.977 599.5 365.5 599.5L482.5 599.5C488.023 599.5 492.5 603.977 492.5 609.5L492.5 649.5C492.5 655.023 488.023 659.5 482.5 659.5L365.5 659.5C359.977 659.5 355.5 655.023 355.5 649.5Z" stroke="#4472C4" stroke-width="1.33333" stroke-miterlimit="8" fill="#FFFFFF" fill-rule="evenodd"/><text font-family="Calibri,Calibri_MSFontService,sans-serif" font-weight="400" font-size="24" transform="translate(395.088 637)">Item3</text><path d="M355.5 701.5C355.5 695.977 359.977 691.5 365.5 691.5L482.5 691.5C488.023 691.5 492.5 695.977 492.5 701.5L492.5 741.5C492.5 747.023 488.023 751.5 482.5 751.5L365.5 751.5C359.977 751.5 355.5 747.023 355.5 741.5Z" stroke="#4472C4" stroke-width="1.33333" stroke-miterlimit="8" fill="#FFF2CC" fill-rule="evenodd"/><text font-family="Calibri,Calibri_MSFontService,sans-serif" font-weight="400" font-size="24" transform="translate(395.088 729)">Item4</text><path d="M151.5 444.833 349.109 444.833 349.109 446.167 151.5 446.167ZM347.776 441.5 355.776 445.5 347.776 449.5Z" fill="#ED7D31"/><path d="M0.272854-0.608272 198.466 88.2955 197.92 89.5121-0.272854 0.608272ZM198.614 84.7085 204.276 91.6323 195.339 92.0077Z" fill="#ED7D31" transform="matrix(1 0 0 -1 151.5 537.132)"/><path d="M0.535852-0.396619 200.846 270.232 199.774 271.025-0.535852 0.396619ZM202.732 267.177 204.276 275.987 196.301 271.936Z" fill="#ED7D31" transform="matrix(1 0 0 -1 151.5 721.487)"/><path d="M0.16169-0.646762 1.28262-0.366529 2.52409 0.509806 3.61807 1.87727 4.59178 3.62996 5.61542 5.74122 6.51089 8.23573 8.14837 14.1558 9.5949 21.137 10.6629 28.9272 11.3534 37.2753 11.6044 45.8726 11.4161 54.47 10.7888 62.7501 9.91032 70.5312 8.71565 77.5106 7.2583 83.4667 5.94179 86.4187 4.72407 85.8756 6.01614 82.9785 5.97744 83.0916 7.41494 77.2166 7.40539 77.2625 8.59289 70.325 8.58754 70.3627 9.46254 62.6127 9.46024 62.6371 10.0852 54.3871 10.0835 54.4229 10.271 45.8604 10.2711 45.8945 10.0211 37.332 10.0231 37.3675 9.3356 29.055 9.33951 29.0905 8.27701 21.3406 8.2847 21.3853 6.8472 14.4478 6.85746 14.4902 5.23246 8.61522 5.24754 8.66274 4.37254 6.22524 4.40012 6.29085 3.40012 4.22835 3.41723 4.26126 2.47973 2.57376 2.54192 2.66646 1.54192 1.41646 1.67804 1.54465 0.615544 0.794645 0.83831 0.896762-0.16169 0.646762ZM9.39874 87.2638 1.625 91.6875 2.7503 82.8143Z" fill="#ED7D31" transform="matrix(-1 1.22465e-16 1.22465e-16 1 16.1048 445.5)"/><path d="M0.109599-0.657596 1.34814-0.451172 2.6286 0.260193 3.85068 1.27859 5.04776 2.74169 7.28438 6.51199 9.43736 11.6412 11.5137 17.9332 13.5222 25.3393 15.403 33.6775 17.1568 43.0103 18.7846 53.0904 20.2241 63.9181 21.5383 75.3698 22.6021 87.2592 23.478 99.5849 24.1038 112.226 24.6668 138 24.1038 163.774 23.478 176.415 22.6021 188.741 21.5383 200.63 20.2241 212.082 18.7846 222.91 17.1568 232.99 15.403 242.322 13.5222 250.661 11.5137 258.067 9.43736 264.359 7.2673 269.529 5.41598 271.883 4.3679 271.059 6.16346 268.775 6.07279 268.929 8.19779 263.867 8.17941 263.916 10.2419 257.666 10.2316 257.701 12.2316 250.326 12.2247 250.353 14.0997 242.041 14.0948 242.064 15.8448 232.752 15.8419 232.769 17.4669 222.706 17.4641 222.725 18.9016 211.912 18.9002 211.924 20.2127 200.486 20.211 200.503 21.2735 188.628 21.2725 188.64 22.1475 176.328 22.1466 176.342 22.7716 163.717 22.771 163.735 23.3335 137.985 23.3335 138.015 22.771 112.265 22.7716 112.283 22.1466 99.658 22.1475 99.6723 21.2725 87.3598 21.2735 87.3719 20.211 75.4969 20.2127 75.5135 18.9002 64.076 18.9016 64.0879 17.4641 53.2754 17.4669 53.2938 15.8419 43.2313 15.8448 43.2481 14.0948 33.9356 14.0997 33.9592 12.2247 25.6467 12.2316 25.6745 10.2316 18.2995 10.2419 18.3339 8.17941 12.0839 8.19779 12.133 6.07279 7.07053 6.11413 7.15263 3.92663 3.46513 3.98403 3.54716 2.85903 2.17216 2.94821 2.26215 1.82321 1.32465 1.92624 1.39527 0.801238 0.770272 1.0154 0.845096-0.109599 0.657596ZM8.58783 273.5 0 276 3.15282 267.63Z" fill="#ED7D31" transform="matrix(-1 1.22465e-16 1.22465e-16 1 14.5002 445.5)"/><path d="M151.773 444.892 152.989 445.438 152.444 446.654 151.227 446.108ZM154.206 445.983 155.423 446.529 154.877 447.745 153.66 447.2ZM156.639 447.075 157.856 447.62 157.31 448.837 156.093 448.291ZM159.072 448.166 160.289 448.712 159.743 449.928 158.526 449.383ZM161.505 449.257 162.722 449.803 162.176 451.02 160.96 450.474ZM163.938 450.349 165.155 450.895 164.609 452.111 163.393 451.565ZM166.371 451.44 167.588 451.986 167.042 453.203 165.826 452.657ZM168.805 452.532 170.021 453.077 169.475 454.294 168.259 453.748ZM171.238 453.623 172.454 454.169 171.908 455.385 170.692 454.84ZM173.671 454.715 174.887 455.26 174.342 456.477 173.125 455.931ZM176.104 455.806 177.32 456.352 176.775 457.568 175.558 457.022ZM178.537 456.897 179.753 457.443 179.208 458.66 177.991 458.114ZM180.97 457.989 182.187 458.534 181.641 459.751 180.424 459.205ZM183.403 459.08 184.62 459.626 184.074 460.842 182.857 460.297ZM185.836 460.172 187.053 460.717 186.507 461.934 185.29 461.388ZM188.269 461.263 189.486 461.809 188.94 463.025 187.724 462.48ZM190.702 462.354 191.919 462.9 191.373 464.117 190.157 463.571ZM193.135 463.446 194.352 463.992 193.806 465.208 192.59 464.662ZM195.569 464.537 196.785 465.083 196.239 466.299 195.023 465.754ZM198.002 465.629 199.218 466.174 198.672 467.391 197.456 466.845ZM200.435 466.72 201.651 467.266 201.106 468.482 199.889 467.937ZM202.868 467.811 204.084 468.357 203.539 469.574 202.322 469.028ZM205.301 468.903 206.517 469.449 205.972 470.665 204.755 470.119ZM207.734 469.994 208.951 470.54 208.405 471.757 207.188 471.211ZM210.167 471.086 211.384 471.631 210.838 472.848 209.621 472.302ZM212.6 472.177 213.817 472.723 213.271 473.939 212.054 473.394ZM215.033 473.269 216.25 473.814 215.704 475.031 214.488 474.485ZM217.466 474.36 218.683 474.906 218.137 476.122 216.921 475.577ZM219.899 475.451 221.116 475.997 220.57 477.214 219.354 476.668ZM222.332 476.543 223.549 477.089 223.003 478.305 221.787 477.759ZM224.766 477.634 225.982 478.18 225.436 479.396 224.22 478.851ZM227.199 478.726 228.415 479.271 227.869 480.488 226.653 479.942ZM229.632 479.817 230.848 480.363 230.303 481.579 229.086 481.034ZM232.065 480.909 233.281 481.454 232.736 482.671 231.519 482.125ZM234.498 482 235.714 482.546 235.169 483.762 233.952 483.216ZM236.931 483.091 238.148 483.637 237.602 484.854 236.385 484.308ZM239.364 484.183 240.581 484.728 240.035 485.945 238.818 485.399ZM241.797 485.274 243.014 485.82 242.468 487.036 241.251 486.491ZM244.23 486.366 245.447 486.911 244.901 488.128 243.685 487.582ZM246.663 487.457 247.88 488.003 247.334 489.219 246.118 488.674ZM249.096 488.548 250.313 489.094 249.767 490.311 248.551 489.765ZM251.53 489.64 252.746 490.186 252.2 491.402 250.984 490.856ZM253.963 490.731 255.179 491.277 254.633 492.493 253.417 491.948ZM256.396 491.823 257.612 492.368 257.067 493.585 255.85 493.039ZM258.829 492.914 260.045 493.46 259.5 494.676 258.283 494.131ZM261.262 494.005 262.478 494.551 261.933 495.768 260.716 495.222ZM263.695 495.097 264.911 495.643 264.366 496.859 263.149 496.313ZM266.128 496.188 267.345 496.734 266.799 497.951 265.582 497.405ZM268.561 497.28 269.778 497.825 269.232 499.042 268.015 498.496ZM270.994 498.371 272.211 498.917 271.665 500.133 270.449 499.588ZM273.427 499.463 274.644 500.008 274.098 501.225 272.882 500.679ZM275.86 500.554 277.077 501.1 276.531 502.316 275.315 501.771ZM278.294 501.645 279.51 502.191 278.964 503.408 277.748 502.862ZM280.727 502.737 281.943 503.283 281.397 504.499 280.181 503.953ZM283.16 503.828 284.376 504.374 283.831 505.59 282.614 505.045ZM285.593 504.92 286.809 505.465 286.264 506.682 285.047 506.136ZM288.026 506.011 289.242 506.557 288.697 507.773 287.48 507.228ZM290.459 507.102 291.676 507.648 291.13 508.865 289.913 508.319ZM292.892 508.194 294.109 508.74 293.563 509.956 292.346 509.41ZM295.325 509.285 296.542 509.831 295.996 511.048 294.78 510.502ZM297.758 510.377 298.975 510.922 298.429 512.139 297.213 511.593ZM300.191 511.468 301.408 512.014 300.862 513.23 299.646 512.685ZM302.625 512.56 303.841 513.105 303.295 514.322 302.079 513.776ZM305.058 513.651 306.274 514.197 305.728 515.413 304.512 514.868ZM307.491 514.742 308.707 515.288 308.162 516.505 306.945 515.959ZM309.924 515.834 311.14 516.38 310.595 517.596 309.378 517.05ZM312.357 516.925 313.573 517.471 313.028 518.688 311.811 518.142ZM314.79 518.017 316.007 518.562 315.461 519.779 314.244 519.233ZM317.223 519.108 318.44 519.654 317.894 520.87 316.677 520.325ZM319.656 520.199 320.873 520.745 320.327 521.962 319.11 521.416ZM322.089 521.291 323.306 521.837 322.76 523.053 321.544 522.507ZM324.522 522.382 325.739 522.928 325.193 524.145 323.977 523.599ZM326.955 523.474 328.172 524.019 327.626 525.236 326.41 524.69ZM329.388 524.565 330.605 525.111 330.059 526.327 328.843 525.782ZM331.822 525.656 333.038 526.202 332.492 527.419 331.276 526.873ZM334.255 526.748 335.471 527.294 334.925 528.51 333.709 527.964ZM336.688 527.839 337.904 528.385 337.359 529.602 336.142 529.056ZM339.121 528.931 340.337 529.476 339.792 530.693 338.575 530.147ZM341.554 530.022 342.77 530.568 342.225 531.784 341.008 531.239ZM343.987 531.114 345.203 531.659 344.658 532.876 343.441 532.33ZM346.42 532.205 347.637 532.751 347.091 533.967 345.874 533.422ZM348.853 533.296 349.966 533.796 349.42 535.012 348.307 534.513ZM350.114 530.208 355.776 537.132 346.839 537.508Z"/><path d="M151.5 536.833 152.833 536.833 152.833 538.167 151.5 538.167ZM154.167 536.833 155.5 536.833 155.5 538.167 154.167 538.167ZM156.833 536.833 158.167 536.833 158.167 538.167 156.833 538.167ZM159.5 536.833 160.833 536.833 160.833 538.167 159.5 538.167ZM162.167 536.833 163.5 536.833 163.5 538.167 162.167 538.167ZM164.833 536.833 166.167 536.833 166.167 538.167 164.833 538.167ZM167.5 536.833 168.833 536.833 168.833 538.167 167.5 538.167ZM170.167 536.833 171.5 536.833 171.5 538.167 170.167 538.167ZM172.833 536.833 174.167 536.833 174.167 538.167 172.833 538.167ZM175.5 536.833 176.833 536.833 176.833 538.167 175.5 538.167ZM178.167 536.833 179.5 536.833 179.5 538.167 178.167 538.167ZM180.833 536.833 182.167 536.833 182.167 538.167 180.833 538.167ZM183.5 536.833 184.833 536.833 184.833 538.167 183.5 538.167ZM186.167 536.833 187.5 536.833 187.5 538.167 186.167 538.167ZM188.833 536.833 190.167 536.833 190.167 538.167 188.833 538.167ZM191.5 536.833 192.833 536.833 192.833 538.167 191.5 538.167ZM194.167 536.833 195.5 536.833 195.5 538.167 194.167 538.167ZM196.833 536.833 198.167 536.833 198.167 538.167 196.833 538.167ZM199.5 536.833 200.833 536.833 200.833 538.167 199.5 538.167ZM202.167 536.833 203.5 536.833 203.5 538.167 202.167 538.167ZM204.833 536.833 206.167 536.833 206.167 538.167 204.833 538.167ZM207.5 536.833 208.833 536.833 208.833 538.167 207.5 538.167ZM210.167 536.833 211.5 536.833 211.5 538.167 210.167 538.167ZM212.833 536.833 214.167 536.833 214.167 538.167 212.833 538.167ZM215.5 536.833 216.833 536.833 216.833 538.167 215.5 538.167ZM218.167 536.833 219.5 536.833 219.5 538.167 218.167 538.167ZM220.833 536.833 222.167 536.833 222.167 538.167 220.833 538.167ZM223.5 536.833 224.833 536.833 224.833 538.167 223.5 538.167ZM226.167 536.833 227.5 536.833 227.5 538.167 226.167 538.167ZM228.833 536.833 230.167 536.833 230.167 538.167 228.833 538.167ZM231.5 536.833 232.833 536.833 232.833 538.167 231.5 538.167ZM234.167 536.833 235.5 536.833 235.5 538.167 234.167 538.167ZM236.833 536.833 238.167 536.833 238.167 538.167 236.833 538.167ZM239.5 536.833 240.833 536.833 240.833 538.167 239.5 538.167ZM242.167 536.833 243.5 536.833 243.5 538.167 242.167 538.167ZM244.833 536.833 246.167 536.833 246.167 538.167 244.833 538.167ZM247.5 536.833 248.833 536.833 248.833 538.167 247.5 538.167ZM250.167 536.833 251.5 536.833 251.5 538.167 250.167 538.167ZM252.833 536.833 254.167 536.833 254.167 538.167 252.833 538.167ZM255.5 536.833 256.833 536.833 256.833 538.167 255.5 538.167ZM258.167 536.833 259.5 536.833 259.5 538.167 258.167 538.167ZM260.833 536.833 262.167 536.833 262.167 538.167 260.833 538.167ZM263.5 536.833 264.833 536.833 264.833 538.167 263.5 538.167ZM266.167 536.833 267.5 536.833 267.5 538.167 266.167 538.167ZM268.833 536.833 270.167 536.833 270.167 538.167 268.833 538.167ZM271.5 536.833 272.833 536.833 272.833 538.167 271.5 538.167ZM274.167 536.833 275.5 536.833 275.5 538.167 274.167 538.167ZM276.833 536.833 278.167 536.833 278.167 538.167 276.833 538.167ZM279.5 536.833 280.833 536.833 280.833 538.167 279.5 538.167ZM282.167 536.833 283.5 536.833 283.5 538.167 282.167 538.167ZM284.833 536.833 286.167 536.833 286.167 538.167 284.833 538.167ZM287.5 536.833 288.833 536.833 288.833 538.167 287.5 538.167ZM290.167 536.833 291.5 536.833 291.5 538.167 290.167 538.167ZM292.833 536.833 294.167 536.833 294.167 538.167 292.833 538.167ZM295.5 536.833 296.833 536.833 296.833 538.167 295.5 538.167ZM298.167 536.833 299.5 536.833 299.5 538.167 298.167 538.167ZM300.833 536.833 302.167 536.833 302.167 538.167 300.833 538.167ZM303.5 536.833 304.833 536.833 304.833 538.167 303.5 538.167ZM306.167 536.833 307.5 536.833 307.5 538.167 306.167 538.167ZM308.833 536.833 310.167 536.833 310.167 538.167 308.833 538.167ZM311.5 536.833 312.833 536.833 312.833 538.167 311.5 538.167ZM314.167 536.833 315.5 536.833 315.5 538.167 314.167 538.167ZM316.833 536.833 318.167 536.833 318.167 538.167 316.833 538.167ZM319.5 536.833 320.833 536.833 320.833 538.167 319.5 538.167ZM322.167 536.833 323.5 536.833 323.5 538.167 322.167 538.167ZM324.833 536.833 326.167 536.833 326.167 538.167 324.833 538.167ZM327.5 536.833 328.833 536.833 328.833 538.167 327.5 538.167ZM330.167 536.833 331.5 536.833 331.5 538.167 330.167 538.167ZM332.833 536.833 334.167 536.833 334.167 538.167 332.833 538.167ZM335.5 536.833 336.833 536.833 336.833 538.167 335.5 538.167ZM338.167 536.833 339.5 536.833 339.5 538.167 338.167 538.167ZM340.833 536.833 342.167 536.833 342.167 538.167 340.833 538.167ZM343.5 536.833 344.833 536.833 344.833 538.167 343.5 538.167ZM346.167 536.833 347.5 536.833 347.5 538.167 346.167 538.167ZM348.833 536.833 349.109 536.833 349.109 538.167 348.833 538.167ZM347.776 533.5 355.776 537.5 347.776 541.5Z"/><path d="M0.446654-0.494919 1.43649 0.398388 0.543184 1.38823-0.446654 0.494919ZM2.42633 1.2917 3.41617 2.185 2.52286 3.17484 1.53302 2.28153ZM4.40601 3.07831 5.39584 3.97162 4.50254 4.96146 3.5127 4.06815ZM6.38568 4.86492 7.37552 5.75823 6.48221 6.74807 5.49238 5.85476ZM8.36536 6.65154 9.3552 7.54484 8.46189 8.53468 7.47205 7.64138ZM10.345 8.43815 11.3349 9.33146 10.4416 10.3213 9.45173 9.42799ZM12.3247 10.2248 13.3146 11.1181 12.4212 12.1079 11.4314 11.2146ZM14.3044 12.0114 15.2942 12.9047 14.4009 13.8945 13.4111 13.0012ZM16.2841 13.798 17.2739 14.6913 16.3806 15.6811 15.3908 14.7878ZM18.2637 15.5846 19.2536 16.4779 18.3603 17.4678 17.3704 16.5744ZM20.2434 17.3712 21.2333 18.2645 20.3399 19.2544 19.3501 18.3611ZM22.2231 19.1578 23.2129 20.0511 22.3196 21.041 21.3298 20.1477ZM24.2028 20.9445 25.1926 21.8378 24.2993 22.8276 23.3095 21.9343ZM26.1824 22.7311 27.1723 23.6244 26.279 24.6142 25.2891 23.7209ZM28.1621 24.5177 29.152 25.411 28.2586 26.4008 27.2688 25.5075ZM30.1418 26.3043 31.1316 27.1976 30.2383 28.1874 29.2485 27.2941ZM32.1215 28.0909 33.1113 28.9842 32.218 29.9741 31.2282 29.0807ZM34.1012 29.8775 35.091 30.7708 34.1977 31.7607 33.2078 30.8674ZM36.0808 31.6641 37.0707 32.5574 36.1774 33.5473 35.1875 32.654ZM38.0605 33.4508 39.0503 34.3441 38.157 35.3339 37.1672 34.4406ZM40.0402 35.2374 41.03 36.1307 40.1367 37.1205 39.1469 36.2272ZM42.0199 37.024 43.0097 37.9173 42.1164 38.9071 41.1266 38.0138ZM43.9995 38.8106 44.9894 39.7039 44.0961 40.6937 43.1062 39.8004ZM45.9792 40.5972 46.9691 41.4905 46.0758 42.4804 45.0859 41.587ZM47.9589 42.3838 48.9487 43.2771 48.0554 44.267 47.0656 43.3737ZM49.9386 44.1704 50.9284 45.0637 50.0351 46.0536 49.0453 45.1603ZM51.9183 45.9571 52.9081 46.8504 52.0148 47.8402 51.0249 46.9469ZM53.8979 47.7437 54.8878 48.637 53.9945 49.6268 53.0046 48.7335ZM55.8776 49.5303 56.8674 50.4236 55.9741 51.4134 54.9843 50.5201ZM57.8573 51.3169 58.8471 52.2102 57.9538 53.2 56.964 52.3067ZM59.837 53.1035 60.8268 53.9968 59.9335 54.9867 58.9436 54.0933ZM61.8166 54.8901 62.8065 55.7834 61.9132 56.7733 60.9233 55.88ZM63.7963 56.6767 64.7861 57.57 63.8928 58.5599 62.903 57.6666ZM65.776 58.4634 66.7658 59.3567 65.8725 60.3465 64.8827 59.4532ZM67.7556 60.25 68.7455 61.1433 67.8522 62.1331 66.8623 61.2398ZM69.7353 62.0366 70.7252 62.9299 69.8318 63.9197 68.842 63.0264ZM71.715 63.8232 72.7048 64.7165 71.8115 65.7063 70.8217 64.813ZM73.6947 65.6098 74.6845 66.5031 73.7912 67.493 72.8013 66.5996ZM75.6743 67.3964 76.6642 68.2897 75.7709 69.2796 74.781 68.3863ZM77.654 69.183 78.6438 70.0763 77.7505 71.0662 76.7607 70.1729ZM79.6337 70.9697 80.6235 71.863 79.7302 72.8528 78.7404 71.9595ZM81.6133 72.7563 82.6032 73.6496 81.7099 74.6394 80.72 73.7461ZM83.593 74.5429 84.5829 75.4362 83.6895 76.426 82.6997 75.5327ZM85.5727 76.3295 86.5625 77.2228 85.6692 78.2126 84.6794 77.3193ZM87.5524 78.1161 88.5422 79.0094 87.6489 79.9993 86.659 79.1059ZM89.532 79.9027 90.5219 80.796 89.6286 81.7859 88.6387 80.8926ZM91.5117 81.6893 92.5015 82.5826 91.6082 83.5725 90.6184 82.6792ZM93.4914 83.476 94.4812 84.3693 93.5879 85.3591 92.5981 84.4658ZM95.471 85.2626 96.4609 86.1559 95.5676 87.1457 94.5777 86.2524ZM97.4507 87.0492 98.4406 87.9425 97.5472 88.9323 96.5574 88.039ZM99.4304 88.8358 100.42 89.7291 99.5269 90.7189 98.5371 89.8256ZM101.41 90.6224 102.4 91.5157 101.507 92.5056 100.517 91.6123ZM103.39 92.409 104.38 93.3023 103.486 94.2922 102.496 93.3989ZM105.369 94.1956 106.359 95.0889 105.466 96.0788 104.476 95.1855ZM107.349 95.9822 108.339 96.8756 107.446 97.8654 106.456 96.9721ZM109.329 97.7689 110.319 98.6622 109.425 99.652 108.435 98.7587ZM111.308 99.5555 112.298 100.449 111.405 101.439 110.415 100.545ZM113.288 101.342 114.278 102.235 113.385 103.225 112.395 102.332ZM115.268 103.129 116.258 104.022 115.364 105.012 114.374 104.119ZM117.247 104.915 118.237 105.809 117.344 106.798 116.354 105.905ZM119.227 106.702 120.217 107.595 119.324 108.585 118.334 107.692ZM121.207 108.489 122.197 109.382 121.303 110.372 120.314 109.478ZM123.187 110.275 124.176 111.168 123.283 112.158 122.293 111.265ZM125.166 112.062 126.156 112.955 125.263 113.945 124.273 113.052ZM127.146 113.848 128.136 114.742 127.242 115.732 126.253 114.838ZM129.126 115.635 130.115 116.528 129.222 117.518 128.232 116.625ZM131.105 117.422 132.095 118.315 131.202 119.305 130.212 118.411ZM133.085 119.208 134.075 120.102 133.182 121.091 132.192 120.198ZM135.065 120.995 136.055 121.888 135.161 122.878 134.171 121.985ZM137.044 122.781 138.034 123.675 137.141 124.665 136.151 123.771ZM139.024 124.568 140.014 125.461 139.121 126.451 138.131 125.558ZM141.004 126.355 141.994 127.248 141.1 128.238 140.11 127.345ZM142.983 128.141 143.973 129.035 143.08 130.024 142.09 129.131ZM144.963 129.928 145.953 130.821 145.06 131.811 144.07 130.918ZM146.943 131.715 147.933 132.608 147.039 133.598 146.049 132.704ZM148.922 133.501 149.912 134.394 149.019 135.384 148.029 134.491ZM150.902 135.288 151.892 136.181 150.999 137.171 150.009 136.278ZM152.882 137.074 153.872 137.968 152.978 138.958 151.989 138.064ZM154.862 138.861 155.851 139.754 154.958 140.744 153.968 139.851ZM156.841 140.648 157.831 141.541 156.938 142.531 155.948 141.637ZM158.821 142.434 159.811 143.328 158.917 144.317 157.928 143.424ZM160.801 144.221 161.79 145.114 160.897 146.104 159.907 145.211ZM162.78 146.007 163.77 146.901 162.877 147.891 161.887 146.997ZM164.76 147.794 165.75 148.687 164.856 149.677 163.867 148.784ZM166.74 149.581 167.729 150.474 166.836 151.464 165.846 150.571ZM168.719 151.367 169.709 152.261 168.816 153.25 167.826 152.357ZM170.699 153.154 171.689 154.047 170.795 155.037 169.806 154.144ZM172.679 154.941 173.668 155.834 172.775 156.824 171.785 155.93ZM174.658 156.727 175.648 157.62 174.755 158.61 173.765 157.717ZM176.638 158.514 177.628 159.407 176.734 160.397 175.745 159.504ZM178.618 160.3 179.607 161.194 178.714 162.184 177.724 161.29ZM180.597 162.087 181.587 162.98 180.694 163.97 179.704 163.077ZM182.577 163.874 183.567 164.767 182.673 165.757 181.684 164.863ZM184.557 165.66 185.546 166.554 184.653 167.543 183.663 166.65ZM186.536 167.447 187.526 168.34 186.633 169.33 185.643 168.437ZM188.516 169.233 189.506 170.127 188.612 171.117 187.623 170.223ZM190.496 171.02 191.485 171.913 190.592 172.903 189.602 172.01ZM192.475 172.807 193.465 173.7 192.572 174.69 191.582 173.797ZM194.455 174.593 195.445 175.487 194.551 176.476 193.562 175.583ZM196.435 176.38 197.424 177.273 196.531 178.263 195.541 177.37ZM198.414 178.167 199.404 179.06 198.511 180.05 197.521 179.156ZM201.017 176.025 204.276 184.355 195.657 181.964Z" transform="matrix(1 0 0 -1 151.5 721.855)"/><path d="M151.947 537.005 159.865 544.152 158.972 545.141 151.053 537.995ZM162.835 546.832 170.754 553.978 169.86 554.968 161.942 547.821ZM173.723 556.658 181.642 563.804 180.749 564.794 172.83 557.648ZM184.611 566.484 192.53 573.631 191.637 574.621 183.718 567.474ZM195.5 576.311 203.418 583.457 202.525 584.447 194.606 577.301ZM206.388 586.137 214.306 593.284 213.413 594.273 205.494 587.127ZM217.276 595.964 225.195 603.11 224.301 604.1 216.383 596.953ZM228.164 605.79 236.083 612.936 235.19 613.926 227.271 606.78ZM239.052 615.616 246.971 622.763 246.078 623.753 238.159 616.606ZM249.941 625.443 257.859 632.589 256.966 633.579 249.047 626.432ZM260.829 635.269 268.748 642.416 267.854 643.405 259.936 636.259ZM271.717 645.095 279.636 652.242 278.742 653.232 270.824 646.085ZM282.605 654.922 290.524 662.068 289.631 663.058 281.712 655.912ZM293.493 664.748 301.412 671.895 300.519 672.885 292.6 665.738ZM304.382 674.575 312.3 681.721 311.407 682.711 303.488 675.564ZM315.27 684.401 323.189 691.547 322.295 692.537 314.377 685.391ZM326.158 694.227 334.077 701.374 333.184 702.364 325.265 695.217ZM337.046 704.054 344.965 711.2 344.072 712.19 336.153 705.044ZM347.935 713.88 351.273 716.893 350.38 717.883 347.041 714.87ZM352.517 713.525 355.776 721.855 347.157 719.464Z" fill="#4472C4"/><path d="M151.5 720.833 162.167 720.833 162.167 722.167 151.5 722.167ZM166.167 720.833 176.833 720.833 176.833 722.167 166.167 722.167ZM180.833 720.833 191.5 720.833 191.5 722.167 180.833 722.167ZM195.5 720.833 206.167 720.833 206.167 722.167 195.5 722.167ZM210.167 720.833 220.833 720.833 220.833 722.167 210.167 722.167ZM224.833 720.833 235.5 720.833 235.5 722.167 224.833 722.167ZM239.5 720.833 250.167 720.833 250.167 722.167 239.5 722.167ZM254.167 720.833 264.833 720.833 264.833 722.167 254.167 722.167ZM268.833 720.833 279.5 720.833 279.5 722.167 268.833 722.167ZM283.5 720.833 294.167 720.833 294.167 722.167 283.5 722.167ZM298.167 720.833 308.833 720.833 308.833 722.167 298.167 722.167ZM312.833 720.833 323.5 720.833 323.5 722.167 312.833 722.167ZM327.5 720.833 338.167 720.833 338.167 722.167 327.5 722.167ZM342.167 720.833 349.109 720.833 349.109 722.167 342.167 722.167ZM347.776 717.5 355.776 721.5 347.776 725.5Z" fill="#4472C4"/><path d="M492.998 720.559 498.332 720.559 498.332 721.892 492.998 721.892ZM502.332 720.559 507.665 720.559 507.665 721.892 502.332 721.892ZM511.665 720.559 516.998 720.559 516.998 721.892 511.665 721.892ZM520.998 720.559 521.885 720.559 521.218 721.225 521.218 716.778 522.551 716.778 522.551 721.892 520.998 721.892ZM521.218 712.778 521.218 707.445 522.551 707.445 522.551 712.778ZM521.218 703.445 521.218 698.112 522.551 698.112 522.551 703.445ZM521.218 694.112 521.218 688.778 522.551 688.778 522.551 694.112ZM521.218 684.778 521.218 679.445 522.551 679.445 522.551 684.778ZM521.218 675.445 521.218 670.112 522.551 670.112 522.551 675.445ZM521.218 666.112 521.218 660.778 522.551 660.778 522.551 666.112ZM521.218 656.778 521.218 651.445 522.551 651.445 522.551 656.778ZM521.218 647.445 521.218 642.112 522.551 642.112 522.551 647.445ZM521.218 638.112 521.218 632.778 522.551 632.778 522.551 638.112ZM521.218 628.778 521.218 623.445 522.551 623.445 522.551 628.778ZM521.218 619.445 521.218 614.112 522.551 614.112 522.551 619.445ZM521.218 610.112 521.218 604.778 522.551 604.778 522.551 610.112ZM521.218 600.778 521.218 595.445 522.551 595.445 522.551 600.778ZM521.218 591.445 521.218 586.112 522.551 586.112 522.551 591.445ZM521.218 582.112 521.218 576.778 522.551 576.778 522.551 582.112ZM521.218 572.778 521.218 567.445 522.551 567.445 522.551 572.778ZM521.218 563.445 521.218 558.112 522.551 558.112 522.551 563.445ZM521.218 554.112 521.218 548.778 522.551 548.778 522.551 554.112ZM521.218 544.778 521.218 539.445 522.551 539.445 522.551 544.778ZM521.218 535.445 521.218 530.112 522.551 530.112 522.551 535.445ZM521.218 526.112 521.218 520.778 522.551 520.778 522.551 526.112ZM521.218 516.778 521.218 511.445 522.551 511.445 522.551 516.778ZM521.218 507.445 521.218 502.112 522.551 502.112 522.551 507.445ZM521.218 498.112 521.218 492.778 522.551 492.778 522.551 498.112ZM521.218 488.778 521.218 483.445 522.551 483.445 522.551 488.778ZM521.218 479.445 521.218 474.112 522.551 474.112 522.551 479.445ZM521.218 470.112 521.218 464.778 522.551 464.778 522.551 470.112ZM521.218 460.778 521.218 455.445 522.551 455.445 522.551 460.778ZM521.218 451.445 521.218 446.112 522.551 446.112 522.551 451.445ZM521.218 442.112 521.218 436.778 522.551 436.778 522.551 442.112ZM521.218 432.778 521.218 427.445 522.551 427.445 522.551 432.778ZM521.218 423.445 521.218 418.112 522.551 418.112 522.551 423.445ZM521.218 414.112 521.218 408.778 522.551 408.778 522.551 414.112ZM521.218 404.778 521.218 399.445 522.551 399.445 522.551 404.778ZM521.218 395.445 521.218 390.975 521.885 391.642 521.021 391.642 521.021 390.308 522.551 390.308 522.551 395.445ZM517.021 391.642 511.688 391.642 511.688 390.308 517.021 390.308ZM507.688 391.642 502.354 391.642 502.354 390.308 507.688 390.308ZM498.354 391.642 493.021 391.642 493.021 390.308 498.354 390.308ZM489.021 391.642 483.688 391.642 483.688 390.308 489.021 390.308ZM479.688 391.642 474.354 391.642 474.354 390.308 479.688 390.308ZM470.354 391.642 465.021 391.642 465.021 390.308 470.354 390.308ZM461.021 391.642 455.688 391.642 455.688 390.308 461.021 390.308ZM451.688 391.642 446.354 391.642 446.354 390.308 451.688 390.308ZM442.354 391.642 437.021 391.642 437.021 390.308 442.354 390.308ZM433.021 391.642 427.688 391.642 427.688 390.308 433.021 390.308ZM423.688 391.642 418.354 391.642 418.354 390.308 423.688 390.308ZM414.354 391.642 409.021 391.642 409.021 390.308 414.354 390.308ZM405.021 391.642 399.688 391.642 399.688 390.308 405.021 390.308ZM395.688 391.642 390.354 391.642 390.354 390.308 395.688 390.308ZM386.354 391.642 381.021 391.642 381.021 390.308 386.354 390.308ZM377.021 391.642 371.688 391.642 371.688 390.308 377.021 390.308ZM367.688 391.642 362.354 391.642 362.354 390.308 367.688 390.308ZM358.354 391.642 353.021 391.642 353.021 390.308 358.354 390.308ZM349.021 391.642 343.688 391.642 343.688 390.308 349.021 390.308ZM339.688 391.642 334.354 391.642 334.354 390.308 339.688 390.308ZM330.354 391.642 325.021 391.642 325.021 390.308 330.354 390.308ZM321.021 391.642 315.688 391.642 315.688 390.308 321.021 390.308ZM311.688 391.642 306.354 391.642 306.354 390.308 311.688 390.308ZM302.354 391.642 297.021 391.642 297.021 390.308 302.354 390.308ZM293.021 391.642 287.688 391.642 287.688 390.308 293.021 390.308ZM283.688 391.642 278.354 391.642 278.354 390.308 283.688 390.308ZM274.354 391.642 269.021 391.642 269.021 390.308 274.354 390.308ZM265.021 391.642 259.688 391.642 259.688 390.308 265.021 390.308ZM255.688 391.642 250.354 391.642 250.354 390.308 255.688 390.308ZM246.354 391.642 241.021 391.642 241.021 390.308 246.354 390.308ZM237.021 391.642 231.688 391.642 231.688 390.308 237.021 390.308ZM227.688 391.642 222.354 391.642 222.354 390.308 227.688 390.308ZM218.354 391.642 213.021 391.642 213.021 390.308 218.354 390.308ZM209.021 391.642 203.688 391.642 203.688 390.308 209.021 390.308ZM199.688 391.642 194.354 391.642 194.354 390.308 199.688 390.308ZM190.354 391.642 185.021 391.642 185.021 390.308 190.354 390.308ZM181.021 391.642 175.688 391.642 175.688 390.308 181.021 390.308ZM171.688 391.642 166.354 391.642 166.354 390.308 171.688 390.308ZM162.354 391.642 157.021 391.642 157.021 390.308 162.354 390.308ZM153.021 391.642 147.688 391.642 147.688 390.308 153.021 390.308ZM143.688 391.642 138.354 391.642 138.354 390.308 143.688 390.308ZM134.354 391.642 129.021 391.642 129.021 390.308 134.354 390.308ZM125.021 391.642 119.688 391.642 119.688 390.308 125.021 390.308ZM115.688 391.642 110.354 391.642 110.354 390.308 115.688 390.308ZM106.354 391.642 101.021 391.642 101.021 390.308 106.354 390.308ZM97.0211 391.642 91.6878 391.642 91.6878 390.308 97.0211 390.308ZM87.6878 391.642 83.5001 391.642 84.1667 390.975 84.1667 392.12 82.8334 392.12 82.8334 390.308 87.6878 390.308ZM84.1667 396.12 84.1667 401.454 82.8334 401.454 82.8334 396.12ZM84.1667 405.454 84.1667 408.833 82.8334 408.833 82.8334 405.454ZM87.5001 407.5 83.5001 415.5 79.5001 407.5Z" fill="#5B9BD5"/><text font-family="Calibri,Calibri_MSFontService,sans-serif" font-weight="400" font-size="24" transform="translate(215.874 426)">UserCF</text><path d="M559.5 425.5C559.5 419.977 563.977 415.5 569.5 415.5L686.5 415.5C692.023 415.5 696.5 419.977 696.5 425.5L696.5 465.5C696.5 471.023 692.023 475.5 686.5 475.5L569.5 475.5C563.977 475.5 559.5 471.023 559.5 465.5Z" stroke="#4472C4" stroke-width="1.33333" stroke-miterlimit="8" fill="#FFF2CC" fill-rule="evenodd"/><text font-family="Calibri,Calibri_MSFontService,sans-serif" font-weight="400" font-size="24" transform="translate(604.66 453)">Usr1</text><path d="M559.5 517.5C559.5 511.977 563.977 507.5 569.5 507.5L686.5 507.5C692.023 507.5 696.5 511.977 696.5 517.5L696.5 557.5C696.5 563.023 692.023 567.5 686.5 567.5L569.5 567.5C563.977 567.5 559.5 563.023 559.5 557.5Z" stroke="#4472C4" stroke-width="1.33333" stroke-miterlimit="8" fill="#FFFFFF" fill-rule="evenodd"/><text font-family="Calibri,Calibri_MSFontService,sans-serif" font-weight="400" font-size="24" transform="translate(604.66 544)">Usr2</text><path d="M559.5 609.5C559.5 603.977 563.977 599.5 569.5 599.5L686.5 599.5C692.023 599.5 696.5 603.977 696.5 609.5L696.5 649.5C696.5 655.023 692.023 659.5 686.5 659.5L569.5 659.5C563.977 659.5 559.5 655.023 559.5 649.5Z" stroke="#4472C4" stroke-width="1.33333" stroke-miterlimit="8" fill="#FFFFFF" fill-rule="evenodd"/><text font-family="Calibri,Calibri_MSFontService,sans-serif" font-weight="400" font-size="24" transform="translate(604.66 637)">Usr3</text><path d="M559.5 701.5C559.5 695.977 563.977 691.5 569.5 691.5L686.5 691.5C692.023 691.5 696.5 695.977 696.5 701.5L696.5 741.5C696.5 747.023 692.023 751.5 686.5 751.5L569.5 751.5C563.977 751.5 559.5 747.023 559.5 741.5Z" stroke="#4472C4" stroke-width="1.33333" stroke-miterlimit="8" fill="#FFFFFF" fill-rule="evenodd"/><text font-family="Calibri,Calibri_MSFontService,sans-serif" font-weight="400" font-size="24" transform="translate(604.66 729)">Usr4</text><path d="M900.5 425.5C900.5 419.977 904.977 415.5 910.5 415.5L1027.5 415.5C1033.02 415.5 1037.5 419.977 1037.5 425.5L1037.5 465.5C1037.5 471.023 1033.02 475.5 1027.5 475.5L910.5 475.5C904.977 475.5 900.5 471.023 900.5 465.5Z" stroke="#4472C4" stroke-width="1.33333" stroke-miterlimit="8" fill="#FFFFFF" fill-rule="evenodd"/><text font-family="Calibri,Calibri_MSFontService,sans-serif" font-weight="400" font-size="24" transform="translate(939.731 453)">Ietm1</text><path d="M900.5 517.5C900.5 511.977 904.977 507.5 910.5 507.5L1027.5 507.5C1033.02 507.5 1037.5 511.977 1037.5 517.5L1037.5 557.5C1037.5 563.023 1033.02 567.5 1027.5 567.5L910.5 567.5C904.977 567.5 900.5 563.023 900.5 557.5Z" stroke="#4472C4" stroke-width="1.33333" stroke-miterlimit="8" fill="#DAE3F3" fill-rule="evenodd"/><text font-family="Calibri,Calibri_MSFontService,sans-serif" font-weight="400" font-size="24" transform="translate(939.797 544)">Item2</text><path d="M900.5 609.5C900.5 603.977 904.977 599.5 910.5 599.5L1027.5 599.5C1033.02 599.5 1037.5 603.977 1037.5 609.5L1037.5 649.5C1037.5 655.023 1033.02 659.5 1027.5 659.5L910.5 659.5C904.977 659.5 900.5 655.023 900.5 649.5Z" stroke="#4472C4" stroke-width="1.33333" stroke-miterlimit="8" fill="#DAE3F3" fill-rule="evenodd"/><text font-family="Calibri,Calibri_MSFontService,sans-serif" font-weight="400" font-size="24" transform="translate(939.797 637)">Item3</text><path d="M900.5 701.5C900.5 695.977 904.977 691.5 910.5 691.5L1027.5 691.5C1033.02 691.5 1037.5 695.977 1037.5 701.5L1037.5 741.5C1037.5 747.023 1033.02 751.5 1027.5 751.5L910.5 751.5C904.977 751.5 900.5 747.023 900.5 741.5Z" stroke="#4472C4" stroke-width="1.33333" stroke-miterlimit="8" fill="#FFFFFF" fill-rule="evenodd"/><text font-family="Calibri,Calibri_MSFontService,sans-serif" font-weight="400" font-size="24" transform="translate(939.797 729)">Item4</text><path d="M696.773 444.892 894.966 533.795 894.42 535.012 696.227 446.108ZM895.114 530.208 900.776 537.132 891.839 537.508Z"/><path d="M696.5 720.833 700.5 720.833 700.5 722.167 696.5 722.167ZM701.833 720.833 705.833 720.833 705.833 722.167 701.833 722.167ZM707.167 720.833 711.167 720.833 711.167 722.167 707.167 722.167ZM712.5 720.833 716.5 720.833 716.5 722.167 712.5 722.167ZM717.833 720.833 721.833 720.833 721.833 722.167 717.833 722.167ZM723.167 720.833 727.167 720.833 727.167 722.167 723.167 722.167ZM728.5 720.833 732.5 720.833 732.5 722.167 728.5 722.167ZM733.833 720.833 737.833 720.833 737.833 722.167 733.833 722.167ZM739.167 720.833 743.167 720.833 743.167 722.167 739.167 722.167ZM744.5 720.833 748.5 720.833 748.5 722.167 744.5 722.167ZM749.833 720.833 753.833 720.833 753.833 722.167 749.833 722.167ZM755.167 720.833 759.167 720.833 759.167 722.167 755.167 722.167ZM760.5 720.833 764.5 720.833 764.5 722.167 760.5 722.167ZM765.833 720.833 769.833 720.833 769.833 722.167 765.833 722.167ZM771.167 720.833 775.167 720.833 775.167 722.167 771.167 722.167ZM776.5 720.833 780.5 720.833 780.5 722.167 776.5 722.167ZM781.833 720.833 785.833 720.833 785.833 722.167 781.833 722.167ZM787.167 720.833 791.167 720.833 791.167 722.167 787.167 722.167ZM792.5 720.833 796.5 720.833 796.5 722.167 792.5 722.167ZM797.833 720.833 801.833 720.833 801.833 722.167 797.833 722.167ZM803.167 720.833 807.167 720.833 807.167 722.167 803.167 722.167ZM808.5 720.833 812.5 720.833 812.5 722.167 808.5 722.167ZM813.833 720.833 817.833 720.833 817.833 722.167 813.833 722.167ZM819.167 720.833 823.167 720.833 823.167 722.167 819.167 722.167ZM824.5 720.833 828.5 720.833 828.5 722.167 824.5 722.167ZM829.833 720.833 833.833 720.833 833.833 722.167 829.833 722.167ZM835.167 720.833 839.167 720.833 839.167 722.167 835.167 722.167ZM840.5 720.833 844.5 720.833 844.5 722.167 840.5 722.167ZM845.833 720.833 849.833 720.833 849.833 722.167 845.833 722.167ZM851.167 720.833 855.167 720.833 855.167 722.167 851.167 722.167ZM856.5 720.833 860.5 720.833 860.5 722.167 856.5 722.167ZM861.833 720.833 865.833 720.833 865.833 722.167 861.833 722.167ZM867.167 720.833 871.167 720.833 871.167 722.167 867.167 722.167ZM872.5 720.833 876.5 720.833 876.5 722.167 872.5 722.167ZM877.833 720.833 881.833 720.833 881.833 722.167 877.833 722.167ZM883.167 720.833 887.167 720.833 887.167 722.167 883.167 722.167ZM888.5 720.833 892.5 720.833 892.5 722.167 888.5 722.167ZM893.833 720.833 894.109 720.833 894.109 722.167 893.833 722.167ZM892.776 717.5 900.776 721.5 892.776 725.5Z" fill="#ED7D31"/><path d="M696.5 536.833 700.5 536.833 700.5 538.167 696.5 538.167ZM701.833 536.833 705.833 536.833 705.833 538.167 701.833 538.167ZM707.167 536.833 711.167 536.833 711.167 538.167 707.167 538.167ZM712.5 536.833 716.5 536.833 716.5 538.167 712.5 538.167ZM717.833 536.833 721.833 536.833 721.833 538.167 717.833 538.167ZM723.167 536.833 727.167 536.833 727.167 538.167 723.167 538.167ZM728.5 536.833 732.5 536.833 732.5 538.167 728.5 538.167ZM733.833 536.833 737.833 536.833 737.833 538.167 733.833 538.167ZM739.167 536.833 743.167 536.833 743.167 538.167 739.167 538.167ZM744.5 536.833 748.5 536.833 748.5 538.167 744.5 538.167ZM749.833 536.833 753.833 536.833 753.833 538.167 749.833 538.167ZM755.167 536.833 759.167 536.833 759.167 538.167 755.167 538.167ZM760.5 536.833 764.5 536.833 764.5 538.167 760.5 538.167ZM765.833 536.833 769.833 536.833 769.833 538.167 765.833 538.167ZM771.167 536.833 775.167 536.833 775.167 538.167 771.167 538.167ZM776.5 536.833 780.5 536.833 780.5 538.167 776.5 538.167ZM781.833 536.833 785.833 536.833 785.833 538.167 781.833 538.167ZM787.167 536.833 791.167 536.833 791.167 538.167 787.167 538.167ZM792.5 536.833 796.5 536.833 796.5 538.167 792.5 538.167ZM797.833 536.833 801.833 536.833 801.833 538.167 797.833 538.167ZM803.167 536.833 807.167 536.833 807.167 538.167 803.167 538.167ZM808.5 536.833 812.5 536.833 812.5 538.167 808.5 538.167ZM813.833 536.833 817.833 536.833 817.833 538.167 813.833 538.167ZM819.167 536.833 823.167 536.833 823.167 538.167 819.167 538.167ZM824.5 536.833 828.5 536.833 828.5 538.167 824.5 538.167ZM829.833 536.833 833.833 536.833 833.833 538.167 829.833 538.167ZM835.167 536.833 839.167 536.833 839.167 538.167 835.167 538.167ZM840.5 536.833 844.5 536.833 844.5 538.167 840.5 538.167ZM845.833 536.833 849.833 536.833 849.833 538.167 845.833 538.167ZM851.167 536.833 855.167 536.833 855.167 538.167 851.167 538.167ZM856.5 536.833 860.5 536.833 860.5 538.167 856.5 538.167ZM861.833 536.833 865.833 536.833 865.833 538.167 861.833 538.167ZM867.167 536.833 871.167 536.833 871.167 538.167 867.167 538.167ZM872.5 536.833 876.5 536.833 876.5 538.167 872.5 538.167ZM877.833 536.833 881.833 536.833 881.833 538.167 877.833 538.167ZM883.167 536.833 887.167 536.833 887.167 538.167 883.167 538.167ZM888.5 536.833 892.5 536.833 892.5 538.167 888.5 538.167ZM893.833 536.833 894.109 536.833 894.109 538.167 893.833 538.167ZM892.776 533.5 900.776 537.5 892.776 541.5Z" fill="#ED7D31"/><path d="M0.446654-0.494919 3.41617 2.185 2.52286 3.17484-0.446654 0.494919ZM4.40601 3.07831 7.37552 5.75823 6.48221 6.74807 3.5127 4.06815ZM8.36536 6.65154 11.3349 9.33146 10.4416 10.3213 7.47205 7.64138ZM12.3247 10.2248 15.2942 12.9047 14.4009 13.8945 11.4314 11.2146ZM16.2841 13.798 19.2536 16.4779 18.3603 17.4678 15.3908 14.7878ZM20.2434 17.3712 23.2129 20.0512 22.3196 21.041 19.3501 18.3611ZM24.2028 20.9445 27.1723 23.6244 26.279 24.6142 23.3095 21.9343ZM28.1621 24.5177 31.1316 27.1976 30.2383 28.1875 27.2688 25.5075ZM32.1215 28.0909 35.091 30.7708 34.1977 31.7607 31.2282 29.0808ZM36.0808 31.6641 39.0503 34.3441 38.157 35.3339 35.1875 32.654ZM40.0402 35.2374 43.0097 37.9173 42.1164 38.9071 39.1469 36.2272ZM43.9995 38.8106 46.969 41.4905 46.0757 42.4804 43.1062 39.8004ZM47.9589 42.3838 50.9284 45.0638 50.0351 46.0536 47.0656 43.3737ZM51.9182 45.9571 54.8878 48.637 53.9944 49.6268 51.0249 46.9469ZM55.8776 49.5303 58.8471 52.2102 57.9538 53.2001 54.9843 50.5201ZM59.8369 53.1035 62.8065 55.7834 61.9131 56.7733 58.9436 54.0934ZM63.7963 56.6768 66.7658 59.3567 65.8725 60.3465 62.903 57.6666ZM67.7556 60.25 70.7252 62.9299 69.8318 63.9197 66.8623 61.2398ZM71.715 63.8232 74.6845 66.5031 73.7912 67.493 70.8217 64.813ZM75.6743 67.3964 78.6439 70.0764 77.7505 71.0662 74.781 68.3863ZM79.6337 70.9697 82.6032 73.6496 81.7099 74.6394 78.7404 71.9595ZM83.593 74.5429 86.5626 77.2228 85.6693 78.2127 82.6997 75.5327ZM87.5524 78.1161 90.5219 80.796 89.6286 81.7859 86.6591 79.106ZM91.5117 81.6893 94.4813 84.3693 93.588 85.3591 90.6184 82.6792ZM95.4711 85.2626 98.4406 87.9425 97.5473 88.9323 94.5778 86.2524ZM99.4304 88.8358 102.4 91.5157 101.507 92.5056 98.5371 89.8256ZM103.39 92.409 106.359 95.089 105.466 96.0788 102.496 93.3989ZM107.349 95.9823 110.319 98.6622 109.425 99.652 106.456 96.9721ZM111.309 99.5555 114.278 102.235 113.385 103.225 110.415 100.545ZM115.268 103.129 118.237 105.809 117.344 106.798 114.375 104.119ZM119.227 106.702 122.197 109.382 121.303 110.372 118.334 107.692ZM123.187 110.275 126.156 112.955 125.263 113.945 122.293 111.265ZM127.146 113.848 130.115 116.528 129.222 117.518 126.253 114.838ZM131.105 117.422 134.075 120.102 133.181 121.091 130.212 118.411ZM135.065 120.995 138.034 123.675 137.141 124.665 134.171 121.985ZM139.024 124.568 141.994 127.248 141.1 128.238 138.131 125.558ZM142.983 128.141 145.953 130.821 145.06 131.811 142.09 129.131ZM146.943 131.715 149.912 134.394 149.019 135.384 146.049 132.704ZM150.902 135.288 153.872 137.968 152.978 138.958 150.009 136.278ZM154.861 138.861 157.831 141.541 156.938 142.531 153.968 139.851ZM158.821 142.434 161.79 145.114 160.897 146.104 157.927 143.424ZM162.78 146.007 165.75 148.687 164.856 149.677 161.887 146.997ZM166.74 149.581 169.709 152.261 168.816 153.25 165.846 150.571ZM170.699 153.154 173.668 155.834 172.775 156.824 169.806 154.144ZM174.658 156.727 177.628 159.407 176.734 160.397 173.765 157.717ZM178.618 160.3 181.587 162.98 180.694 163.97 177.724 161.29ZM182.577 163.874 185.546 166.554 184.653 167.543 181.684 164.863ZM186.536 167.447 189.506 170.127 188.612 171.117 185.643 168.437ZM190.496 171.02 193.465 173.7 192.572 174.69 189.602 172.01ZM194.455 174.593 197.424 177.273 196.531 178.263 193.562 175.583ZM198.414 178.167 199.772 179.392 198.879 180.382 197.521 179.156ZM201.017 176.025 204.276 184.355 195.657 181.964Z" fill="#ED7D31" transform="matrix(1 0 0 -1 696.5 721.855)"/><path d="M696.774 536.892 700.42 538.538 699.872 539.753 696.226 538.108ZM701.636 539.086 705.282 540.731 704.733 541.947 701.087 540.301ZM706.497 541.28 710.143 542.925 709.594 544.14 705.948 542.495ZM711.358 543.473 715.004 545.118 714.456 546.334 710.81 544.689ZM716.22 545.667 719.866 547.312 719.317 548.527 715.671 546.882ZM721.081 547.861 724.727 549.506 724.178 550.721 720.532 549.076ZM725.942 550.054 729.588 551.699 729.04 552.915 725.394 551.269ZM730.804 552.248 734.45 553.893 733.901 555.108 730.255 553.463ZM735.665 554.441 739.311 556.087 738.762 557.302 735.116 555.657ZM740.526 556.635 744.172 558.28 743.624 559.496 739.978 557.85ZM745.388 558.829 749.034 560.474 748.485 561.689 744.839 560.044ZM750.249 561.022 753.895 562.667 753.346 563.883 749.7 562.238ZM755.11 563.216 758.756 564.861 758.208 566.076 754.562 564.431ZM759.971 565.409 763.617 567.055 763.069 568.27 759.423 566.625ZM764.833 567.603 768.479 569.248 767.93 570.464 764.284 568.818ZM769.694 569.797 773.34 571.442 772.792 572.657 769.146 571.012ZM774.555 571.99 778.201 573.636 777.653 574.851 774.007 573.206ZM779.417 574.184 783.063 575.829 782.514 577.044 778.868 575.399ZM784.278 576.378 787.924 578.023 787.376 579.238 783.73 577.593ZM789.139 578.571 792.785 580.216 792.237 581.432 788.591 579.787ZM794.001 580.765 797.647 582.41 797.098 583.625 793.452 581.98ZM798.862 582.958 802.508 584.604 801.96 585.819 798.314 584.174ZM803.723 585.152 807.369 586.797 806.821 588.013 803.175 586.367ZM808.585 587.346 812.231 588.991 811.682 590.206 808.036 588.561ZM813.446 589.539 817.092 591.185 816.544 592.4 812.898 590.755ZM818.307 591.733 821.953 593.378 821.405 594.594 817.759 592.948ZM823.169 593.927 826.815 595.572 826.266 596.787 822.62 595.142ZM828.03 596.12 831.676 597.765 831.128 598.981 827.482 597.336ZM832.891 598.314 836.537 599.959 835.989 601.174 832.343 599.529ZM837.753 600.507 841.399 602.153 840.85 603.368 837.204 601.723ZM842.614 602.701 846.26 604.346 845.712 605.562 842.066 603.916ZM847.475 604.895 851.121 606.54 850.573 607.755 846.927 606.11ZM852.337 607.088 855.983 608.734 855.434 609.949 851.788 608.304ZM857.198 609.282 860.844 610.927 860.296 612.142 856.65 610.497ZM862.059 611.476 865.705 613.121 865.157 614.336 861.511 612.691ZM866.921 613.669 870.567 615.314 870.018 616.53 866.372 614.885ZM871.782 615.863 875.428 617.508 874.88 618.723 871.234 617.078ZM876.643 618.056 880.289 619.702 879.741 620.917 876.095 619.272ZM881.505 620.25 885.151 621.895 884.602 623.111 880.956 621.465ZM886.366 622.444 890.012 624.089 889.464 625.304 885.818 623.659ZM891.227 624.637 894.873 626.283 894.325 627.498 890.679 625.853ZM895.129 622.741 900.776 629.677 891.839 630.033Z" fill="#ED7D31"/><path d="M0.274203-0.607665 3.9202 1.03755 3.37179 2.25288-0.274203 0.607665ZM5.13553 1.58596 8.78152 3.23117 8.23311 4.4465 4.58712 2.80129ZM9.99685 3.77958 13.6428 5.42479 13.0944 6.64012 9.44844 4.99491ZM14.8582 5.9732 18.5042 7.61842 17.9558 8.83375 14.3098 7.18853ZM19.7195 8.16682 23.3655 9.81204 22.8171 11.0274 19.1711 9.38215ZM24.5808 10.3604 28.2268 12.0057 27.6784 13.221 24.0324 11.5758ZM29.4421 12.5541 33.0881 14.1993 32.5397 15.4146 28.8937 13.7694ZM34.3035 14.7477 37.9495 16.3929 37.4011 17.6082 33.7551 15.963ZM39.1648 16.9413 42.8108 18.5865 42.2624 19.8019 38.6164 18.1566ZM44.0261 19.1349 47.6721 20.7801 47.1237 21.9955 43.4777 20.3503ZM48.8874 21.3286 52.5334 22.9738 51.985 24.1891 48.339 22.5439ZM53.7488 23.5222 57.3948 25.1674 56.8464 26.3827 53.2004 24.7375ZM58.6101 25.7158 62.2561 27.361 61.7077 28.5763 58.0617 26.9311ZM63.4714 27.9094 67.1174 29.5546 66.569 30.77 62.923 29.1247ZM68.3327 30.103 71.9787 31.7483 71.4303 32.9636 67.7843 31.3184ZM73.1941 32.2967 76.84 33.9419 76.2916 35.1572 72.6456 33.512ZM78.0554 34.4903 81.7014 36.1355 81.1529 37.3508 77.507 35.7056ZM82.9167 36.6839 86.5627 38.3291 86.0143 39.5445 82.3683 37.8992ZM87.778 38.8775 91.424 40.5227 90.8756 41.7381 87.2296 40.0929ZM92.6393 41.0712 96.2853 42.7164 95.7369 43.9317 92.0909 42.2865ZM97.5006 43.2648 101.147 44.91 100.598 46.1253 96.9522 44.4801ZM102.362 45.4584 106.008 47.1036 105.46 48.3189 101.814 46.6737ZM107.223 47.652 110.869 49.2972 110.321 50.5126 106.675 48.8673ZM112.085 49.8456 115.731 51.4909 115.182 52.7062 111.536 51.061ZM116.946 52.0393 120.592 53.6845 120.044 54.8998 116.398 53.2546ZM121.807 54.2329 125.453 55.8781 124.905 57.0934 121.259 55.4482ZM126.669 56.4265 130.315 58.0717 129.766 59.287 126.12 57.6418ZM131.53 58.6201 135.176 60.2653 134.628 61.4807 130.982 59.8354ZM136.391 60.8137 140.037 62.459 139.489 63.6743 135.843 62.0291ZM141.253 63.0074 144.899 64.6526 144.35 65.8679 140.704 64.2227ZM146.114 65.201 149.76 66.8462 149.211 68.0615 145.565 66.4163ZM150.975 67.3946 154.621 69.0398 154.073 70.2552 150.427 68.6099ZM155.837 69.5882 159.483 71.2335 158.934 72.4488 155.288 70.8036ZM160.698 71.7819 164.344 73.4271 163.795 74.6424 160.149 72.9972ZM165.559 73.9755 169.205 75.6207 168.657 76.836 165.011 75.1908ZM170.421 76.1691 174.067 77.8143 173.518 79.0296 169.872 77.3844ZM175.282 78.3627 178.928 80.0079 178.379 81.2233 174.733 79.578ZM180.143 80.5563 183.789 82.2016 183.241 83.4169 179.595 81.7717ZM185.005 82.75 188.65 84.3952 188.102 85.6105 184.456 83.9653ZM189.866 84.9436 193.512 86.5888 192.963 87.8041 189.317 86.1589ZM194.727 87.1372 198.373 88.7824 197.825 89.9977 194.179 88.3525ZM198.629 85.2409 204.276 92.1773 195.339 92.5329Z" fill="#ED7D31" transform="matrix(1 0 0 -1 696.5 721.677)"/><path d="M900.717 629.974 895.405 629.507 895.521 628.178 900.834 628.646ZM891.418 628.482 890.133 628.125 890.49 626.841 891.775 627.197ZM886.345 626.576 883.588 625.337 881.547 624.08 882.246 622.945 884.251 624.18 884.174 624.139 886.891 625.36ZM878.078 621.931 877.036 621.099 877.868 620.057 878.91 620.888ZM873.909 618.605 872.832 617.746 869.967 614.917 870.904 613.968 873.744 616.773 873.691 616.726 874.74 617.563ZM867.142 612.009 866.277 610.995 867.291 610.129 868.156 611.143ZM863.679 607.953 862.999 607.157 860.489 603.607 861.578 602.838 864.07 606.362 864.033 606.314 864.693 607.087ZM858.196 600.281 857.496 599.146 858.63 598.446 859.33 599.581ZM855.396 595.742 854.443 594.197 852.843 590.997 854.035 590.401 855.622 593.574 855.593 593.522 856.531 595.042ZM851.054 587.419 850.796 586.903 850.482 586.173 851.707 585.646 852.013 586.359 851.997 586.324 852.247 586.823ZM848.903 582.498 847.529 579.301 846.906 577.504 848.166 577.067 848.781 578.841 848.763 578.796 850.128 581.971ZM845.597 573.724 845.16 572.464 846.42 572.028 846.857 573.288ZM844.031 568.579 842.655 563.426 843.943 563.082 845.319 568.235ZM841.865 559.458 841.613 558.148 842.922 557.896 843.174 559.206ZM840.878 554.168 840.255 548.871 841.579 548.715 842.202 554.012ZM839.871 544.843 839.813 543.51 841.145 543.453 841.203 544.785ZM839.639 539.514 839.547 537.401 839.407 534.186 840.74 534.128 840.879 537.343 840.971 539.456ZM838.95 530.284 838.759 528.964 840.078 528.773 840.269 530.092ZM837.864 525.126 837.752 524.65 837.769 524.711 836.332 520.461 836.357 520.525 836.208 520.2 837.42 519.643 837.584 520.001 839.042 524.314 839.162 524.82ZM834.539 516.565 833.982 515.353 835.194 514.797 835.75 516.008ZM832.308 511.827 829.429 507.338 830.551 506.618 833.43 511.107ZM827.314 504.034 826.469 503.002 827.5 502.157 828.345 503.189ZM823.935 499.907 820.822 496.107 820.871 496.16 820.57 495.865 821.505 494.914 821.831 495.234 824.966 499.063ZM817.719 493.059 816.768 492.124 817.703 491.174 818.654 492.109ZM813.917 489.319 813.183 488.597 813.226 488.636 809.91 485.892 810.759 484.865 814.098 487.627 814.852 488.369ZM806.828 483.342 805.8 482.492 806.65 481.465 807.677 482.315ZM802.644 480.131 798.268 477.082 799.03 475.988 803.406 479.037ZM794.986 474.796 794.895 474.732 794.94 474.76 793.885 474.145 794.557 472.993 795.635 473.622 795.749 473.702ZM790.43 472.129 785.823 469.442 786.495 468.29 791.101 470.978ZM782.332 467.583 781.139 466.987 781.736 465.794 782.928 466.39ZM777.562 465.198 773.228 463.031 773.273 463.051 772.821 462.866 773.328 461.633 773.802 461.827 778.158 464.005ZM769.121 461.347 767.888 460.841 768.394 459.607 769.627 460.114ZM764.187 459.322 761.398 458.176 761.437 458.191 759.242 457.448 759.669 456.185 761.884 456.935 764.694 458.088ZM755.453 456.166 754.19 455.739 754.617 454.476 755.88 454.903ZM750.401 454.457 749.062 454.004 749.11 454.018 745.313 453.041 745.645 451.75 749.466 452.733 750.828 453.194ZM741.439 452.044 740.148 451.712 740.48 450.421 741.772 450.753ZM736.274 450.715 736.235 450.705 736.276 450.715 731.077 449.724 731.326 448.414 736.546 449.409 736.606 449.424ZM727.148 448.976 725.838 448.726 726.087 447.417 727.397 447.666ZM721.944 448.081 716.644 447.487 716.793 446.162 722.093 446.756ZM712.669 447.041 711.344 446.892 711.493 445.567 712.818 445.716ZM707.402 446.622 703.096 446.442 703.152 445.11 707.458 445.29ZM704.289 449.828 696.463 445.497 704.624 441.835Z"/><path d="M1037.56 536.836 1040.31 537.092 1043.17 537.936 1045.89 539.164 1048.53 540.903 1051.08 543.075 1053.51 545.568 1057.94 551.58 1061.74 558.602 1064.58 566.501 1066.47 574.902 1067.11 583.625 1066.47 592.341 1064.77 600.741 1061.99 608.572 1058.51 615.653 1054.33 621.611 1051.97 624.1 1049.58 626.295 1045.84 628.371 1045.19 627.205 1048.86 625.167 1048.74 625.259 1051.05 623.134 1051.02 623.166 1053.33 620.729 1053.27 620.804 1057.39 614.929 1057.34 615.019 1060.78 608.019 1060.75 608.09 1063.5 600.34 1063.47 600.43 1065.16 592.117 1065.15 592.202 1065.77 583.577 1065.77 583.673 1065.15 575.048 1065.16 575.147 1063.29 566.834 1063.31 566.913 1060.5 559.101 1060.54 559.192 1056.79 552.255 1056.84 552.333 1052.46 546.396 1052.52 546.465 1050.15 544.028 1050.19 544.07 1047.69 541.945 1047.76 541.994 1045.2 540.307 1045.29 540.357 1042.66 539.17 1042.75 539.202 1040 538.389 1040.13 538.414 1037.44 538.164ZM1047.93 631.242 1039.12 629.688 1045.65 623.573Z" fill="#4472C4"/><text font-family="Calibri,Calibri_MSFontService,sans-serif" font-weight="400" font-size="24" transform="translate(760.187 422)">ItemCF</text></g></svg>