<svg width="903" height="314" xmlns="http://www.w3.org/2000/svg" xmlns:xlink="http://www.w3.org/1999/xlink" overflow="hidden"><defs><clipPath id="clip0"><rect x="173" y="135" width="903" height="314"/></clipPath></defs><g clip-path="url(#clip0)" transform="translate(-173 -135)"><path d="M198.5 172.833C198.5 168.231 202.231 164.5 206.833 164.5L304.167 164.5C308.769 164.5 312.5 168.231 312.5 172.833L312.5 206.167C312.5 210.769 308.769 214.5 304.167 214.5L206.833 214.5C202.231 214.5 198.5 210.769 198.5 206.167Z" stroke="#000000" stroke-width="1.33333" stroke-miterlimit="8" fill="#FFFFFF" fill-rule="evenodd"/><text font-family="Times New Roman,Times New Roman_MSFontService,sans-serif" font-weight="400" font-size="24" transform="translate(226.373 198)">User1</text><path d="M198.5 249.667C198.5 245.156 202.156 241.5 206.667 241.5L304.333 241.5C308.844 241.5 312.5 245.156 312.5 249.667L312.5 282.333C312.5 286.844 308.844 290.5 304.333 290.5L206.667 290.5C202.156 290.5 198.5 286.844 198.5 282.333Z" stroke="#000000" stroke-width="1.33333" stroke-miterlimit="8" fill="#FFFFFF" fill-rule="evenodd"/><text font-family="Times New Roman,Times New Roman_MSFontService,sans-serif" font-weight="400" font-size="24" transform="translate(226.373 274)">User2</text><path d="M198.5 325.834C198.5 321.231 202.231 317.5 206.833 317.5L304.167 317.5C308.769 317.5 312.5 321.231 312.5 325.834L312.5 359.167C312.5 363.769 308.769 367.5 304.167 367.5L206.833 367.5C202.231 367.5 198.5 363.769 198.5 359.167Z" stroke="#000000" stroke-width="1.33333" stroke-miterlimit="8" fill="#FFFFFF" fill-rule="evenodd"/><text font-family="Times New Roman,Times New Roman_MSFontService,sans-serif" font-weight="400" font-size="24" transform="translate(226.373 351)">User3</text><path d="M198.5 402.834C198.5 398.231 202.231 394.5 206.833 394.5L304.167 394.5C308.769 394.5 312.5 398.231 312.5 402.834L312.5 436.167C312.5 440.769 308.769 444.5 304.167 444.5L206.833 444.5C202.231 444.5 198.5 440.769 198.5 436.167Z" stroke="#000000" stroke-width="1.33333" stroke-miterlimit="8" fill="#FFFFFF" fill-rule="evenodd"/><text font-family="Times New Roman,Times New Roman_MSFontService,sans-serif" font-weight="400" font-size="24" transform="translate(226.373 428)">User4</text><path d="M482.5 172.833C482.5 168.231 486.231 164.5 490.833 164.5L588.167 164.5C592.769 164.5 596.5 168.231 596.5 172.833L596.5 206.167C596.5 210.769 592.769 214.5 588.167 214.5L490.833 214.5C486.231 214.5 482.5 210.769 482.5 206.167Z" stroke="#000000" stroke-width="1.33333" stroke-miterlimit="8" fill="#FFFFFF" fill-rule="evenodd"/><text font-family="Times New Roman,Times New Roman_MSFontService,sans-serif" font-weight="400" font-size="24" transform="translate(511.321 198)">Ietm1</text><path d="M482.5 249.667C482.5 245.156 486.156 241.5 490.667 241.5L588.333 241.5C592.844 241.5 596.5 245.156 596.5 249.667L596.5 282.333C596.5 286.844 592.844 290.5 588.333 290.5L490.667 290.5C486.156 290.5 482.5 286.844 482.5 282.333Z" stroke="#000000" stroke-width="1.33333" stroke-miterlimit="8" fill="#FFFFFF" fill-rule="evenodd"/><text font-family="Times New Roman,Times New Roman_MSFontService,sans-serif" font-weight="400" font-size="24" transform="translate(511.321 274)">Item2</text><path d="M482.5 325.834C482.5 321.231 486.231 317.5 490.833 317.5L588.167 317.5C592.769 317.5 596.5 321.231 596.5 325.834L596.5 359.167C596.5 363.769 592.769 367.5 588.167 367.5L490.833 367.5C486.231 367.5 482.5 363.769 482.5 359.167Z" stroke="#000000" stroke-width="1.33333" stroke-miterlimit="8" fill="#FFFFFF" fill-rule="evenodd"/><text font-family="Times New Roman,Times New Roman_MSFontService,sans-serif" font-weight="400" font-size="24" transform="translate(511.321 351)">Item3</text><path d="M482.5 402.834C482.5 398.231 486.231 394.5 490.833 394.5L588.167 394.5C592.769 394.5 596.5 398.231 596.5 402.834L596.5 436.167C596.5 440.769 592.769 444.5 588.167 444.5L490.833 444.5C486.231 444.5 482.5 440.769 482.5 436.167Z" stroke="#000000" stroke-width="1.33333" stroke-miterlimit="8" fill="#FFFFFF" fill-rule="evenodd"/><text font-family="Times New Roman,Times New Roman_MSFontService,sans-serif" font-weight="400" font-size="24" transform="translate(511.321 428)">Item4</text><path d="M312.5 188.833 476.086 188.833 476.086 190.167 312.5 190.167ZM474.753 185.5 482.753 189.5 474.753 193.5Z"/><path d="M0.272854-0.608272 164.443 73.0338 163.897 74.2503-0.272854 0.608272ZM164.591 69.4468 170.253 76.3707 161.317 76.7461Z" transform="matrix(1 0 0 -1 312.5 265.871)"/><path d="M0.535852-0.396619 166.823 224.266 165.751 225.059-0.535852 0.396619ZM168.709 221.211 170.253 230.021 162.279 225.97Z" transform="matrix(1 0 0 -1 312.5 419.521)"/><path d="M0.183147-0.641016 1.18056-0.35604 2.146 0.386602 3.10924 1.48745 3.97738 3.02339 5.50707 6.84762 6.89828 11.7801 8.09511 17.6383 8.97509 24.1124 9.60337 31.0235 9.7919 38.1875 9.60354 45.3452 9.10139 52.3126 8.34752 58.7833 7.34049 64.5737 6.12642 69.5578 5.34763 70.9585 4.1823 70.3106 4.91733 68.9885 4.85227 69.1547 6.03977 64.2797 6.03069 64.3233 7.03069 58.5733 7.02531 58.6104 7.77531 52.1728 7.77256 52.2021 8.27256 45.2646 8.27106 45.295 8.45856 38.17 8.45856 38.205 8.27106 31.08 8.27357 31.1229 7.64857 24.2479 7.65191 24.2773 6.77691 17.8398 6.78433 17.8834 5.59683 12.0709 5.60837 12.1185 4.23337 7.24347 4.25602 7.31009 2.75602 3.56009 2.79462 3.64054 1.98212 2.20304 2.06078 2.314 1.18578 1.314 1.28103 1.40342 0.468526 0.778416 0.691853 0.891016-0.183147 0.641016ZM8.88722 71.5205 1.375 76.375 1.9987 67.4525Z" transform="matrix(-1 1.22465e-16 1.22465e-16 1 199.837 189.5)"/><path d="M0.194812-0.637568 2.57345 0.0892395 4.99514 2.10731 7.26068 5.34379 9.42138 9.60165 11.5027 14.8995 13.5143 21.0601 15.3972 28.0897 17.1525 35.8004 18.7816 44.2594 20.2219 53.2768 21.5368 62.7939 22.6016 72.7531 24.1035 93.5923 24.6669 115.062 24.1035 136.533 22.6016 157.372 21.5368 167.269 20.2219 176.786 18.7816 185.803 17.1526 194.261 15.3972 202.035 13.5143 209.002 11.5026 215.226 9.42076 220.462 7.2339 224.771 5.65811 226.346 4.71569 225.403 6.21629 223.903 6.093 224.073 8.218 219.886 8.193 219.941 10.2555 214.754 10.2406 214.795 12.2406 208.607 12.2314 208.639 14.1064 201.701 14.0997 201.728 15.8497 193.978 15.8454 193.999 17.4704 185.561 17.4667 185.582 18.9042 176.582 18.9021 176.596 20.2146 167.096 20.2122 167.116 21.2747 157.241 21.2726 157.265 22.7726 136.452 22.7711 136.483 23.3336 115.045 23.3336 115.08 22.7711 93.6425 22.7726 93.6729 21.2726 72.8604 21.2746 72.8834 20.2121 62.9459 20.2146 62.9662 18.9021 53.4662 18.9042 53.4801 17.4667 44.4801 17.4704 44.5011 15.8454 36.0636 15.85 36.0855 14.1 28.398 14.106 28.4225 12.231 21.4225 12.2413 21.4569 10.2413 15.3319 10.2545 15.3688 8.192 10.1188 8.218 10.1767 6.093 5.98919 6.14135 6.06981 3.95385 2.94481 4.07321 3.07465 1.82321 1.19965 2.05519 1.32507-0.194812 0.637568ZM8.73716 228.149 0 230.062 3.71139 221.925Z" transform="matrix(-1 1.22465e-16 1.22465e-16 1 198.5 189.5)"/><path d="M312.773 188.892 316.423 190.529 315.877 191.745 312.227 190.108ZM317.639 191.075 321.289 192.712 320.743 193.928 317.093 192.291ZM322.505 193.257 326.155 194.895 325.609 196.111 321.96 194.474ZM327.371 195.44 331.021 197.077 330.475 198.294 326.826 196.657ZM332.238 197.623 335.887 199.26 335.342 200.477 331.692 198.84ZM337.104 199.806 340.753 201.443 340.208 202.66 336.558 201.022ZM341.97 201.989 345.62 203.626 345.074 204.842 341.424 203.205ZM346.836 204.172 350.486 205.809 349.94 207.025 346.29 205.388ZM351.702 206.354 355.352 207.992 354.806 209.208 351.157 207.571ZM356.569 208.537 360.218 210.174 359.672 211.391 356.023 209.754ZM361.435 210.72 365.084 212.357 364.539 213.574 360.889 211.937ZM366.301 212.903 369.951 214.54 369.405 215.757 365.755 214.119ZM371.167 215.086 374.817 216.723 374.271 217.939 370.621 216.302ZM376.033 217.269 379.683 218.906 379.137 220.122 375.488 218.485ZM380.899 219.451 384.549 221.089 384.003 222.305 380.354 220.668ZM385.766 221.634 389.415 223.271 388.87 224.488 385.22 222.851ZM390.632 223.817 394.281 225.454 393.736 226.671 390.086 225.034ZM395.498 226 399.148 227.637 398.602 228.854 394.952 227.216ZM400.364 228.183 404.014 229.82 403.468 231.036 399.818 229.399ZM405.23 230.366 408.88 232.003 408.334 233.219 404.685 231.582ZM410.096 232.548 413.746 234.186 413.2 235.402 409.551 233.765ZM414.963 234.731 418.612 236.368 418.067 237.585 414.417 235.948ZM419.829 236.914 423.478 238.551 422.933 239.768 419.283 238.131ZM424.695 239.097 428.345 240.734 427.799 241.951 424.149 240.313ZM429.561 241.28 433.211 242.917 432.665 244.133 429.016 242.496ZM434.427 243.463 438.077 245.1 437.531 246.316 433.882 244.679ZM439.294 245.645 442.943 247.282 442.397 248.499 438.748 246.862ZM444.16 247.828 447.809 249.465 447.264 250.682 443.614 249.045ZM449.026 250.011 452.676 251.648 452.13 252.865 448.48 251.228ZM453.892 252.194 457.542 253.831 456.996 255.048 453.346 253.41ZM458.758 254.377 462.408 256.014 461.862 257.23 458.213 255.593ZM463.624 256.56 467.274 258.197 466.728 259.413 463.079 257.776ZM468.491 258.742 472.14 260.379 471.595 261.596 467.945 259.959ZM473.357 260.925 476.943 262.534 476.397 263.75 472.811 262.142ZM477.091 258.947 482.753 265.871 473.817 266.246Z"/><path d="M312.5 264.833 316.5 264.833 316.5 266.167 312.5 266.167ZM317.833 264.833 321.833 264.833 321.833 266.167 317.833 266.167ZM323.167 264.833 327.167 264.833 327.167 266.167 323.167 266.167ZM328.5 264.833 332.5 264.833 332.5 266.167 328.5 266.167ZM333.833 264.833 337.833 264.833 337.833 266.167 333.833 266.167ZM339.167 264.833 343.167 264.833 343.167 266.167 339.167 266.167ZM344.5 264.833 348.5 264.833 348.5 266.167 344.5 266.167ZM349.833 264.833 353.833 264.833 353.833 266.167 349.833 266.167ZM355.167 264.833 359.167 264.833 359.167 266.167 355.167 266.167ZM360.5 264.833 364.5 264.833 364.5 266.167 360.5 266.167ZM365.833 264.833 369.833 264.833 369.833 266.167 365.833 266.167ZM371.167 264.833 375.167 264.833 375.167 266.167 371.167 266.167ZM376.5 264.833 380.5 264.833 380.5 266.167 376.5 266.167ZM381.833 264.833 385.833 264.833 385.833 266.167 381.833 266.167ZM387.167 264.833 391.167 264.833 391.167 266.167 387.167 266.167ZM392.5 264.833 396.5 264.833 396.5 266.167 392.5 266.167ZM397.833 264.833 401.833 264.833 401.833 266.167 397.833 266.167ZM403.167 264.833 407.167 264.833 407.167 266.167 403.167 266.167ZM408.5 264.833 412.5 264.833 412.5 266.167 408.5 266.167ZM413.833 264.833 417.833 264.833 417.833 266.167 413.833 266.167ZM419.167 264.833 423.167 264.833 423.167 266.167 419.167 266.167ZM424.5 264.833 428.5 264.833 428.5 266.167 424.5 266.167ZM429.833 264.833 433.833 264.833 433.833 266.167 429.833 266.167ZM435.167 264.833 439.167 264.833 439.167 266.167 435.167 266.167ZM440.5 264.833 444.5 264.833 444.5 266.167 440.5 266.167ZM445.833 264.833 449.833 264.833 449.833 266.167 445.833 266.167ZM451.167 264.833 455.167 264.833 455.167 266.167 451.167 266.167ZM456.5 264.833 460.5 264.833 460.5 266.167 456.5 266.167ZM461.833 264.833 465.833 264.833 465.833 266.167 461.833 266.167ZM467.167 264.833 471.167 264.833 471.167 266.167 467.167 266.167ZM472.5 264.833 476.086 264.833 476.086 266.167 472.5 266.167ZM474.753 261.5 482.753 265.5 474.753 269.5Z"/><path d="M0.446654-0.494919 3.41617 2.185 2.52286 3.17484-0.446654 0.494919ZM4.40601 3.07831 7.37552 5.75823 6.48221 6.74807 3.5127 4.06815ZM8.36536 6.65154 11.3349 9.33146 10.4416 10.3213 7.47205 7.64138ZM12.3247 10.2248 15.2942 12.9047 14.4009 13.8945 11.4314 11.2146ZM16.2841 13.798 19.2536 16.4779 18.3603 17.4678 15.3908 14.7878ZM20.2434 17.3712 23.2129 20.0512 22.3196 21.041 19.3501 18.3611ZM24.2028 20.9445 27.1723 23.6244 26.279 24.6142 23.3095 21.9343ZM28.1621 24.5177 31.1316 27.1976 30.2383 28.1875 27.2688 25.5075ZM32.1215 28.0909 35.091 30.7708 34.1977 31.7607 31.2282 29.0808ZM36.0808 31.6641 39.0503 34.3441 38.157 35.3339 35.1875 32.654ZM40.0402 35.2374 43.0097 37.9173 42.1164 38.9071 39.1469 36.2272ZM43.9995 38.8106 46.969 41.4905 46.0757 42.4804 43.1062 39.8004ZM47.9589 42.3838 50.9284 45.0638 50.0351 46.0536 47.0656 43.3737ZM51.9182 45.9571 54.8878 48.637 53.9944 49.6268 51.0249 46.9469ZM55.8776 49.5303 58.8471 52.2102 57.9538 53.2 54.9843 50.5201ZM59.8369 53.1035 62.8065 55.7834 61.9131 56.7733 58.9436 54.0934ZM63.7963 56.6767 66.7658 59.3567 65.8725 60.3465 62.903 57.6666ZM67.7556 60.25 70.7252 62.9299 69.8318 63.9197 66.8623 61.2398ZM71.715 63.8232 74.6845 66.5031 73.7912 67.493 70.8217 64.813ZM75.6743 67.3964 78.6439 70.0763 77.7505 71.0662 74.781 68.3863ZM79.6337 70.9697 82.6032 73.6496 81.7099 74.6394 78.7404 71.9595ZM83.593 74.5429 86.5626 77.2228 85.6693 78.2126 82.6997 75.5327ZM87.5524 78.1161 90.5219 80.796 89.6286 81.7859 86.6591 79.106ZM91.5117 81.6893 94.4813 84.3693 93.588 85.3591 90.6184 82.6792ZM95.4711 85.2626 98.4406 87.9425 97.5473 88.9323 94.5778 86.2524ZM99.4304 88.8358 102.4 91.5157 101.507 92.5056 98.5371 89.8256ZM103.39 92.409 106.359 95.0889 105.466 96.0788 102.496 93.3989ZM107.349 95.9823 110.319 98.6622 109.425 99.652 106.456 96.9721ZM111.309 99.5555 114.278 102.235 113.385 103.225 110.415 100.545ZM115.268 103.129 118.237 105.809 117.344 106.798 114.375 104.119ZM119.227 106.702 122.197 109.382 121.303 110.372 118.334 107.692ZM123.187 110.275 126.156 112.955 125.263 113.945 122.293 111.265ZM127.146 113.848 130.115 116.528 129.222 117.518 126.253 114.838ZM131.105 117.422 134.075 120.102 133.181 121.091 130.212 118.411ZM135.065 120.995 138.034 123.675 137.141 124.665 134.171 121.985ZM139.024 124.568 141.994 127.248 141.1 128.238 138.131 125.558ZM142.983 128.141 145.953 130.821 145.06 131.811 142.09 129.131ZM146.943 131.715 149.912 134.394 149.019 135.384 146.049 132.704ZM150.902 135.288 153.872 137.968 152.978 138.958 150.009 136.278ZM154.861 138.861 157.831 141.541 156.938 142.531 153.968 139.851ZM158.821 142.434 161.79 145.114 160.897 146.104 157.927 143.424ZM162.78 146.007 165.75 148.687 164.856 149.677 161.887 146.997ZM166.994 145.321 170.253 153.65 161.634 151.26Z" transform="matrix(1 0 0 -1 312.5 419.15)"/><path d="M312.947 265.005 320.865 272.152 319.972 273.141 312.053 265.995ZM323.835 274.832 331.754 281.978 330.86 282.968 322.942 275.821ZM334.723 284.658 342.642 291.804 341.749 292.794 333.83 285.648ZM345.611 294.484 353.53 301.631 352.637 302.621 344.718 295.474ZM356.5 304.311 364.418 311.457 363.525 312.447 355.606 305.301ZM367.388 314.137 375.306 321.284 374.413 322.273 366.494 315.127ZM378.276 323.963 386.195 331.11 385.301 332.1 377.383 324.953ZM389.164 333.79 397.083 340.936 396.19 341.926 388.271 334.78ZM400.052 343.616 407.971 350.763 407.078 351.753 399.159 344.606ZM410.941 353.443 418.859 360.589 417.966 361.579 410.047 354.432ZM421.829 363.269 429.748 370.415 428.854 371.405 420.936 364.259ZM432.717 373.095 440.636 380.242 439.742 381.232 431.824 374.085ZM443.605 382.922 451.524 390.068 450.631 391.058 442.712 383.912ZM454.493 392.748 462.412 399.895 461.519 400.885 453.6 393.738ZM465.382 402.575 473.3 409.721 472.407 410.711 464.488 403.564ZM476.27 412.401 478.25 414.188 477.357 415.178 475.377 413.391ZM479.494 410.821 482.753 419.15 474.134 416.76Z"/><path d="M312.5 418.833 323.167 418.833 323.167 420.167 312.5 420.167ZM327.167 418.833 337.833 418.833 337.833 420.167 327.167 420.167ZM341.833 418.833 352.5 418.833 352.5 420.167 341.833 420.167ZM356.5 418.833 367.167 418.833 367.167 420.167 356.5 420.167ZM371.167 418.833 381.833 418.833 381.833 420.167 371.167 420.167ZM385.833 418.833 396.5 418.833 396.5 420.167 385.833 420.167ZM400.5 418.833 411.167 418.833 411.167 420.167 400.5 420.167ZM415.167 418.833 425.833 418.833 425.833 420.167 415.167 420.167ZM429.833 418.833 440.5 418.833 440.5 420.167 429.833 420.167ZM444.5 418.833 455.167 418.833 455.167 420.167 444.5 420.167ZM459.167 418.833 469.833 418.833 469.833 420.167 459.167 420.167ZM473.833 418.833 476.086 418.833 476.086 420.167 473.833 420.167ZM474.753 415.5 482.753 419.5 474.753 423.5Z"/><path d="M596.795 418.639 602.129 418.639 602.129 419.973 596.795 419.973ZM606.129 418.639 611.462 418.639 611.462 419.973 606.129 419.973ZM615.462 418.639 620.795 418.639 620.795 419.973 615.462 419.973ZM620.204 415.381 620.204 410.048 621.537 410.048 621.537 415.381ZM620.204 406.048 620.204 400.714 621.537 400.714 621.537 406.048ZM620.204 396.714 620.204 391.381 621.537 391.381 621.537 396.714ZM620.204 387.381 620.204 382.048 621.537 382.048 621.537 387.381ZM620.204 378.048 620.204 372.714 621.537 372.714 621.537 378.048ZM620.204 368.714 620.204 363.381 621.537 363.381 621.537 368.714ZM620.204 359.381 620.204 354.048 621.537 354.048 621.537 359.381ZM620.204 350.048 620.204 344.714 621.537 344.714 621.537 350.048ZM620.204 340.714 620.204 335.381 621.537 335.381 621.537 340.714ZM620.204 331.381 620.204 326.048 621.537 326.048 621.537 331.381ZM620.204 322.048 620.204 316.714 621.537 316.714 621.537 322.048ZM620.204 312.714 620.204 307.381 621.537 307.381 621.537 312.714ZM620.204 303.381 620.204 298.048 621.537 298.048 621.537 303.381ZM620.204 294.048 620.204 288.714 621.537 288.714 621.537 294.048ZM620.204 284.714 620.204 279.381 621.537 279.381 621.537 284.714ZM620.204 275.381 620.204 270.048 621.537 270.048 621.537 275.381ZM620.204 266.048 620.204 260.714 621.537 260.714 621.537 266.048ZM620.204 256.714 620.204 251.381 621.537 251.381 621.537 256.714ZM620.204 247.381 620.204 242.048 621.537 242.048 621.537 247.381ZM620.204 238.048 620.204 232.714 621.537 232.714 621.537 238.048ZM620.204 228.714 620.204 223.381 621.537 223.381 621.537 228.714ZM620.204 219.381 620.204 214.048 621.537 214.048 621.537 219.381ZM620.204 210.048 620.204 204.714 621.537 204.714 621.537 210.048ZM620.204 200.714 620.204 195.381 621.537 195.381 621.537 200.714ZM620.204 191.381 620.204 186.048 621.537 186.048 621.537 191.381ZM620.204 182.048 620.204 176.714 621.537 176.714 621.537 182.048ZM620.204 172.714 620.204 167.381 621.537 167.381 621.537 172.714ZM620.204 163.381 620.204 158.048 621.537 158.048 621.537 163.381ZM620.204 154.048 620.204 148.714 621.537 148.714 621.537 154.048ZM620.204 144.714 620.204 139.381 621.537 139.381 621.537 144.714ZM620.119 136.799 614.786 136.799 614.786 135.466 620.119 135.466ZM610.786 136.799 605.452 136.799 605.452 135.466 610.786 135.466ZM601.452 136.799 596.119 136.799 596.119 135.466 601.452 135.466ZM592.119 136.799 586.786 136.799 586.786 135.466 592.119 135.466ZM582.786 136.799 577.452 136.799 577.452 135.466 582.786 135.466ZM573.452 136.799 568.119 136.799 568.119 135.466 573.452 135.466ZM564.119 136.799 558.786 136.799 558.786 135.466 564.119 135.466ZM554.786 136.799 549.452 136.799 549.452 135.466 554.786 135.466ZM545.452 136.799 540.119 136.799 540.119 135.466 545.452 135.466ZM536.119 136.799 530.786 136.799 530.786 135.466 536.119 135.466ZM526.786 136.799 521.452 136.799 521.452 135.466 526.786 135.466ZM517.452 136.799 512.119 136.799 512.119 135.466 517.452 135.466ZM508.119 136.799 502.786 136.799 502.786 135.466 508.119 135.466ZM498.786 136.799 493.452 136.799 493.452 135.466 498.786 135.466ZM489.452 136.799 484.119 136.799 484.119 135.466 489.452 135.466ZM480.119 136.799 474.786 136.799 474.786 135.466 480.119 135.466ZM470.786 136.799 465.452 136.799 465.452 135.466 470.786 135.466ZM461.452 136.799 456.119 136.799 456.119 135.466 461.452 135.466ZM452.119 136.799 446.786 136.799 446.786 135.466 452.119 135.466ZM442.786 136.799 437.452 136.799 437.452 135.466 442.786 135.466ZM433.452 136.799 428.119 136.799 428.119 135.466 433.452 135.466ZM424.119 136.799 418.786 136.799 418.786 135.466 424.119 135.466ZM414.786 136.799 409.452 136.799 409.452 135.466 414.786 135.466ZM405.452 136.799 400.119 136.799 400.119 135.466 405.452 135.466ZM396.119 136.799 390.786 136.799 390.786 135.466 396.119 135.466ZM386.786 136.799 381.452 136.799 381.452 135.466 386.786 135.466ZM377.452 136.799 372.119 136.799 372.119 135.466 377.452 135.466ZM368.119 136.799 362.786 136.799 362.786 135.466 368.119 135.466ZM358.786 136.799 353.452 136.799 353.452 135.466 358.786 135.466ZM349.452 136.799 344.119 136.799 344.119 135.466 349.452 135.466ZM340.119 136.799 334.786 136.799 334.786 135.466 340.119 135.466ZM330.786 136.799 325.452 136.799 325.452 135.466 330.786 135.466ZM321.452 136.799 316.119 136.799 316.119 135.466 321.452 135.466ZM312.119 136.799 306.786 136.799 306.786 135.466 312.119 135.466ZM302.786 136.799 297.452 136.799 297.452 135.466 302.786 135.466ZM293.452 136.799 288.119 136.799 288.119 135.466 293.452 135.466ZM284.119 136.799 278.786 136.799 278.786 135.466 284.119 135.466ZM274.786 136.799 269.452 136.799 269.452 135.466 274.786 135.466ZM265.452 136.799 260.119 136.799 260.119 135.466 265.452 135.466ZM256.119 136.799 255.5 136.799 256.167 136.133 256.167 140.847 254.833 140.847 254.833 135.466 256.119 135.466ZM256.167 144.847 256.167 150.18 254.833 150.18 254.833 144.847ZM256.167 154.18 256.167 157.833 254.833 157.833 254.833 154.18ZM259.5 156.5 255.5 164.5 251.5 156.5Z"/><rect x="354" y="148" width="96" height="38" fill="#FFFFFF"/><text font-family="Times New Roman,Times New Roman_MSFontService,sans-serif" font-weight="400" font-size="24" transform="translate(363.815 176)">UserCF</text><path d="M652.5 172.833C652.5 168.231 656.231 164.5 660.833 164.5L758.167 164.5C762.769 164.5 766.5 168.231 766.5 172.833L766.5 206.167C766.5 210.769 762.769 214.5 758.167 214.5L660.833 214.5C656.231 214.5 652.5 210.769 652.5 206.167Z" stroke="#000000" stroke-width="1.33333" stroke-miterlimit="8" fill="#FFFFFF" fill-rule="evenodd"/><text font-family="Times New Roman,Times New Roman_MSFontService,sans-serif" font-weight="400" font-size="24" transform="translate(680.36 198)">User1</text><path d="M652.5 249.667C652.5 245.156 656.156 241.5 660.667 241.5L758.333 241.5C762.844 241.5 766.5 245.156 766.5 249.667L766.5 282.333C766.5 286.844 762.844 290.5 758.333 290.5L660.667 290.5C656.156 290.5 652.5 286.844 652.5 282.333Z" stroke="#000000" stroke-width="1.33333" stroke-miterlimit="8" fill="#FFFFFF" fill-rule="evenodd"/><text font-family="Times New Roman,Times New Roman_MSFontService,sans-serif" font-weight="400" font-size="24" transform="translate(680.36 274)">User2</text><path d="M652.5 325.834C652.5 321.231 656.231 317.5 660.833 317.5L758.167 317.5C762.769 317.5 766.5 321.231 766.5 325.834L766.5 359.167C766.5 363.769 762.769 367.5 758.167 367.5L660.833 367.5C656.231 367.5 652.5 363.769 652.5 359.167Z" stroke="#000000" stroke-width="1.33333" stroke-miterlimit="8" fill="#FFFFFF" fill-rule="evenodd"/><text font-family="Times New Roman,Times New Roman_MSFontService,sans-serif" font-weight="400" font-size="24" transform="translate(680.36 351)">User3</text><path d="M652.5 402.834C652.5 398.231 656.231 394.5 660.833 394.5L758.167 394.5C762.769 394.5 766.5 398.231 766.5 402.834L766.5 436.167C766.5 440.769 762.769 444.5 758.167 444.5L660.833 444.5C656.231 444.5 652.5 440.769 652.5 436.167Z" stroke="#000000" stroke-width="1.33333" stroke-miterlimit="8" fill="#FFFFFF" fill-rule="evenodd"/><text font-family="Times New Roman,Times New Roman_MSFontService,sans-serif" font-weight="400" font-size="24" transform="translate(680.359 428)">User4</text><path d="M936.5 172.833C936.5 168.231 940.231 164.5 944.833 164.5L1042.17 164.5C1046.77 164.5 1050.5 168.231 1050.5 172.833L1050.5 206.167C1050.5 210.769 1046.77 214.5 1042.17 214.5L944.833 214.5C940.231 214.5 936.5 210.769 936.5 206.167Z" stroke="#000000" stroke-width="1.33333" stroke-miterlimit="8" fill="#FFFFFF" fill-rule="evenodd"/><text font-family="Times New Roman,Times New Roman_MSFontService,sans-serif" font-weight="400" font-size="24" transform="translate(965.308 198)">Ietm1</text><path d="M936.5 249.667C936.5 245.156 940.156 241.5 944.667 241.5L1042.33 241.5C1046.84 241.5 1050.5 245.156 1050.5 249.667L1050.5 282.333C1050.5 286.844 1046.84 290.5 1042.33 290.5L944.667 290.5C940.156 290.5 936.5 286.844 936.5 282.333Z" stroke="#000000" stroke-width="1.33333" stroke-miterlimit="8" fill="#FFFFFF" fill-rule="evenodd"/><text font-family="Times New Roman,Times New Roman_MSFontService,sans-serif" font-weight="400" font-size="24" transform="translate(965.308 274)">Item2</text><path d="M936.5 325.834C936.5 321.231 940.231 317.5 944.833 317.5L1042.17 317.5C1046.77 317.5 1050.5 321.231 1050.5 325.834L1050.5 359.167C1050.5 363.769 1046.77 367.5 1042.17 367.5L944.833 367.5C940.231 367.5 936.5 363.769 936.5 359.167Z" stroke="#000000" stroke-width="1.33333" stroke-miterlimit="8" fill="#FFFFFF" fill-rule="evenodd"/><text font-family="Times New Roman,Times New Roman_MSFontService,sans-serif" font-weight="400" font-size="24" transform="translate(965.308 351)">Item3</text><path d="M936.5 402.834C936.5 398.231 940.231 394.5 944.833 394.5L1042.17 394.5C1046.77 394.5 1050.5 398.231 1050.5 402.834L1050.5 436.167C1050.5 440.769 1046.77 444.5 1042.17 444.5L944.833 444.5C940.231 444.5 936.5 440.769 936.5 436.167Z" stroke="#000000" stroke-width="1.33333" stroke-miterlimit="8" fill="#FFFFFF" fill-rule="evenodd"/><text font-family="Times New Roman,Times New Roman_MSFontService,sans-serif" font-weight="400" font-size="24" transform="translate(965.307 428)">Item4</text><path d="M766.773 188.892 930.943 262.534 930.397 263.75 766.227 190.108ZM931.091 258.947 936.753 265.871 927.817 266.246Z"/><path d="M766.5 418.833 771.833 418.833 771.833 420.167 766.5 420.167ZM775.833 418.833 781.167 418.833 781.167 420.167 775.833 420.167ZM785.167 418.833 790.5 418.833 790.5 420.167 785.167 420.167ZM794.5 418.833 799.833 418.833 799.833 420.167 794.5 420.167ZM803.833 418.833 809.167 418.833 809.167 420.167 803.833 420.167ZM813.167 418.833 818.5 418.833 818.5 420.167 813.167 420.167ZM822.5 418.833 827.833 418.833 827.833 420.167 822.5 420.167ZM831.833 418.833 837.167 418.833 837.167 420.167 831.833 420.167ZM841.167 418.833 846.5 418.833 846.5 420.167 841.167 420.167ZM850.5 418.833 855.833 418.833 855.833 420.167 850.5 420.167ZM859.833 418.833 865.167 418.833 865.167 420.167 859.833 420.167ZM869.167 418.833 874.5 418.833 874.5 420.167 869.167 420.167ZM878.5 418.833 883.833 418.833 883.833 420.167 878.5 420.167ZM887.833 418.833 893.167 418.833 893.167 420.167 887.833 420.167ZM897.167 418.833 902.5 418.833 902.5 420.167 897.167 420.167ZM906.5 418.833 911.833 418.833 911.833 420.167 906.5 420.167ZM915.833 418.833 921.167 418.833 921.167 420.167 915.833 420.167ZM925.167 418.833 930.086 418.833 930.086 420.167 925.167 420.167ZM928.753 415.5 936.753 419.5 928.753 423.5Z"/><path d="M766.5 264.833 771.833 264.833 771.833 266.167 766.5 266.167ZM775.833 264.833 781.167 264.833 781.167 266.167 775.833 266.167ZM785.167 264.833 790.5 264.833 790.5 266.167 785.167 266.167ZM794.5 264.833 799.833 264.833 799.833 266.167 794.5 266.167ZM803.833 264.833 809.167 264.833 809.167 266.167 803.833 266.167ZM813.167 264.833 818.5 264.833 818.5 266.167 813.167 266.167ZM822.5 264.833 827.833 264.833 827.833 266.167 822.5 266.167ZM831.833 264.833 837.167 264.833 837.167 266.167 831.833 266.167ZM841.167 264.833 846.5 264.833 846.5 266.167 841.167 266.167ZM850.5 264.833 855.833 264.833 855.833 266.167 850.5 266.167ZM859.833 264.833 865.167 264.833 865.167 266.167 859.833 266.167ZM869.167 264.833 874.5 264.833 874.5 266.167 869.167 266.167ZM878.5 264.833 883.833 264.833 883.833 266.167 878.5 266.167ZM887.833 264.833 893.167 264.833 893.167 266.167 887.833 266.167ZM897.167 264.833 902.5 264.833 902.5 266.167 897.167 266.167ZM906.5 264.833 911.833 264.833 911.833 266.167 906.5 266.167ZM915.833 264.833 921.167 264.833 921.167 266.167 915.833 266.167ZM925.167 264.833 930.086 264.833 930.086 266.167 925.167 266.167ZM928.753 261.5 936.753 265.5 928.753 269.5Z"/><path d="M0.446654-0.494919 4.40601 3.07831 3.5127 4.06815-0.446654 0.494919ZM7.37552 5.75823 11.3349 9.33146 10.4416 10.3213 6.48221 6.74807ZM14.3044 12.0114 18.2637 15.5846 17.3704 16.5745 13.4111 13.0012ZM21.2333 18.2645 25.1926 21.8378 24.2993 22.8276 20.3399 19.2544ZM28.1621 24.5177 32.1215 28.0909 31.2282 29.0808 27.2688 25.5075ZM35.091 30.7708 39.0503 34.3441 38.157 35.3339 34.1977 31.7607ZM42.0199 37.024 45.9792 40.5972 45.0859 41.5871 41.1265 38.0138ZM48.9487 43.2771 52.9081 46.8504 52.0148 47.8402 48.0554 44.267ZM55.8776 49.5303 59.8369 53.1035 58.9436 54.0934 54.9843 50.5201ZM62.8064 55.7834 66.7658 59.3567 65.8725 60.3465 61.9131 56.7733ZM69.7353 62.0366 73.6947 65.6098 72.8014 66.5997 68.842 63.0264ZM76.6642 68.2897 80.6235 71.863 79.7302 72.8528 75.7709 69.2796ZM83.593 74.5429 87.5524 78.1161 86.6591 79.106 82.6997 75.5327ZM90.5219 80.796 94.4813 84.3693 93.588 85.3591 89.6286 81.7859ZM97.4508 87.0492 101.41 90.6224 100.517 91.6123 96.5575 88.039ZM104.38 93.3023 108.339 96.8756 107.446 97.8654 103.486 94.2922ZM111.309 99.5555 115.268 103.129 114.375 104.119 110.415 100.545ZM118.237 105.809 122.197 109.382 121.303 110.372 117.344 106.798ZM125.166 112.062 129.126 115.635 128.232 116.625 124.273 113.052ZM132.095 118.315 136.054 121.888 135.161 122.878 131.202 119.305ZM139.024 124.568 142.983 128.141 142.09 129.131 138.131 125.558ZM145.953 130.821 149.912 134.394 149.019 135.384 145.06 131.811ZM152.882 137.074 156.841 140.648 155.948 141.637 151.988 138.064ZM159.811 143.328 163.77 146.901 162.877 147.891 158.917 144.317ZM166.994 145.321 170.253 153.65 161.634 151.26Z" transform="matrix(1 0 0 -1 766.5 419.15)"/><path d="M766.774 264.892 771.636 267.086 771.087 268.301 766.226 266.108ZM775.282 268.731 780.143 270.925 779.594 272.14 774.733 269.947ZM783.789 272.57 788.65 274.764 788.102 275.979 783.24 273.785ZM792.296 276.409 797.158 278.603 796.609 279.818 791.748 277.624ZM800.804 280.248 805.665 282.441 805.116 283.657 800.255 281.463ZM809.311 284.087 814.172 286.28 813.624 287.496 808.762 285.302ZM817.818 287.925 822.68 290.119 822.131 291.334 817.27 289.141ZM826.326 291.764 831.187 293.958 830.638 295.173 825.777 292.98ZM834.833 295.603 839.694 297.797 839.146 299.012 834.284 296.818ZM843.34 299.442 848.201 301.636 847.653 302.851 842.792 300.657ZM851.847 303.281 856.709 305.474 856.16 306.69 851.299 304.496ZM860.355 307.12 865.216 309.313 864.668 310.529 859.806 308.335ZM868.862 310.958 873.723 313.152 873.175 314.367 868.314 312.174ZM877.369 314.797 882.231 316.991 881.682 318.206 876.821 316.013ZM885.877 318.636 890.738 320.83 890.19 322.045 885.328 319.851ZM894.384 322.475 899.245 324.669 898.697 325.884 893.836 323.69ZM902.891 326.314 907.753 328.507 907.204 329.723 902.343 327.529ZM911.399 330.153 916.26 332.346 915.712 333.562 910.85 331.368ZM919.906 333.991 924.767 336.185 924.219 337.4 919.358 335.207ZM928.413 337.83 930.951 338.975 930.402 340.191 927.865 339.046ZM931.106 335.389 936.753 342.325 927.816 342.681Z"/><path d="M0.274202-0.607666 5.13553 1.58595 4.58712 2.80128-0.274202 0.607666ZM8.78152 3.23117 13.6428 5.42479 13.0944 6.64012 8.23312 4.4465ZM17.2888 7.07 22.1502 9.26362 21.6018 10.4789 16.7404 8.28533ZM25.7962 10.9088 30.6575 13.1025 30.1091 14.3178 25.2478 12.1242ZM34.3035 14.7477 39.1648 16.9413 38.6164 18.1566 33.7551 15.963ZM42.8108 18.5865 47.6721 20.7801 47.1237 21.9954 42.2624 19.8018ZM51.3181 22.4253 56.1794 24.6189 55.631 25.8343 50.7697 23.6407ZM59.8254 26.2642 64.6868 28.4578 64.1384 29.6731 59.277 27.4795ZM68.3327 30.103 73.1941 32.2966 72.6457 33.5119 67.7843 31.3183ZM76.8401 33.9418 81.7014 36.1354 81.153 37.3508 76.2917 35.1572ZM85.3474 37.7807 90.2087 39.9743 89.6603 41.1896 84.799 38.996ZM93.8547 41.6195 98.716 43.8131 98.1676 45.0284 93.3063 42.8348ZM102.362 45.4583 107.223 47.6519 106.675 48.8673 101.814 46.6737ZM110.869 49.2972 115.731 51.4908 115.182 52.7061 110.321 50.5125ZM119.377 53.136 124.238 55.3296 123.69 56.5449 118.828 54.3513ZM127.884 56.9748 132.745 59.1684 132.197 60.3838 127.336 58.1902ZM136.391 60.8137 141.253 63.0073 140.704 64.2226 135.843 62.029ZM144.899 64.6525 149.76 66.8461 149.212 68.0614 144.35 65.8678ZM153.406 68.4913 158.267 70.6849 157.719 71.9003 152.858 69.7067ZM161.913 72.3302 164.451 73.4752 163.902 74.6906 161.365 73.5455ZM164.606 69.8885 170.253 76.8249 161.316 77.1804Z" transform="matrix(1 0 0 -1 766.5 419.325)"/><path d="M936.143 343.189 932.097 342.74 928.17 341.41 928.812 339.515 932.636 340.811 932.426 340.764 936.364 341.202ZM922.738 338.221 921.135 337.025 922.33 335.422 923.933 336.618ZM916.64 332.871 916.585 332.817 913.084 328.68 911.545 326.461 913.189 325.322 914.7 327.501 914.641 327.425 918.079 331.487 918.01 331.414 918.029 331.432ZM908.258 321.366 907.232 319.649 908.948 318.623 909.974 320.34ZM904.445 314.253 903.843 313.049 901.313 306.978 901.243 306.757 903.149 306.15 903.206 306.329 903.176 306.248 905.676 312.248 905.648 312.186 906.234 313.359ZM899.42 301.041 898.813 299.135 900.718 298.528 901.326 300.433ZM897.02 293.315 895.645 287.07 895.382 285.429 897.356 285.111 897.615 286.724 897.605 286.668 898.974 292.885ZM894.456 279.438 894.263 277.447 896.254 277.255 896.446 279.246ZM893.768 271.408 893.566 265.605 893.567 265.623 893.452 263.432 895.449 263.327 895.565 265.527 895.767 271.338ZM892.583 257.751 892.012 255.834 893.928 255.263 894.5 257.179ZM890.115 250.343 887.296 244.705 887.367 244.825 886.405 243.427 888.053 242.293 889.054 243.749 891.904 249.449ZM883.004 238.484 882.679 238.012 882.751 238.105 881.81 237.032 883.313 235.713 884.294 236.83 884.652 237.35ZM877.853 232.522 876.939 231.48 877.014 231.557 872.142 227.084 873.495 225.611 878.407 230.12 879.356 231.203ZM867.605 223.303 866.019 222.085 867.237 220.499 868.823 221.717ZM861.259 218.565 854.558 214.194 855.651 212.519 862.352 216.889ZM849.39 211.312 847.633 210.358 848.587 208.6 850.345 209.555ZM842.349 207.654 835.097 204.276 835.942 202.463 843.193 205.841ZM829.577 202.114 827.709 201.4 828.423 199.532 830.292 200.246ZM822.123 199.383 814.496 196.97 815.099 195.063 822.727 197.476ZM808.762 195.477 806.817 195.012 807.282 193.067 809.227 193.532ZM801.035 193.658 793.155 192.275 793.501 190.305 801.381 191.688ZM787.286 191.41 785.298 191.191 785.517 189.203 787.505 189.422ZM779.334 190.535 777.894 190.377 777.967 190.382 772.567 190.187 772.639 188.188 778.076 188.385 779.552 188.547ZM773.79 193.233 765.941 188.946 774.08 185.238Z"/><path d="M1050.57 264.837 1052.88 265.093 1055.23 265.747 1057.51 266.79 1059.79 268.287 1063.94 272.18 1067.63 277.143 1070.8 283.102 1073.2 289.626 1074.72 296.653 1075.29 303.935 1074.79 311.216 1073.33 318.24 1071.05 324.823 1068.07 330.719 1064.57 335.681 1060.64 339.611 1058.44 340.706 1057.85 339.512 1059.95 338.466 1059.78 338.591 1063.59 334.779 1063.52 334.866 1066.96 329.991 1066.91 330.074 1069.84 324.262 1069.81 324.344 1072.06 317.844 1072.03 317.927 1073.47 310.99 1073.46 311.079 1073.96 303.891 1073.96 303.99 1073.4 296.802 1073.41 296.891 1071.91 289.953 1071.94 290.043 1069.56 283.606 1069.6 283.688 1066.47 277.813 1066.53 277.898 1062.9 273.023 1062.98 273.111 1058.92 269.299 1059.01 269.37 1056.82 267.932 1056.91 267.981 1054.72 266.981 1054.82 267.017 1052.57 266.392 1052.68 266.413 1050.43 266.163ZM1060.76 343.418 1051.88 342.375 1058.04 335.894Z"/><rect x="812" y="148" width="96" height="38" fill="#FFFFFF"/><text font-family="Times New Roman,Times New Roman_MSFontService,sans-serif" font-weight="400" font-size="24" transform="translate(821.427 176)">ItemCF</text></g></svg>