<svg width="903" height="306" xmlns="http://www.w3.org/2000/svg" xmlns:xlink="http://www.w3.org/1999/xlink" overflow="hidden"><defs><clipPath id="clip0"><rect x="173" y="143" width="903" height="306"/></clipPath></defs><g clip-path="url(#clip0)" transform="translate(-173 -143)"><path d="M198.5 172.833C198.5 168.231 202.231 164.5 206.833 164.5L304.167 164.5C308.769 164.5 312.5 168.231 312.5 172.833L312.5 206.167C312.5 210.769 308.769 214.5 304.167 214.5L206.833 214.5C202.231 214.5 198.5 210.769 198.5 206.167Z" stroke="#4472C4" stroke-width="1.33333" stroke-miterlimit="8" fill="#DEEBF7" fill-rule="evenodd"/><text font-family="Times New Roman,Times New Roman_MSFontService,sans-serif" font-weight="400" font-size="24" transform="translate(226.373 198)">User<tspan font-size="24" x="45.3333" y="0">1</tspan></text><path d="M198.5 249.667C198.5 245.156 202.156 241.5 206.667 241.5L304.333 241.5C308.844 241.5 312.5 245.156 312.5 249.667L312.5 282.333C312.5 286.844 308.844 290.5 304.333 290.5L206.667 290.5C202.156 290.5 198.5 286.844 198.5 282.333Z" stroke="#4472C4" stroke-width="1.33333" stroke-miterlimit="8" fill="#DEEBF7" fill-rule="evenodd"/><text font-family="Times New Roman,Times New Roman_MSFontService,sans-serif" font-weight="400" font-size="24" transform="translate(226.373 274)">User2</text><path d="M198.5 325.834C198.5 321.231 202.231 317.5 206.833 317.5L304.167 317.5C308.769 317.5 312.5 321.231 312.5 325.834L312.5 359.167C312.5 363.769 308.769 367.5 304.167 367.5L206.833 367.5C202.231 367.5 198.5 363.769 198.5 359.167Z" stroke="#4472C4" stroke-width="1.33333" stroke-miterlimit="8" fill="#FFFFFF" fill-rule="evenodd"/><text font-family="Times New Roman,Times New Roman_MSFontService,sans-serif" font-weight="400" font-size="24" transform="translate(226.373 351)">User3</text><path d="M198.5 402.834C198.5 398.231 202.231 394.5 206.833 394.5L304.167 394.5C308.769 394.5 312.5 398.231 312.5 402.834L312.5 436.167C312.5 440.769 308.769 444.5 304.167 444.5L206.833 444.5C202.231 444.5 198.5 440.769 198.5 436.167Z" stroke="#4472C4" stroke-width="1.33333" stroke-miterlimit="8" fill="#DEEBF7" fill-rule="evenodd"/><text font-family="Times New Roman,Times New Roman_MSFontService,sans-serif" font-weight="400" font-size="24" transform="translate(226.373 428)">User4</text><path d="M482.5 172.833C482.5 168.231 486.231 164.5 490.833 164.5L588.167 164.5C592.769 164.5 596.5 168.231 596.5 172.833L596.5 206.167C596.5 210.769 592.769 214.5 588.167 214.5L490.833 214.5C486.231 214.5 482.5 210.769 482.5 206.167Z" stroke="#4472C4" stroke-width="1.33333" stroke-miterlimit="8" fill="#FFFFFF" fill-rule="evenodd"/><text font-family="Times New Roman,Times New Roman_MSFontService,sans-serif" font-weight="400" font-size="24" transform="translate(511.321 198)">Ietm1</text><path d="M482.5 249.667C482.5 245.156 486.156 241.5 490.667 241.5L588.333 241.5C592.844 241.5 596.5 245.156 596.5 249.667L596.5 282.333C596.5 286.844 592.844 290.5 588.333 290.5L490.667 290.5C486.156 290.5 482.5 286.844 482.5 282.333Z" stroke="#4472C4" stroke-width="1.33333" stroke-miterlimit="8" fill="#FFFFFF" fill-rule="evenodd"/><text font-family="Times New Roman,Times New Roman_MSFontService,sans-serif" font-weight="400" font-size="24" transform="translate(511.321 274)">Item2</text><path d="M482.5 325.834C482.5 321.231 486.231 317.5 490.833 317.5L588.167 317.5C592.769 317.5 596.5 321.231 596.5 325.834L596.5 359.167C596.5 363.769 592.769 367.5 588.167 367.5L490.833 367.5C486.231 367.5 482.5 363.769 482.5 359.167Z" stroke="#4472C4" stroke-width="1.33333" stroke-miterlimit="8" fill="#FFFFFF" fill-rule="evenodd"/><text font-family="Times New Roman,Times New Roman_MSFontService,sans-serif" font-weight="400" font-size="24" transform="translate(511.321 351)">Item3</text><path d="M482.5 402.834C482.5 398.231 486.231 394.5 490.833 394.5L588.167 394.5C592.769 394.5 596.5 398.231 596.5 402.834L596.5 436.167C596.5 440.769 592.769 444.5 588.167 444.5L490.833 444.5C486.231 444.5 482.5 440.769 482.5 436.167Z" stroke="#4472C4" stroke-width="1.33333" stroke-miterlimit="8" fill="#FFF2CC" fill-rule="evenodd"/><text font-family="Times New Roman,Times New Roman_MSFontService,sans-serif" font-weight="400" font-size="24" transform="translate(511.321 428)">Item4</text><path d="M312.5 188.833 476.086 188.833 476.086 190.167 312.5 190.167ZM474.753 185.5 482.753 189.5 474.753 193.5Z" fill="#ED7D31"/><path d="M0.272854-0.608272 164.443 73.0338 163.897 74.2503-0.272854 0.608272ZM164.591 69.4468 170.253 76.3707 161.317 76.7461Z" fill="#ED7D31" transform="matrix(1 0 0 -1 312.5 265.871)"/><path d="M0.535852-0.396619 166.823 224.266 165.751 225.059-0.535852 0.396619ZM168.709 221.211 170.253 230.021 162.279 225.97Z" fill="#ED7D31" transform="matrix(1 0 0 -1 312.5 419.521)"/><path d="M0.183147-0.641016 1.18056-0.35604 2.146 0.386602 3.10924 1.48745 3.97738 3.02339 5.50707 6.84762 6.89828 11.7801 8.09511 17.6383 8.97509 24.1124 9.60337 31.0235 9.7919 38.1875 9.60354 45.3452 9.10139 52.3126 8.34752 58.7833 7.34049 64.5737 6.12642 69.5578 5.34763 70.9585 4.1823 70.3106 4.91733 68.9885 4.85227 69.1547 6.03977 64.2797 6.03069 64.3233 7.03069 58.5733 7.02531 58.6104 7.77531 52.1728 7.77256 52.2021 8.27256 45.2646 8.27106 45.295 8.45856 38.17 8.45856 38.205 8.27106 31.08 8.27357 31.1229 7.64857 24.2479 7.65191 24.2773 6.77691 17.8398 6.78433 17.8834 5.59683 12.0709 5.60837 12.1185 4.23337 7.24347 4.25602 7.31009 2.75602 3.56009 2.79462 3.64054 1.98212 2.20304 2.06078 2.314 1.18578 1.314 1.28103 1.40342 0.468526 0.778416 0.691853 0.891016-0.183147 0.641016ZM8.88722 71.5205 1.375 76.375 1.9987 67.4525Z" fill="#ED7D31" transform="matrix(-1 1.22465e-16 1.22465e-16 1 199.837 189.5)"/><path d="M0.194812-0.637568 2.57345 0.0892395 4.99514 2.10731 7.26068 5.34379 9.42138 9.60165 11.5027 14.8995 13.5143 21.0601 15.3972 28.0897 17.1525 35.8004 18.7816 44.2594 20.2219 53.2768 21.5368 62.7939 22.6016 72.7531 24.1035 93.5923 24.6669 115.062 24.1035 136.533 22.6016 157.372 21.5368 167.269 20.2219 176.786 18.7816 185.803 17.1526 194.261 15.3972 202.035 13.5143 209.002 11.5026 215.226 9.42076 220.462 7.2339 224.771 5.65811 226.346 4.71569 225.403 6.21629 223.903 6.093 224.073 8.218 219.886 8.193 219.941 10.2555 214.754 10.2406 214.795 12.2406 208.607 12.2314 208.639 14.1064 201.701 14.0997 201.728 15.8497 193.978 15.8454 193.999 17.4704 185.561 17.4667 185.582 18.9042 176.582 18.9021 176.596 20.2146 167.096 20.2122 167.116 21.2747 157.241 21.2726 157.265 22.7726 136.452 22.7711 136.483 23.3336 115.045 23.3336 115.08 22.7711 93.6425 22.7726 93.6729 21.2726 72.8604 21.2746 72.8834 20.2121 62.9459 20.2146 62.9662 18.9021 53.4662 18.9042 53.4801 17.4667 44.4801 17.4704 44.5011 15.8454 36.0636 15.85 36.0855 14.1 28.398 14.106 28.4225 12.231 21.4225 12.2413 21.4569 10.2413 15.3319 10.2545 15.3688 8.192 10.1188 8.218 10.1767 6.093 5.98919 6.14135 6.06981 3.95385 2.94481 4.07321 3.07465 1.82321 1.19965 2.05519 1.32507-0.194812 0.637568ZM8.73716 228.149 0 230.062 3.71139 221.925Z" fill="#ED7D31" transform="matrix(-1 1.22465e-16 1.22465e-16 1 198.5 189.5)"/><path d="M312.773 188.892 313.989 189.437 313.444 190.654 312.227 190.108ZM315.206 189.983 316.423 190.529 315.877 191.745 314.66 191.2ZM317.639 191.075 318.856 191.62 318.31 192.837 317.093 192.291ZM320.072 192.166 321.289 192.712 320.743 193.928 319.526 193.383ZM322.505 193.257 323.722 193.803 323.176 195.02 321.96 194.474ZM324.938 194.349 326.155 194.895 325.609 196.111 324.393 195.565ZM327.371 195.44 328.588 195.986 328.042 197.203 326.826 196.657ZM329.805 196.532 331.021 197.077 330.475 198.294 329.259 197.748ZM332.238 197.623 333.454 198.169 332.908 199.385 331.692 198.84ZM334.671 198.715 335.887 199.26 335.342 200.477 334.125 199.931ZM337.104 199.806 338.32 200.352 337.775 201.568 336.558 201.022ZM339.537 200.897 340.753 201.443 340.208 202.66 338.991 202.114ZM341.97 201.989 343.187 202.534 342.641 203.751 341.424 203.205ZM344.403 203.08 345.62 203.626 345.074 204.842 343.857 204.297ZM346.836 204.172 348.053 204.717 347.507 205.934 346.29 205.388ZM349.269 205.263 350.486 205.809 349.94 207.025 348.724 206.48ZM351.702 206.354 352.919 206.9 352.373 208.117 351.157 207.571ZM354.135 207.446 355.352 207.992 354.806 209.208 353.59 208.662ZM356.569 208.537 357.785 209.083 357.239 210.299 356.023 209.754ZM359.002 209.629 360.218 210.174 359.672 211.391 358.456 210.845ZM361.435 210.72 362.651 211.266 362.106 212.482 360.889 211.937ZM363.868 211.811 365.084 212.357 364.539 213.574 363.322 213.028ZM366.301 212.903 367.517 213.449 366.972 214.665 365.755 214.119ZM368.734 213.994 369.951 214.54 369.405 215.757 368.188 215.211ZM371.167 215.086 372.384 215.631 371.838 216.848 370.621 216.302ZM373.6 216.177 374.817 216.723 374.271 217.939 373.054 217.394ZM376.033 217.269 377.25 217.814 376.704 219.031 375.488 218.485ZM378.466 218.36 379.683 218.906 379.137 220.122 377.921 219.577ZM380.899 219.451 382.116 219.997 381.57 221.214 380.354 220.668ZM383.332 220.543 384.549 221.089 384.003 222.305 382.787 221.759ZM385.766 221.634 386.982 222.18 386.436 223.396 385.22 222.851ZM388.199 222.726 389.415 223.271 388.87 224.488 387.653 223.942ZM390.632 223.817 391.848 224.363 391.303 225.579 390.086 225.034ZM393.065 224.908 394.281 225.454 393.736 226.671 392.519 226.125ZM395.498 226 396.714 226.546 396.169 227.762 394.952 227.216ZM397.931 227.091 399.148 227.637 398.602 228.854 397.385 228.308ZM400.364 228.183 401.581 228.728 401.035 229.945 399.818 229.399ZM402.797 229.274 404.014 229.82 403.468 231.036 402.251 230.491ZM405.23 230.366 406.447 230.911 405.901 232.128 404.685 231.582ZM407.663 231.457 408.88 232.003 408.334 233.219 407.118 232.674ZM410.096 232.548 411.313 233.094 410.767 234.311 409.551 233.765ZM412.53 233.64 413.746 234.186 413.2 235.402 411.984 234.856ZM414.963 234.731 416.179 235.277 415.633 236.493 414.417 235.948ZM417.396 235.823 418.612 236.368 418.067 237.585 416.85 237.039ZM419.829 236.914 421.045 237.46 420.5 238.676 419.283 238.131ZM422.262 238.005 423.478 238.551 422.933 239.768 421.716 239.222ZM424.695 239.097 425.912 239.643 425.366 240.859 424.149 240.313ZM427.128 240.188 428.345 240.734 427.799 241.951 426.582 241.405ZM429.561 241.28 430.778 241.825 430.232 243.042 429.016 242.496ZM431.994 242.371 433.211 242.917 432.665 244.133 431.449 243.588ZM434.427 243.463 435.644 244.008 435.098 245.225 433.882 244.679ZM436.86 244.554 438.077 245.1 437.531 246.316 436.315 245.77ZM439.294 245.645 440.51 246.191 439.964 247.408 438.748 246.862ZM441.727 246.737 442.943 247.282 442.398 248.499 441.181 247.953ZM444.16 247.828 445.376 248.374 444.831 249.59 443.614 249.045ZM446.593 248.92 447.809 249.465 447.264 250.682 446.047 250.136ZM449.026 250.011 450.243 250.557 449.697 251.773 448.48 251.228ZM451.459 251.102 452.676 251.648 452.13 252.865 450.913 252.319ZM453.892 252.194 455.109 252.74 454.563 253.956 453.346 253.41ZM456.325 253.285 457.542 253.831 456.996 255.048 455.78 254.502ZM458.758 254.377 459.975 254.922 459.429 256.139 458.213 255.593ZM461.191 255.468 462.408 256.014 461.862 257.23 460.646 256.685ZM463.624 256.56 464.841 257.105 464.295 258.322 463.079 257.776ZM466.058 257.651 467.274 258.197 466.728 259.413 465.512 258.867ZM468.491 258.742 469.707 259.288 469.161 260.505 467.945 259.959ZM470.924 259.834 472.14 260.379 471.595 261.596 470.378 261.05ZM473.357 260.925 474.573 261.471 474.028 262.687 472.811 262.142ZM475.79 262.017 476.943 262.534 476.397 263.75 475.244 263.233ZM477.091 258.947 482.753 265.871 473.817 266.246Z"/><path d="M312.5 264.833 313.833 264.833 313.833 266.167 312.5 266.167ZM315.167 264.833 316.5 264.833 316.5 266.167 315.167 266.167ZM317.833 264.833 319.167 264.833 319.167 266.167 317.833 266.167ZM320.5 264.833 321.833 264.833 321.833 266.167 320.5 266.167ZM323.167 264.833 324.5 264.833 324.5 266.167 323.167 266.167ZM325.833 264.833 327.167 264.833 327.167 266.167 325.833 266.167ZM328.5 264.833 329.833 264.833 329.833 266.167 328.5 266.167ZM331.167 264.833 332.5 264.833 332.5 266.167 331.167 266.167ZM333.833 264.833 335.167 264.833 335.167 266.167 333.833 266.167ZM336.5 264.833 337.833 264.833 337.833 266.167 336.5 266.167ZM339.167 264.833 340.5 264.833 340.5 266.167 339.167 266.167ZM341.833 264.833 343.167 264.833 343.167 266.167 341.833 266.167ZM344.5 264.833 345.833 264.833 345.833 266.167 344.5 266.167ZM347.167 264.833 348.5 264.833 348.5 266.167 347.167 266.167ZM349.833 264.833 351.167 264.833 351.167 266.167 349.833 266.167ZM352.5 264.833 353.833 264.833 353.833 266.167 352.5 266.167ZM355.167 264.833 356.5 264.833 356.5 266.167 355.167 266.167ZM357.833 264.833 359.167 264.833 359.167 266.167 357.833 266.167ZM360.5 264.833 361.833 264.833 361.833 266.167 360.5 266.167ZM363.167 264.833 364.5 264.833 364.5 266.167 363.167 266.167ZM365.833 264.833 367.167 264.833 367.167 266.167 365.833 266.167ZM368.5 264.833 369.833 264.833 369.833 266.167 368.5 266.167ZM371.167 264.833 372.5 264.833 372.5 266.167 371.167 266.167ZM373.833 264.833 375.167 264.833 375.167 266.167 373.833 266.167ZM376.5 264.833 377.833 264.833 377.833 266.167 376.5 266.167ZM379.167 264.833 380.5 264.833 380.5 266.167 379.167 266.167ZM381.833 264.833 383.167 264.833 383.167 266.167 381.833 266.167ZM384.5 264.833 385.833 264.833 385.833 266.167 384.5 266.167ZM387.167 264.833 388.5 264.833 388.5 266.167 387.167 266.167ZM389.833 264.833 391.167 264.833 391.167 266.167 389.833 266.167ZM392.5 264.833 393.833 264.833 393.833 266.167 392.5 266.167ZM395.167 264.833 396.5 264.833 396.5 266.167 395.167 266.167ZM397.833 264.833 399.167 264.833 399.167 266.167 397.833 266.167ZM400.5 264.833 401.833 264.833 401.833 266.167 400.5 266.167ZM403.167 264.833 404.5 264.833 404.5 266.167 403.167 266.167ZM405.833 264.833 407.167 264.833 407.167 266.167 405.833 266.167ZM408.5 264.833 409.833 264.833 409.833 266.167 408.5 266.167ZM411.167 264.833 412.5 264.833 412.5 266.167 411.167 266.167ZM413.833 264.833 415.167 264.833 415.167 266.167 413.833 266.167ZM416.5 264.833 417.833 264.833 417.833 266.167 416.5 266.167ZM419.167 264.833 420.5 264.833 420.5 266.167 419.167 266.167ZM421.833 264.833 423.167 264.833 423.167 266.167 421.833 266.167ZM424.5 264.833 425.833 264.833 425.833 266.167 424.5 266.167ZM427.167 264.833 428.5 264.833 428.5 266.167 427.167 266.167ZM429.833 264.833 431.167 264.833 431.167 266.167 429.833 266.167ZM432.5 264.833 433.833 264.833 433.833 266.167 432.5 266.167ZM435.167 264.833 436.5 264.833 436.5 266.167 435.167 266.167ZM437.833 264.833 439.167 264.833 439.167 266.167 437.833 266.167ZM440.5 264.833 441.833 264.833 441.833 266.167 440.5 266.167ZM443.167 264.833 444.5 264.833 444.5 266.167 443.167 266.167ZM445.833 264.833 447.167 264.833 447.167 266.167 445.833 266.167ZM448.5 264.833 449.833 264.833 449.833 266.167 448.5 266.167ZM451.167 264.833 452.5 264.833 452.5 266.167 451.167 266.167ZM453.833 264.833 455.167 264.833 455.167 266.167 453.833 266.167ZM456.5 264.833 457.833 264.833 457.833 266.167 456.5 266.167ZM459.167 264.833 460.5 264.833 460.5 266.167 459.167 266.167ZM461.833 264.833 463.167 264.833 463.167 266.167 461.833 266.167ZM464.5 264.833 465.833 264.833 465.833 266.167 464.5 266.167ZM467.167 264.833 468.5 264.833 468.5 266.167 467.167 266.167ZM469.833 264.833 471.167 264.833 471.167 266.167 469.833 266.167ZM472.5 264.833 473.833 264.833 473.833 266.167 472.5 266.167ZM475.167 264.833 476.086 264.833 476.086 266.167 475.167 266.167ZM474.753 261.5 482.753 265.5 474.753 269.5Z"/><path d="M0.446654-0.494919 1.43649 0.398388 0.543184 1.38823-0.446654 0.494919ZM2.42633 1.2917 3.41617 2.185 2.52286 3.17484 1.53302 2.28153ZM4.40601 3.07831 5.39584 3.97162 4.50254 4.96146 3.5127 4.06815ZM6.38568 4.86493 7.37552 5.75823 6.48221 6.74807 5.49237 5.85476ZM8.36536 6.65154 9.3552 7.54485 8.46189 8.53469 7.47205 7.64138ZM10.345 8.43816 11.3349 9.33146 10.4416 10.3213 9.45173 9.42799ZM12.3247 10.2248 13.3145 11.1181 12.4212 12.1079 11.4314 11.2146ZM14.3044 12.0114 15.2942 12.9047 14.4009 13.8945 13.4111 13.0012ZM16.2841 13.798 17.2739 14.6913 16.3806 15.6811 15.3908 14.7878ZM18.2637 15.5846 19.2536 16.4779 18.3603 17.4678 17.3704 16.5744ZM20.2434 17.3712 21.2332 18.2645 20.3399 19.2544 19.3501 18.3611ZM22.2231 19.1578 23.2129 20.0511 22.3196 21.041 21.3298 20.1477ZM24.2028 20.9445 25.1926 21.8378 24.2993 22.8276 23.3095 21.9343ZM26.1824 22.7311 27.1723 23.6244 26.279 24.6142 25.2891 23.7209ZM28.1621 24.5177 29.152 25.411 28.2586 26.4008 27.2688 25.5075ZM30.1418 26.3043 31.1316 27.1976 30.2383 28.1874 29.2485 27.2941ZM32.1215 28.0909 33.1113 28.9842 32.218 29.9741 31.2282 29.0807ZM34.1011 29.8775 35.091 30.7708 34.1977 31.7607 33.2078 30.8674ZM36.0808 31.6641 37.0707 32.5574 36.1774 33.5473 35.1875 32.654ZM38.0605 33.4508 39.0503 34.3441 38.157 35.3339 37.1672 34.4406ZM40.0402 35.2374 41.03 36.1307 40.1367 37.1205 39.1469 36.2272ZM42.0199 37.024 43.0097 37.9173 42.1164 38.9071 41.1266 38.0138ZM43.9995 38.8106 44.9894 39.7039 44.0961 40.6937 43.1062 39.8004ZM45.9792 40.5972 46.9691 41.4905 46.0757 42.4804 45.0859 41.587ZM47.9589 42.3838 48.9487 43.2771 48.0554 44.267 47.0656 43.3737ZM49.9386 44.1704 50.9284 45.0637 50.0351 46.0536 49.0453 45.1603ZM51.9183 45.9571 52.9081 46.8504 52.0148 47.8402 51.0249 46.9469ZM53.8979 47.7437 54.8878 48.637 53.9945 49.6268 53.0046 48.7335ZM55.8776 49.5303 56.8674 50.4236 55.9741 51.4134 54.9843 50.5201ZM57.8573 51.3169 58.8471 52.2102 57.9538 53.2 56.964 52.3067ZM59.837 53.1035 60.8268 53.9968 59.9335 54.9867 58.9436 54.0933ZM61.8166 54.8901 62.8065 55.7834 61.9132 56.7733 60.9233 55.88ZM63.7963 56.6767 64.7861 57.57 63.8928 58.5599 62.903 57.6666ZM65.776 58.4634 66.7658 59.3567 65.8725 60.3465 64.8827 59.4532ZM67.7556 60.25 68.7455 61.1433 67.8522 62.1331 66.8623 61.2398ZM69.7353 62.0366 70.7252 62.9299 69.8318 63.9197 68.842 63.0264ZM71.715 63.8232 72.7048 64.7165 71.8115 65.7063 70.8217 64.813ZM73.6947 65.6098 74.6845 66.5031 73.7912 67.493 72.8013 66.5996ZM75.6743 67.3964 76.6642 68.2897 75.7709 69.2796 74.781 68.3863ZM77.654 69.183 78.6438 70.0763 77.7505 71.0662 76.7607 70.1729ZM79.6337 70.9697 80.6235 71.863 79.7302 72.8528 78.7404 71.9595ZM81.6133 72.7563 82.6032 73.6496 81.7099 74.6394 80.72 73.7461ZM83.593 74.5429 84.5829 75.4362 83.6895 76.426 82.6997 75.5327ZM85.5727 76.3295 86.5625 77.2228 85.6692 78.2126 84.6794 77.3193ZM87.5524 78.1161 88.5422 79.0094 87.6489 79.9993 86.659 79.1059ZM89.532 79.9027 90.5219 80.796 89.6286 81.7859 88.6387 80.8926ZM91.5117 81.6893 92.5015 82.5826 91.6082 83.5725 90.6184 82.6792ZM93.4914 83.476 94.4812 84.3693 93.5879 85.3591 92.5981 84.4658ZM95.471 85.2626 96.4609 86.1559 95.5676 87.1457 94.5777 86.2524ZM97.4507 87.0492 98.4406 87.9425 97.5472 88.9323 96.5574 88.039ZM99.4304 88.8358 100.42 89.7291 99.5269 90.7189 98.5371 89.8256ZM101.41 90.6224 102.4 91.5157 101.507 92.5056 100.517 91.6123ZM103.39 92.409 104.38 93.3023 103.486 94.2922 102.496 93.3989ZM105.369 94.1956 106.359 95.0889 105.466 96.0788 104.476 95.1855ZM107.349 95.9822 108.339 96.8756 107.446 97.8654 106.456 96.9721ZM109.329 97.7689 110.319 98.6622 109.425 99.652 108.435 98.7587ZM111.308 99.5555 112.298 100.449 111.405 101.439 110.415 100.545ZM113.288 101.342 114.278 102.235 113.385 103.225 112.395 102.332ZM115.268 103.129 116.258 104.022 115.364 105.012 114.375 104.119ZM117.248 104.915 118.237 105.809 117.344 106.798 116.354 105.905ZM119.227 106.702 120.217 107.595 119.324 108.585 118.334 107.692ZM121.207 108.489 122.197 109.382 121.303 110.372 120.314 109.478ZM123.187 110.275 124.176 111.168 123.283 112.158 122.293 111.265ZM125.166 112.062 126.156 112.955 125.263 113.945 124.273 113.052ZM127.146 113.848 128.136 114.742 127.242 115.732 126.253 114.838ZM129.126 115.635 130.115 116.528 129.222 117.518 128.232 116.625ZM131.105 117.422 132.095 118.315 131.202 119.305 130.212 118.411ZM133.085 119.208 134.075 120.102 133.182 121.091 132.192 120.198ZM135.065 120.995 136.055 121.888 135.161 122.878 134.171 121.985ZM137.044 122.781 138.034 123.675 137.141 124.665 136.151 123.771ZM139.024 124.568 140.014 125.461 139.121 126.451 138.131 125.558ZM141.004 126.355 141.994 127.248 141.1 128.238 140.11 127.345ZM142.983 128.141 143.973 129.035 143.08 130.024 142.09 129.131ZM144.963 129.928 145.953 130.821 145.06 131.811 144.07 130.918ZM146.943 131.715 147.933 132.608 147.039 133.598 146.049 132.704ZM148.922 133.501 149.912 134.394 149.019 135.384 148.029 134.491ZM150.902 135.288 151.892 136.181 150.999 137.171 150.009 136.278ZM152.882 137.074 153.872 137.968 152.978 138.958 151.988 138.064ZM154.861 138.861 155.851 139.754 154.958 140.744 153.968 139.851ZM156.841 140.648 157.831 141.541 156.938 142.531 155.948 141.637ZM158.821 142.434 159.811 143.328 158.917 144.317 157.927 143.424ZM160.8 144.221 161.79 145.114 160.897 146.104 159.907 145.211ZM162.78 146.007 163.77 146.901 162.877 147.891 161.887 146.997ZM164.76 147.794 165.75 148.687 164.856 149.677 163.866 148.784ZM166.994 145.321 170.253 153.65 161.634 151.26Z" transform="matrix(1 0 0 -1 312.5 419.15)"/><path d="M312.947 265.005 320.865 272.152 319.972 273.141 312.053 265.995ZM323.835 274.832 331.754 281.978 330.86 282.968 322.942 275.821ZM334.723 284.658 342.642 291.804 341.749 292.794 333.83 285.648ZM345.611 294.484 353.53 301.631 352.637 302.621 344.718 295.474ZM356.5 304.311 364.418 311.457 363.525 312.447 355.606 305.301ZM367.388 314.137 375.306 321.284 374.413 322.273 366.494 315.127ZM378.276 323.963 386.195 331.11 385.301 332.1 377.383 324.953ZM389.164 333.79 397.083 340.936 396.19 341.926 388.271 334.78ZM400.052 343.616 407.971 350.763 407.078 351.753 399.159 344.606ZM410.941 353.443 418.859 360.589 417.966 361.579 410.047 354.432ZM421.829 363.269 429.748 370.415 428.854 371.405 420.936 364.259ZM432.717 373.095 440.636 380.242 439.742 381.232 431.824 374.085ZM443.605 382.922 451.524 390.068 450.631 391.058 442.712 383.912ZM454.493 392.748 462.412 399.895 461.519 400.885 453.6 393.738ZM465.382 402.575 473.3 409.721 472.407 410.711 464.488 403.564ZM476.27 412.401 478.25 414.188 477.357 415.178 475.377 413.391ZM479.494 410.821 482.753 419.15 474.134 416.76Z" fill="#4472C4"/><path d="M312.5 418.833 323.167 418.833 323.167 420.167 312.5 420.167ZM327.167 418.833 337.833 418.833 337.833 420.167 327.167 420.167ZM341.833 418.833 352.5 418.833 352.5 420.167 341.833 420.167ZM356.5 418.833 367.167 418.833 367.167 420.167 356.5 420.167ZM371.167 418.833 381.833 418.833 381.833 420.167 371.167 420.167ZM385.833 418.833 396.5 418.833 396.5 420.167 385.833 420.167ZM400.5 418.833 411.167 418.833 411.167 420.167 400.5 420.167ZM415.167 418.833 425.833 418.833 425.833 420.167 415.167 420.167ZM429.833 418.833 440.5 418.833 440.5 420.167 429.833 420.167ZM444.5 418.833 455.167 418.833 455.167 420.167 444.5 420.167ZM459.167 418.833 469.833 418.833 469.833 420.167 459.167 420.167ZM473.833 418.833 476.086 418.833 476.086 420.167 473.833 420.167ZM474.753 415.5 482.753 419.5 474.753 423.5Z" fill="#4472C4"/><path d="M596.795 418.639 602.129 418.639 602.129 419.973 596.795 419.973ZM606.129 418.639 611.462 418.639 611.462 419.973 606.129 419.973ZM615.462 418.639 620.795 418.639 620.795 419.973 615.462 419.973ZM620.204 415.381 620.204 410.048 621.537 410.048 621.537 415.381ZM620.204 406.048 620.204 400.714 621.537 400.714 621.537 406.048ZM620.204 396.714 620.204 391.381 621.537 391.381 621.537 396.714ZM620.204 387.381 620.204 382.048 621.537 382.048 621.537 387.381ZM620.204 378.048 620.204 372.714 621.537 372.714 621.537 378.048ZM620.204 368.714 620.204 363.381 621.537 363.381 621.537 368.714ZM620.204 359.381 620.204 354.048 621.537 354.048 621.537 359.381ZM620.204 350.048 620.204 344.714 621.537 344.714 621.537 350.048ZM620.204 340.714 620.204 335.381 621.537 335.381 621.537 340.714ZM620.204 331.381 620.204 326.048 621.537 326.048 621.537 331.381ZM620.204 322.048 620.204 316.714 621.537 316.714 621.537 322.048ZM620.204 312.714 620.204 307.381 621.537 307.381 621.537 312.714ZM620.204 303.381 620.204 298.048 621.537 298.048 621.537 303.381ZM620.204 294.048 620.204 288.714 621.537 288.714 621.537 294.048ZM620.204 284.714 620.204 279.381 621.537 279.381 621.537 284.714ZM620.204 275.381 620.204 270.048 621.537 270.048 621.537 275.381ZM620.204 266.048 620.204 260.714 621.537 260.714 621.537 266.048ZM620.204 256.714 620.204 251.381 621.537 251.381 621.537 256.714ZM620.204 247.381 620.204 242.048 621.537 242.048 621.537 247.381ZM620.204 238.048 620.204 232.714 621.537 232.714 621.537 238.048ZM620.204 228.714 620.204 223.381 621.537 223.381 621.537 228.714ZM620.204 219.381 620.204 214.048 621.537 214.048 621.537 219.381ZM620.204 210.048 620.204 204.714 621.537 204.714 621.537 210.048ZM620.204 200.714 620.204 195.381 621.537 195.381 621.537 200.714ZM620.204 191.381 620.204 186.048 621.537 186.048 621.537 191.381ZM620.204 182.048 620.204 176.714 621.537 176.714 621.537 182.048ZM620.204 172.714 620.204 167.381 621.537 167.381 621.537 172.714ZM620.204 163.381 620.204 158.048 621.537 158.048 621.537 163.381ZM620.204 154.048 620.204 148.714 621.537 148.714 621.537 154.048ZM620.204 144.714 620.204 144.06 620.871 144.726 616.192 144.726 616.192 143.393 621.537 143.393 621.537 144.714ZM612.192 144.726 606.859 144.726 606.859 143.393 612.192 143.393ZM602.859 144.726 597.525 144.726 597.525 143.393 602.859 143.393ZM593.525 144.726 588.192 144.726 588.192 143.393 593.525 143.393ZM584.192 144.726 578.859 144.726 578.859 143.393 584.192 143.393ZM574.859 144.726 569.525 144.726 569.525 143.393 574.859 143.393ZM565.525 144.726 560.192 144.726 560.192 143.393 565.525 143.393ZM556.192 144.726 550.859 144.726 550.859 143.393 556.192 143.393ZM546.859 144.726 541.525 144.726 541.525 143.393 546.859 143.393ZM537.525 144.726 532.192 144.726 532.192 143.393 537.525 143.393ZM528.192 144.726 522.859 144.726 522.859 143.393 528.192 143.393ZM518.859 144.726 513.525 144.726 513.525 143.393 518.859 143.393ZM509.525 144.726 504.192 144.726 504.192 143.393 509.525 143.393ZM500.192 144.726 494.859 144.726 494.859 143.393 500.192 143.393ZM490.859 144.726 485.525 144.726 485.525 143.393 490.859 143.393ZM481.525 144.726 476.192 144.726 476.192 143.393 481.525 143.393ZM472.192 144.726 466.859 144.726 466.859 143.393 472.192 143.393ZM462.859 144.726 457.525 144.726 457.525 143.393 462.859 143.393ZM453.525 144.726 448.192 144.726 448.192 143.393 453.525 143.393ZM444.192 144.726 438.859 144.726 438.859 143.393 444.192 143.393ZM434.859 144.726 429.525 144.726 429.525 143.393 434.859 143.393ZM425.525 144.726 420.192 144.726 420.192 143.393 425.525 143.393ZM416.192 144.726 410.859 144.726 410.859 143.393 416.192 143.393ZM406.859 144.726 401.525 144.726 401.525 143.393 406.859 143.393ZM397.525 144.726 392.192 144.726 392.192 143.393 397.525 143.393ZM388.192 144.726 382.859 144.726 382.859 143.393 388.192 143.393ZM378.859 144.726 373.525 144.726 373.525 143.393 378.859 143.393ZM369.525 144.726 364.192 144.726 364.192 143.393 369.525 143.393ZM360.192 144.726 354.859 144.726 354.859 143.393 360.192 143.393ZM350.859 144.726 345.525 144.726 345.525 143.393 350.859 143.393ZM341.525 144.726 336.192 144.726 336.192 143.393 341.525 143.393ZM332.192 144.726 326.859 144.726 326.859 143.393 332.192 143.393ZM322.859 144.726 317.525 144.726 317.525 143.393 322.859 143.393ZM313.525 144.726 308.192 144.726 308.192 143.393 313.525 143.393ZM304.192 144.726 298.859 144.726 298.859 143.393 304.192 143.393ZM294.859 144.726 289.525 144.726 289.525 143.393 294.859 143.393ZM285.525 144.726 280.192 144.726 280.192 143.393 285.525 143.393ZM276.192 144.726 270.859 144.726 270.859 143.393 276.192 143.393ZM266.859 144.726 261.525 144.726 261.525 143.393 266.859 143.393ZM257.525 144.726 255.5 144.726 256.167 144.06 256.167 147.368 254.833 147.368 254.833 143.393 257.525 143.393ZM256.167 151.368 256.167 156.701 254.833 156.701 254.833 151.368ZM259.5 156.5 255.5 164.5 251.5 156.5Z" fill="#5B9BD5"/><text font-family="Times New Roman,Times New Roman_MSFontService,sans-serif" font-weight="400" font-size="24" transform="translate(367.771 179)">UserCF</text><path d="M652.5 172.833C652.5 168.231 656.231 164.5 660.833 164.5L758.167 164.5C762.769 164.5 766.5 168.231 766.5 172.833L766.5 206.167C766.5 210.769 762.769 214.5 758.167 214.5L660.833 214.5C656.231 214.5 652.5 210.769 652.5 206.167Z" stroke="#4472C4" stroke-width="1.33333" stroke-miterlimit="8" fill="#FFF2CC" fill-rule="evenodd"/><text font-family="Times New Roman,Times New Roman_MSFontService,sans-serif" font-weight="400" font-size="24" transform="translate(680.36 198)">User1</text><path d="M652.5 249.667C652.5 245.156 656.156 241.5 660.667 241.5L758.333 241.5C762.844 241.5 766.5 245.156 766.5 249.667L766.5 282.333C766.5 286.844 762.844 290.5 758.333 290.5L660.667 290.5C656.156 290.5 652.5 286.844 652.5 282.333Z" stroke="#4472C4" stroke-width="1.33333" stroke-miterlimit="8" fill="#FFFFFF" fill-rule="evenodd"/><text font-family="Times New Roman,Times New Roman_MSFontService,sans-serif" font-weight="400" font-size="24" transform="translate(680.36 274)">User2</text><path d="M652.5 325.834C652.5 321.231 656.231 317.5 660.833 317.5L758.167 317.5C762.769 317.5 766.5 321.231 766.5 325.834L766.5 359.167C766.5 363.769 762.769 367.5 758.167 367.5L660.833 367.5C656.231 367.5 652.5 363.769 652.5 359.167Z" stroke="#4472C4" stroke-width="1.33333" stroke-miterlimit="8" fill="#FFFFFF" fill-rule="evenodd"/><text font-family="Times New Roman,Times New Roman_MSFontService,sans-serif" font-weight="400" font-size="24" transform="translate(680.36 351)">User3</text><path d="M652.5 402.834C652.5 398.231 656.231 394.5 660.833 394.5L758.167 394.5C762.769 394.5 766.5 398.231 766.5 402.834L766.5 436.167C766.5 440.769 762.769 444.5 758.167 444.5L660.833 444.5C656.231 444.5 652.5 440.769 652.5 436.167Z" stroke="#4472C4" stroke-width="1.33333" stroke-miterlimit="8" fill="#FFFFFF" fill-rule="evenodd"/><text font-family="Times New Roman,Times New Roman_MSFontService,sans-serif" font-weight="400" font-size="24" transform="translate(680.359 428)">User4</text><path d="M936.5 172.833C936.5 168.231 940.231 164.5 944.833 164.5L1042.17 164.5C1046.77 164.5 1050.5 168.231 1050.5 172.833L1050.5 206.167C1050.5 210.769 1046.77 214.5 1042.17 214.5L944.833 214.5C940.231 214.5 936.5 210.769 936.5 206.167Z" stroke="#4472C4" stroke-width="1.33333" stroke-miterlimit="8" fill="#FFFFFF" fill-rule="evenodd"/><text font-family="Times New Roman,Times New Roman_MSFontService,sans-serif" font-weight="400" font-size="24" transform="translate(965.308 198)">Ietm1</text><path d="M936.5 249.667C936.5 245.156 940.156 241.5 944.667 241.5L1042.33 241.5C1046.84 241.5 1050.5 245.156 1050.5 249.667L1050.5 282.333C1050.5 286.844 1046.84 290.5 1042.33 290.5L944.667 290.5C940.156 290.5 936.5 286.844 936.5 282.333Z" stroke="#4472C4" stroke-width="1.33333" stroke-miterlimit="8" fill="#DAE3F3" fill-rule="evenodd"/><text font-family="Times New Roman,Times New Roman_MSFontService,sans-serif" font-weight="400" font-size="24" transform="translate(965.308 274)">Item2</text><path d="M936.5 325.834C936.5 321.231 940.231 317.5 944.833 317.5L1042.17 317.5C1046.77 317.5 1050.5 321.231 1050.5 325.834L1050.5 359.167C1050.5 363.769 1046.77 367.5 1042.17 367.5L944.833 367.5C940.231 367.5 936.5 363.769 936.5 359.167Z" stroke="#4472C4" stroke-width="1.33333" stroke-miterlimit="8" fill="#DAE3F3" fill-rule="evenodd"/><text font-family="Times New Roman,Times New Roman_MSFontService,sans-serif" font-weight="400" font-size="24" transform="translate(965.308 351)">Item3</text><path d="M936.5 402.834C936.5 398.231 940.231 394.5 944.833 394.5L1042.17 394.5C1046.77 394.5 1050.5 398.231 1050.5 402.834L1050.5 436.167C1050.5 440.769 1046.77 444.5 1042.17 444.5L944.833 444.5C940.231 444.5 936.5 440.769 936.5 436.167Z" stroke="#4472C4" stroke-width="1.33333" stroke-miterlimit="8" fill="#FFFFFF" fill-rule="evenodd"/><text font-family="Times New Roman,Times New Roman_MSFontService,sans-serif" font-weight="400" font-size="24" transform="translate(965.307 428)">Item4</text><path d="M766.773 188.892 930.943 262.534 930.397 263.75 766.227 190.108ZM931.091 258.947 936.753 265.871 927.817 266.246Z"/><path d="M766.5 418.833 770.5 418.833 770.5 420.167 766.5 420.167ZM771.833 418.833 775.833 418.833 775.833 420.167 771.833 420.167ZM777.167 418.833 781.167 418.833 781.167 420.167 777.167 420.167ZM782.5 418.833 786.5 418.833 786.5 420.167 782.5 420.167ZM787.833 418.833 791.833 418.833 791.833 420.167 787.833 420.167ZM793.167 418.833 797.167 418.833 797.167 420.167 793.167 420.167ZM798.5 418.833 802.5 418.833 802.5 420.167 798.5 420.167ZM803.833 418.833 807.833 418.833 807.833 420.167 803.833 420.167ZM809.167 418.833 813.167 418.833 813.167 420.167 809.167 420.167ZM814.5 418.833 818.5 418.833 818.5 420.167 814.5 420.167ZM819.833 418.833 823.833 418.833 823.833 420.167 819.833 420.167ZM825.167 418.833 829.167 418.833 829.167 420.167 825.167 420.167ZM830.5 418.833 834.5 418.833 834.5 420.167 830.5 420.167ZM835.833 418.833 839.833 418.833 839.833 420.167 835.833 420.167ZM841.167 418.833 845.167 418.833 845.167 420.167 841.167 420.167ZM846.5 418.833 850.5 418.833 850.5 420.167 846.5 420.167ZM851.833 418.833 855.833 418.833 855.833 420.167 851.833 420.167ZM857.167 418.833 861.167 418.833 861.167 420.167 857.167 420.167ZM862.5 418.833 866.5 418.833 866.5 420.167 862.5 420.167ZM867.833 418.833 871.833 418.833 871.833 420.167 867.833 420.167ZM873.167 418.833 877.167 418.833 877.167 420.167 873.167 420.167ZM878.5 418.833 882.5 418.833 882.5 420.167 878.5 420.167ZM883.833 418.833 887.833 418.833 887.833 420.167 883.833 420.167ZM889.167 418.833 893.167 418.833 893.167 420.167 889.167 420.167ZM894.5 418.833 898.5 418.833 898.5 420.167 894.5 420.167ZM899.833 418.833 903.833 418.833 903.833 420.167 899.833 420.167ZM905.167 418.833 909.167 418.833 909.167 420.167 905.167 420.167ZM910.5 418.833 914.5 418.833 914.5 420.167 910.5 420.167ZM915.833 418.833 919.833 418.833 919.833 420.167 915.833 420.167ZM921.167 418.833 925.167 418.833 925.167 420.167 921.167 420.167ZM926.5 418.833 930.086 418.833 930.086 420.167 926.5 420.167ZM928.753 415.5 936.753 419.5 928.753 423.5Z" fill="#ED7D31"/><path d="M766.5 264.833 770.5 264.833 770.5 266.167 766.5 266.167ZM771.833 264.833 775.833 264.833 775.833 266.167 771.833 266.167ZM777.167 264.833 781.167 264.833 781.167 266.167 777.167 266.167ZM782.5 264.833 786.5 264.833 786.5 266.167 782.5 266.167ZM787.833 264.833 791.833 264.833 791.833 266.167 787.833 266.167ZM793.167 264.833 797.167 264.833 797.167 266.167 793.167 266.167ZM798.5 264.833 802.5 264.833 802.5 266.167 798.5 266.167ZM803.833 264.833 807.833 264.833 807.833 266.167 803.833 266.167ZM809.167 264.833 813.167 264.833 813.167 266.167 809.167 266.167ZM814.5 264.833 818.5 264.833 818.5 266.167 814.5 266.167ZM819.833 264.833 823.833 264.833 823.833 266.167 819.833 266.167ZM825.167 264.833 829.167 264.833 829.167 266.167 825.167 266.167ZM830.5 264.833 834.5 264.833 834.5 266.167 830.5 266.167ZM835.833 264.833 839.833 264.833 839.833 266.167 835.833 266.167ZM841.167 264.833 845.167 264.833 845.167 266.167 841.167 266.167ZM846.5 264.833 850.5 264.833 850.5 266.167 846.5 266.167ZM851.833 264.833 855.833 264.833 855.833 266.167 851.833 266.167ZM857.167 264.833 861.167 264.833 861.167 266.167 857.167 266.167ZM862.5 264.833 866.5 264.833 866.5 266.167 862.5 266.167ZM867.833 264.833 871.833 264.833 871.833 266.167 867.833 266.167ZM873.167 264.833 877.167 264.833 877.167 266.167 873.167 266.167ZM878.5 264.833 882.5 264.833 882.5 266.167 878.5 266.167ZM883.833 264.833 887.833 264.833 887.833 266.167 883.833 266.167ZM889.167 264.833 893.167 264.833 893.167 266.167 889.167 266.167ZM894.5 264.833 898.5 264.833 898.5 266.167 894.5 266.167ZM899.833 264.833 903.833 264.833 903.833 266.167 899.833 266.167ZM905.167 264.833 909.167 264.833 909.167 266.167 905.167 266.167ZM910.5 264.833 914.5 264.833 914.5 266.167 910.5 266.167ZM915.833 264.833 919.833 264.833 919.833 266.167 915.833 266.167ZM921.167 264.833 925.167 264.833 925.167 266.167 921.167 266.167ZM926.5 264.833 930.086 264.833 930.086 266.167 926.5 266.167ZM928.753 261.5 936.753 265.5 928.753 269.5Z" fill="#ED7D31"/><path d="M0.446654-0.494919 3.41617 2.185 2.52286 3.17484-0.446654 0.494919ZM4.40601 3.07831 7.37552 5.75823 6.48221 6.74807 3.5127 4.06815ZM8.36536 6.65154 11.3349 9.33146 10.4416 10.3213 7.47205 7.64138ZM12.3247 10.2248 15.2942 12.9047 14.4009 13.8945 11.4314 11.2146ZM16.2841 13.798 19.2536 16.4779 18.3603 17.4678 15.3908 14.7878ZM20.2434 17.3712 23.2129 20.0512 22.3196 21.041 19.3501 18.3611ZM24.2028 20.9445 27.1723 23.6244 26.279 24.6142 23.3095 21.9343ZM28.1621 24.5177 31.1316 27.1976 30.2383 28.1875 27.2688 25.5075ZM32.1215 28.0909 35.091 30.7708 34.1977 31.7607 31.2282 29.0808ZM36.0808 31.6641 39.0503 34.3441 38.157 35.3339 35.1875 32.654ZM40.0402 35.2374 43.0097 37.9173 42.1164 38.9071 39.1469 36.2272ZM43.9995 38.8106 46.969 41.4905 46.0757 42.4804 43.1062 39.8004ZM47.9589 42.3838 50.9284 45.0638 50.0351 46.0536 47.0656 43.3737ZM51.9182 45.9571 54.8878 48.637 53.9944 49.6268 51.0249 46.9469ZM55.8776 49.5303 58.8471 52.2102 57.9538 53.2 54.9843 50.5201ZM59.8369 53.1035 62.8065 55.7834 61.9131 56.7733 58.9436 54.0934ZM63.7963 56.6767 66.7658 59.3567 65.8725 60.3465 62.903 57.6666ZM67.7556 60.25 70.7252 62.9299 69.8318 63.9197 66.8623 61.2398ZM71.715 63.8232 74.6845 66.5031 73.7912 67.493 70.8217 64.813ZM75.6743 67.3964 78.6439 70.0763 77.7505 71.0662 74.781 68.3863ZM79.6337 70.9697 82.6032 73.6496 81.7099 74.6394 78.7404 71.9595ZM83.593 74.5429 86.5626 77.2228 85.6693 78.2126 82.6997 75.5327ZM87.5524 78.1161 90.5219 80.796 89.6286 81.7859 86.6591 79.106ZM91.5117 81.6893 94.4813 84.3693 93.588 85.3591 90.6184 82.6792ZM95.4711 85.2626 98.4406 87.9425 97.5473 88.9323 94.5778 86.2524ZM99.4304 88.8358 102.4 91.5157 101.507 92.5056 98.5371 89.8256ZM103.39 92.409 106.359 95.0889 105.466 96.0788 102.496 93.3989ZM107.349 95.9823 110.319 98.6622 109.425 99.652 106.456 96.9721ZM111.309 99.5555 114.278 102.235 113.385 103.225 110.415 100.545ZM115.268 103.129 118.237 105.809 117.344 106.798 114.375 104.119ZM119.227 106.702 122.197 109.382 121.303 110.372 118.334 107.692ZM123.187 110.275 126.156 112.955 125.263 113.945 122.293 111.265ZM127.146 113.848 130.115 116.528 129.222 117.518 126.253 114.838ZM131.105 117.422 134.075 120.102 133.181 121.091 130.212 118.411ZM135.065 120.995 138.034 123.675 137.141 124.665 134.171 121.985ZM139.024 124.568 141.994 127.248 141.1 128.238 138.131 125.558ZM142.983 128.141 145.953 130.821 145.06 131.811 142.09 129.131ZM146.943 131.715 149.912 134.394 149.019 135.384 146.049 132.704ZM150.902 135.288 153.872 137.968 152.978 138.958 150.009 136.278ZM154.861 138.861 157.831 141.541 156.938 142.531 153.968 139.851ZM158.821 142.434 161.79 145.114 160.897 146.104 157.927 143.424ZM162.78 146.007 165.75 148.687 164.856 149.677 161.887 146.997ZM166.994 145.321 170.253 153.65 161.634 151.26Z" fill="#ED7D31" transform="matrix(1 0 0 -1 766.5 419.15)"/><path d="M766.774 264.892 770.42 266.538 769.872 267.753 766.226 266.108ZM771.636 267.086 775.282 268.731 774.733 269.947 771.087 268.301ZM776.497 269.28 780.143 270.925 779.594 272.14 775.948 270.495ZM781.358 271.473 785.004 273.118 784.456 274.334 780.81 272.689ZM786.22 273.667 789.866 275.312 789.317 276.527 785.671 274.882ZM791.081 275.861 794.727 277.506 794.178 278.721 790.532 277.076ZM795.942 278.054 799.588 279.699 799.04 280.915 795.394 279.269ZM800.804 280.248 804.45 281.893 803.901 283.108 800.255 281.463ZM805.665 282.441 809.311 284.087 808.762 285.302 805.116 283.657ZM810.526 284.635 814.172 286.28 813.624 287.496 809.978 285.85ZM815.388 286.829 819.034 288.474 818.485 289.689 814.839 288.044ZM820.249 289.022 823.895 290.667 823.346 291.883 819.7 290.238ZM825.11 291.216 828.756 292.861 828.208 294.076 824.562 292.431ZM829.971 293.409 833.617 295.055 833.069 296.27 829.423 294.625ZM834.833 295.603 838.479 297.248 837.93 298.464 834.284 296.818ZM839.694 297.797 843.34 299.442 842.792 300.657 839.146 299.012ZM844.555 299.99 848.201 301.636 847.653 302.851 844.007 301.206ZM849.417 302.184 853.063 303.829 852.514 305.044 848.868 303.399ZM854.278 304.378 857.924 306.023 857.376 307.238 853.73 305.593ZM859.139 306.571 862.785 308.216 862.237 309.432 858.591 307.786ZM864.001 308.765 867.647 310.41 867.098 311.625 863.452 309.98ZM868.862 310.958 872.508 312.604 871.96 313.819 868.314 312.174ZM873.723 313.152 877.369 314.797 876.821 316.013 873.175 314.367ZM878.585 315.346 882.231 316.991 881.682 318.206 878.036 316.561ZM883.446 317.539 887.092 319.185 886.544 320.4 882.898 318.755ZM888.307 319.733 891.953 321.378 891.405 322.593 887.759 320.948ZM893.169 321.927 896.815 323.572 896.266 324.787 892.62 323.142ZM898.03 324.12 901.676 325.765 901.128 326.981 897.482 325.335ZM902.891 326.314 906.537 327.959 905.989 329.174 902.343 327.529ZM907.753 328.507 911.399 330.153 910.85 331.368 907.204 329.723ZM912.614 330.701 916.26 332.346 915.712 333.562 912.066 331.916ZM917.475 332.895 921.121 334.54 920.573 335.755 916.927 334.11ZM922.337 335.088 925.983 336.733 925.434 337.949 921.788 336.304ZM927.198 337.282 930.844 338.927 930.296 340.142 926.65 338.497ZM931.106 335.389 936.753 342.325 927.816 342.681Z" fill="#ED7D31"/><path d="M0.274202-0.607666 3.9202 1.03755 3.37179 2.25288-0.274202 0.607666ZM5.13553 1.58595 8.78152 3.23117 8.23312 4.4465 4.58712 2.80128ZM9.99685 3.77957 13.6428 5.42479 13.0944 6.64012 9.44845 4.9949ZM14.8582 5.97319 18.5042 7.6184 17.9558 8.83374 14.3098 7.18852ZM19.7195 8.16681 23.3655 9.81202 22.8171 11.0274 19.1711 9.38214ZM24.5808 10.3604 28.2268 12.0056 27.6784 13.221 24.0324 11.5758ZM29.4422 12.554 33.0881 14.1993 32.5397 15.4146 28.8937 13.7694ZM34.3035 14.7477 37.9495 16.3929 37.4011 17.6082 33.7551 15.963ZM39.1648 16.9413 42.8108 18.5865 42.2624 19.8018 38.6164 18.1566ZM44.0261 19.1349 47.6721 20.7801 47.1237 21.9954 43.4777 20.3502ZM48.8875 21.3285 52.5334 22.9737 51.985 24.1891 48.339 22.5439ZM53.7488 23.5221 57.3948 25.1674 56.8464 26.3827 53.2004 24.7375ZM58.6101 25.7158 62.2561 27.361 61.7077 28.5763 58.0617 26.9311ZM63.4714 27.9094 67.1174 29.5546 66.569 30.7699 62.923 29.1247ZM68.3327 30.103 71.9787 31.7482 71.4303 32.9635 67.7843 31.3183ZM73.1941 32.2966 76.8401 33.9418 76.2917 35.1572 72.6457 33.5119ZM78.0554 34.4902 81.7014 36.1354 81.153 37.3508 77.507 35.7056ZM82.9167 36.6839 86.5627 38.3291 86.0143 39.5444 82.3683 37.8992ZM87.778 38.8775 91.424 40.5227 90.8756 41.738 87.2296 40.0928ZM92.6394 41.0711 96.2854 42.7163 95.737 43.9316 92.091 42.2864ZM97.5007 43.2647 101.147 44.9099 100.598 46.1253 96.9523 44.48ZM102.362 45.4583 106.008 47.1035 105.46 48.3189 101.814 46.6737ZM107.223 47.6519 110.869 49.2972 110.321 50.5125 106.675 48.8673ZM112.085 49.8456 115.731 51.4908 115.182 52.7061 111.536 51.0609ZM116.946 52.0392 120.592 53.6844 120.044 54.8997 116.398 53.2545ZM121.807 54.2328 125.453 55.878 124.905 57.0933 121.259 55.4481ZM126.669 56.4264 130.315 58.0716 129.766 59.287 126.12 57.6418ZM131.53 58.6201 135.176 60.2653 134.628 61.4806 130.982 59.8354ZM136.391 60.8137 140.037 62.4589 139.489 63.6742 135.843 62.029ZM141.253 63.0073 144.899 64.6525 144.35 65.8678 140.704 64.2226ZM146.114 65.2009 149.76 66.8461 149.212 68.0614 145.566 66.4162ZM150.975 67.3945 154.621 69.0397 154.073 70.2551 150.427 68.6098ZM155.837 69.5881 159.483 71.2334 158.934 72.4487 155.288 70.8035ZM160.698 71.7818 164.344 73.427 163.796 74.6423 160.15 72.9971ZM164.606 69.8885 170.253 76.8249 161.316 77.1804Z" fill="#ED7D31" transform="matrix(1 0 0 -1 766.5 419.325)"/><path d="M936.692 343.359 931.882 342.916 931.281 342.748 931.641 341.464 932.183 341.616 932.064 341.594 936.814 342.032ZM927.429 341.67 927.089 341.574 926.105 341.135 926.648 339.918 927.587 340.337 927.495 340.304 927.789 340.386ZM922.451 339.506 922.38 339.474 917.805 336.679 917.752 336.635 918.592 335.6 918.611 335.616 918.538 335.564 923.038 338.314 922.962 338.274 922.994 338.289ZM914.646 334.115 913.611 333.275 914.451 332.239 915.486 333.079ZM910.684 330.463 909.202 329.025 907.056 326.471 908.077 325.613 910.201 328.142 910.155 328.092 911.612 329.506ZM904.518 323.324 903.731 322.248 904.807 321.46 905.594 322.537ZM901.347 318.961 898.603 314.387 899.747 313.701 902.491 318.275ZM896.699 310.82 896.093 309.633 897.281 309.026 897.887 310.214ZM894.351 305.983 892.256 301.061 892.247 301.034 893.505 300.595 893.508 300.601 893.492 300.56 895.578 305.46ZM890.928 297.257 890.489 295.999 891.748 295.559 892.187 296.818ZM889.324 292.122 888.103 287.533 887.982 286.916 889.29 286.659 889.407 287.255 889.397 287.212 890.613 291.779ZM887.211 282.991 886.954 281.683 888.262 281.426 888.519 282.734ZM886.398 277.67 885.901 273.31 885.858 272.319 887.19 272.262 887.232 273.229 887.228 273.183 887.723 277.519ZM885.684 268.323 885.626 266.991 886.958 266.933 887.016 268.265ZM885.294 263.041 884.902 258.947 884.924 259.063 884.594 257.888 885.878 257.528 886.224 258.76 886.621 262.914ZM883.513 254.037 883.153 252.753 884.436 252.393 884.797 253.677ZM881.633 249.179 879.711 245.039 879.755 245.118 879.339 244.471 880.461 243.751 880.901 244.436 882.842 248.617ZM877.178 241.105 876.457 239.983 877.579 239.263 878.299 240.385ZM874.159 236.808 870.799 232.666 871.834 231.826 875.194 235.968ZM868.094 229.83 867.142 228.897 868.075 227.945 869.027 228.878ZM864.286 226.096 863.661 225.484 863.703 225.522 860.268 222.679 861.118 221.652 864.575 224.512 865.219 225.144ZM857.186 220.129 856.453 219.522 856.497 219.555 856.184 219.337 856.947 218.243 857.282 218.477 858.036 219.101ZM852.903 217.048 848.529 213.996 849.292 212.903 853.666 215.954ZM845.127 211.995 843.977 211.321 844.651 210.171 845.801 210.845ZM840.525 209.3 839.729 208.833 839.768 208.854 835.823 206.882 836.419 205.689 840.384 207.672 841.199 208.149ZM832.245 205.093 831.052 204.497 831.649 203.304 832.841 203.901ZM827.42 202.946 822.488 200.917 822.995 199.684 827.927 201.713ZM818.786 199.527 817.522 199.101 817.948 197.837 819.212 198.264ZM813.732 197.822 810.228 196.64 810.275 196.654 808.691 196.246 809.024 194.955 810.631 195.369 814.158 196.559ZM804.818 195.25 803.526 194.917 803.859 193.626 805.15 193.958ZM799.653 193.921 799.587 193.904 799.63 193.913 794.455 192.938 794.702 191.627 799.898 192.607 799.985 192.629ZM790.524 192.196 789.214 191.949 789.461 190.639 790.771 190.886ZM785.293 191.451 779.996 190.826 780.152 189.502 785.449 190.127ZM776.066 190.487 774.734 190.435 774.785 189.103 776.118 189.155ZM774.279 193.754 766.441 189.446 774.59 185.76Z"/><path d="M1050.57 264.837 1052.88 265.093 1055.23 265.747 1057.51 266.79 1059.79 268.287 1063.94 272.18 1067.63 277.143 1070.8 283.102 1073.2 289.626 1074.72 296.653 1075.29 303.935 1074.79 311.216 1073.33 318.24 1071.05 324.823 1068.07 330.719 1064.57 335.681 1060.64 339.611 1058.44 340.706 1057.85 339.512 1059.95 338.466 1059.78 338.591 1063.59 334.779 1063.52 334.866 1066.96 329.991 1066.91 330.074 1069.84 324.262 1069.81 324.344 1072.06 317.844 1072.03 317.927 1073.47 310.99 1073.46 311.079 1073.96 303.891 1073.96 303.99 1073.4 296.802 1073.41 296.891 1071.91 289.953 1071.94 290.043 1069.56 283.606 1069.6 283.688 1066.47 277.813 1066.53 277.898 1062.9 273.023 1062.98 273.111 1058.92 269.299 1059.01 269.37 1056.82 267.932 1056.91 267.981 1054.72 266.981 1054.82 267.017 1052.57 266.392 1052.68 266.413 1050.43 266.163ZM1060.76 343.418 1051.88 342.375 1058.04 335.894Z" fill="#4472C4"/><text font-family="Times New Roman,Times New Roman_MSFontService,sans-serif" font-weight="400" font-size="24" transform="translate(821.427 176)">ItemCF</text></g></svg>