<svg width="1083" height="672" xmlns="http://www.w3.org/2000/svg" xmlns:xlink="http://www.w3.org/1999/xlink" overflow="hidden"><defs><clipPath id="clip0"><rect x="99" y="19" width="1083" height="672"/></clipPath></defs><g clip-path="url(#clip0)" transform="translate(-99 -19)"><path d="M151.5 32.6669C151.5 25.9474 156.947 20.5001 163.667 20.5001L288.333 20.5001C295.053 20.5001 300.5 25.9474 300.5 32.6669L300.5 81.3332C300.5 88.0527 295.053 93.5001 288.333 93.5001L163.667 93.5001C156.947 93.5001 151.5 88.0527 151.5 81.3332Z" stroke="#000000" stroke-width="1.33333" stroke-miterlimit="8" fill="#FFFFFF" fill-rule="evenodd"/><text font-family="Times New Roman,Times New Roman_MSFontService,sans-serif" font-weight="400" font-size="24" transform="translate(188.135 65)">UserCF</text><path d="M380.5 32.6669C380.5 25.9474 385.947 20.5001 392.667 20.5001L517.333 20.5001C524.053 20.5001 529.5 25.9474 529.5 32.6669L529.5 81.3332C529.5 88.0527 524.053 93.5001 517.333 93.5001L392.667 93.5001C385.947 93.5001 380.5 88.0527 380.5 81.3332Z" stroke="#000000" stroke-width="1.33333" stroke-miterlimit="8" fill="#FFFFFF" fill-rule="evenodd"/><text font-family="Times New Roman,Times New Roman_MSFontService,sans-serif" font-weight="400" font-size="24" transform="translate(417.939 65)">ItemCF</text><path d="M213.5 106 226 93.5001 238.5 106 232.25 106 232.25 140.5 219.75 140.5 219.75 106Z" stroke="#000000" stroke-width="1.33333" stroke-miterlimit="8" fill="#FFFFFF" fill-rule="evenodd"/><path d="M442.5 109 455 96.5001 467.5 109 461.25 109 461.25 143.5 448.75 143.5 448.75 109Z" stroke="#000000" stroke-width="1.33333" stroke-miterlimit="8" fill="#FFFFFF" fill-rule="evenodd"/><text font-family="SimSun,SimSun_MSFontService,sans-serif" font-weight="400" font-size="24" transform="translate(183.985 170)">基于用户<tspan font-size="24" x="0" y="29">相似度</tspan><tspan font-size="24" x="229.358" y="0">基于物品</tspan><tspan font-size="24" x="229.358" y="29">相似度</tspan></text><path d="M0 0 217.248 0.000104987" stroke="#000000" stroke-width="1.33333" stroke-miterlimit="8" fill="none" fill-rule="evenodd" transform="matrix(1 0 0 -1 237.5 222.5)"/><path d="M271.5 317.667C271.5 310.947 276.947 305.5 283.667 305.5L409.333 305.5C416.053 305.5 421.5 310.947 421.5 317.667L421.5 366.333C421.5 373.053 416.053 378.5 409.333 378.5L283.667 378.5C276.947 378.5 271.5 373.053 271.5 366.333Z" stroke="#000000" stroke-width="1.33333" stroke-miterlimit="8" fill="#FFFFFF" fill-rule="evenodd"/><text font-family="Times New Roman,Times New Roman_MSFontService,sans-serif" font-weight="400" font-size="24" transform="translate(331.315 350)">CF</text><path d="M0.666667-8.48079e-07 0.666763 75.8625-0.66657 75.8625-0.666667 8.48079e-07ZM4.00009 74.5291 0.000104987 82.5291-3.99991 74.5291Z" transform="matrix(1 0 0 -1 346.5 305.029)"/><path d="M271.5 628.834C271.5 622.022 277.022 616.5 283.834 616.5L409.167 616.5C415.978 616.5 421.5 622.022 421.5 628.834L421.5 678.167C421.5 684.978 415.978 690.5 409.167 690.5L283.834 690.5C277.022 690.5 271.5 684.978 271.5 678.167Z" stroke="#000000" stroke-width="1.33333" stroke-miterlimit="8" fill="#FFFFFF" fill-rule="evenodd"/><text font-family="Times New Roman,Times New Roman_MSFontService,sans-serif" font-weight="400" font-size="24" transform="translate(328.648 662)">MF</text><path d="M0.666667-2.93023e-07 0.666769 232.193-0.666565 232.193-0.666667 2.93023e-07ZM4.0001 230.859 0.000104987 238.859-3.9999 230.859Z" transform="matrix(-1 0 0 1 346.5 378.5)"/><text font-family="SimSun,SimSun_MSFontService,sans-serif" font-weight="400" font-size="24" transform="translate(114.407 482)">通过矩阵分解，提升<tspan font-size="24" x="0" y="27">处理稀疏矩阵能力</tspan></text><path d="M786.5 32.6669C786.5 25.9474 791.947 20.5001 798.667 20.5001L923.333 20.5001C930.053 20.5001 935.5 25.9474 935.5 32.6669L935.5 81.3332C935.5 88.0527 930.053 93.5001 923.333 93.5001L798.667 93.5001C791.947 93.5001 786.5 88.0527 786.5 81.3332Z" stroke="#000000" stroke-width="1.33333" stroke-miterlimit="8" fill="#FFFFFF" fill-rule="evenodd"/><text font-family="Times New Roman,Times New Roman_MSFontService,sans-serif" font-weight="400" font-size="24" transform="translate(817.957 65)">LS-PLM</text><path d="M786.5 317.667C786.5 310.947 791.947 305.5 798.667 305.5L923.333 305.5C930.053 305.5 935.5 310.947 935.5 317.667L935.5 366.333C935.5 373.053 930.053 378.5 923.333 378.5L798.667 378.5C791.947 378.5 786.5 373.053 786.5 366.333Z" stroke="#000000" stroke-width="1.33333" stroke-miterlimit="8" fill="#FFFFFF" fill-rule="evenodd"/><text font-family="Times New Roman,Times New Roman_MSFontService,sans-serif" font-weight="400" font-size="24" transform="translate(845.29 350)">LR</text><path d="M786.5 481.5C786.5 477.082 790.082 473.5 794.5 473.5L929.5 473.5C933.918 473.5 937.5 477.082 937.5 481.5L937.5 513.5C937.5 517.918 933.918 521.5 929.5 521.5L794.5 521.5C790.082 521.5 786.5 517.918 786.5 513.5Z" stroke="#000000" stroke-width="1.33333" stroke-miterlimit="8" fill="#FFFFFF" fill-rule="evenodd"/><text font-family="Times New Roman,Times New Roman_MSFontService,sans-serif" font-weight="400" font-size="24" transform="translate(825.297 506)">POLY2</text><path d="M786.5 628.834C786.5 622.022 792.022 616.5 798.834 616.5L923.167 616.5C929.978 616.5 935.5 622.022 935.5 628.834L935.5 678.167C935.5 684.978 929.978 690.5 923.167 690.5L798.834 690.5C792.022 690.5 786.5 684.978 786.5 678.167Z" stroke="#000000" stroke-width="1.33333" stroke-miterlimit="8" fill="#FFFFFF" fill-rule="evenodd"/><text font-family="Times New Roman,Times New Roman_MSFontService,sans-serif" font-weight="400" font-size="24" transform="translate(843.29 662)">FM</text><path d="M0.666667-3.31467e-07 0.666768 204.489-0.666565 204.489-0.666667 3.31467e-07ZM4.0001 203.156 0.000104987 211.156-3.9999 203.156Z" transform="matrix(1 0 0 -1 861.5 304.656)"/><path d="M862.167 378.494 862.917 466.872 861.584 466.884 860.833 378.506ZM866.239 465.511 862.307 473.544 858.239 465.579Z"/><path d="M0.666643-0.00565907 1.41688 88.3723 0.0835905 88.3836-0.666643 0.00565907ZM4.73877 87.0107 0.806824 95.0444-3.26094 87.0787Z" transform="matrix(-1 0 0 1 862.307 521.5)"/><path d="M421.5 340.833 426.833 340.833 426.833 342.167 421.5 342.167ZM430.833 340.833 436.167 340.833 436.167 342.167 430.833 342.167ZM440.167 340.833 445.5 340.833 445.5 342.167 440.167 342.167ZM449.5 340.833 454.833 340.833 454.833 342.167 449.5 342.167ZM458.833 340.833 464.167 340.833 464.167 342.167 458.833 342.167ZM468.167 340.833 473.5 340.833 473.5 342.167 468.167 342.167ZM477.5 340.833 482.833 340.833 482.833 342.167 477.5 342.167ZM486.833 340.833 492.167 340.833 492.167 342.167 486.833 342.167ZM496.167 340.833 501.5 340.833 501.5 342.167 496.167 342.167ZM505.5 340.833 510.833 340.833 510.833 342.167 505.5 342.167ZM514.833 340.833 520.167 340.833 520.167 342.167 514.833 342.167ZM524.167 340.833 529.5 340.833 529.5 342.167 524.167 342.167ZM533.5 340.833 538.833 340.833 538.833 342.167 533.5 342.167ZM542.833 340.833 548.167 340.833 548.167 342.167 542.833 342.167ZM552.167 340.833 557.5 340.833 557.5 342.167 552.167 342.167ZM561.5 340.833 566.833 340.833 566.833 342.167 561.5 342.167ZM570.833 340.833 576.167 340.833 576.167 342.167 570.833 342.167ZM580.167 340.833 585.5 340.833 585.5 342.167 580.167 342.167ZM589.5 340.833 594.833 340.833 594.833 342.167 589.5 342.167ZM598.833 340.833 604.167 340.833 604.167 342.167 598.833 342.167ZM608.167 340.833 613.5 340.833 613.5 342.167 608.167 342.167ZM617.5 340.833 622.833 340.833 622.833 342.167 617.5 342.167ZM626.833 340.833 632.167 340.833 632.167 342.167 626.833 342.167ZM636.167 340.833 641.5 340.833 641.5 342.167 636.167 342.167ZM645.5 340.833 650.833 340.833 650.833 342.167 645.5 342.167ZM654.833 340.833 660.167 340.833 660.167 342.167 654.833 342.167ZM664.167 340.833 669.5 340.833 669.5 342.167 664.167 342.167ZM673.5 340.833 678.833 340.833 678.833 342.167 673.5 342.167ZM682.833 340.833 688.167 340.833 688.167 342.167 682.833 342.167ZM692.167 340.833 697.5 340.833 697.5 342.167 692.167 342.167ZM701.5 340.833 706.833 340.833 706.833 342.167 701.5 342.167ZM710.833 340.833 716.167 340.833 716.167 342.167 710.833 342.167ZM720.167 340.833 725.5 340.833 725.5 342.167 720.167 342.167ZM729.5 340.833 734.833 340.833 734.833 342.167 729.5 342.167ZM738.833 340.833 744.167 340.833 744.167 342.167 738.833 342.167ZM748.167 340.833 753.5 340.833 753.5 342.167 748.167 342.167ZM757.5 340.833 762.833 340.833 762.833 342.167 757.5 342.167ZM766.833 340.833 772.167 340.833 772.167 342.167 766.833 342.167ZM776.167 340.833 779.751 340.833 779.751 342.167 776.167 342.167ZM778.418 337.5 786.418 341.5 778.418 345.5Z"/><path d="M421.5 652.833 426.833 652.833 426.833 654.167 421.5 654.167ZM430.833 652.833 436.167 652.833 436.167 654.167 430.833 654.167ZM440.167 652.833 445.5 652.833 445.5 654.167 440.167 654.167ZM449.5 652.833 454.833 652.833 454.833 654.167 449.5 654.167ZM458.833 652.833 464.167 652.833 464.167 654.167 458.833 654.167ZM468.167 652.833 473.5 652.833 473.5 654.167 468.167 654.167ZM477.5 652.833 482.833 652.833 482.833 654.167 477.5 654.167ZM486.833 652.833 492.167 652.833 492.167 654.167 486.833 654.167ZM496.167 652.833 501.5 652.833 501.5 654.167 496.167 654.167ZM505.5 652.833 510.833 652.833 510.833 654.167 505.5 654.167ZM514.833 652.833 520.167 652.833 520.167 654.167 514.833 654.167ZM524.167 652.833 529.5 652.833 529.5 654.167 524.167 654.167ZM533.5 652.833 538.833 652.833 538.833 654.167 533.5 654.167ZM542.833 652.833 548.167 652.833 548.167 654.167 542.833 654.167ZM552.167 652.833 557.5 652.833 557.5 654.167 552.167 654.167ZM561.5 652.833 566.833 652.833 566.833 654.167 561.5 654.167ZM570.833 652.833 576.167 652.833 576.167 654.167 570.833 654.167ZM580.167 652.833 585.5 652.833 585.5 654.167 580.167 654.167ZM589.5 652.833 594.833 652.833 594.833 654.167 589.5 654.167ZM598.833 652.833 604.167 652.833 604.167 654.167 598.833 654.167ZM608.167 652.833 613.5 652.833 613.5 654.167 608.167 654.167ZM617.5 652.833 622.833 652.833 622.833 654.167 617.5 654.167ZM626.833 652.833 632.167 652.833 632.167 654.167 626.833 654.167ZM636.167 652.833 641.5 652.833 641.5 654.167 636.167 654.167ZM645.5 652.833 650.833 652.833 650.833 654.167 645.5 654.167ZM654.833 652.833 660.167 652.833 660.167 654.167 654.833 654.167ZM664.167 652.833 669.5 652.833 669.5 654.167 664.167 654.167ZM673.5 652.833 678.833 652.833 678.833 654.167 673.5 654.167ZM682.833 652.833 688.167 652.833 688.167 654.167 682.833 654.167ZM692.167 652.833 697.5 652.833 697.5 654.167 692.167 654.167ZM701.5 652.833 706.833 652.833 706.833 654.167 701.5 654.167ZM710.833 652.833 716.167 652.833 716.167 654.167 710.833 654.167ZM720.167 652.833 725.5 652.833 725.5 654.167 720.167 654.167ZM729.5 652.833 734.833 652.833 734.833 654.167 729.5 654.167ZM738.833 652.833 744.167 652.833 744.167 654.167 738.833 654.167ZM748.167 652.833 753.5 652.833 753.5 654.167 748.167 654.167ZM757.5 652.833 762.833 652.833 762.833 654.167 757.5 654.167ZM766.833 652.833 772.167 652.833 772.167 654.167 766.833 654.167ZM776.167 652.833 779.751 652.833 779.751 654.167 776.167 654.167ZM778.418 649.5 786.418 653.5 778.418 657.5Z"/><text font-family="SimSun,SimSun_MSFontService,sans-serif" font-weight="400" font-size="24" transform="translate(527.105 326)">加入更多特征<tspan font-size="24" x="-6.10352e-05" y="312">加入更多特征</tspan><tspan font-size="24" x="364.771" y="-119">样本分组</tspan><tspan font-family="Times New Roman,Times New Roman_MSFontService,sans-serif" font-size="24" x="460.771" y="-119">+LR</tspan><tspan font-size="24" x="364.771" y="108">特征交叉</tspan><tspan font-size="24" x="364.771" y="235">通过向量特征交叉解决稀</tspan><tspan font-size="24" x="364.771" y="262">疏性和计算复杂度问题</tspan></text></g></svg>