<svg width="708" height="366" xmlns="http://www.w3.org/2000/svg" xmlns:xlink="http://www.w3.org/1999/xlink" overflow="hidden"><defs><clipPath id="clip0"><rect x="11" y="139" width="708" height="366"/></clipPath></defs><g clip-path="url(#clip0)" transform="translate(-11 -139)"><path d="M13.5001 151.5C13.5001 145.425 18.425 140.5 24.5003 140.5L97.4998 140.5C103.575 140.5 108.5 145.425 108.5 151.5L108.5 195.5C108.5 201.575 103.575 206.5 97.4998 206.5L24.5003 206.5C18.425 206.5 13.5001 201.575 13.5001 195.5Z" stroke="#000000" stroke-width="1.33333" stroke-linejoin="round" stroke-miterlimit="10" fill="#FFFFFF" fill-rule="evenodd"/><text font-family="Microsoft YaHei,Microsoft YaHei_MSFontService,sans-serif" font-weight="400" font-size="14" transform="translate(44.8279 176)">物品</text><path d="M381.5 152.5C381.5 146.425 386.425 141.5 392.5 141.5L706.5 141.5C712.575 141.5 717.5 146.425 717.5 152.5L717.5 196.5C717.5 202.575 712.575 207.5 706.5 207.5L392.5 207.5C386.425 207.5 381.5 202.575 381.5 196.5Z" stroke="#000000" stroke-width="1.33333" stroke-linejoin="round" stroke-miterlimit="10" fill="#FFFFFF" fill-rule="evenodd"/><path d="M14.5001 297.5C14.5001 291.977 18.9773 287.5 24.5003 287.5L100.5 287.5C106.023 287.5 110.5 291.977 110.5 297.5L110.5 337.5C110.5 343.023 106.023 347.5 100.5 347.5L24.5003 347.5C18.9773 347.5 14.5001 343.023 14.5001 337.5Z" stroke="#000000" stroke-width="1.33333" stroke-linejoin="round" stroke-miterlimit="10" fill="#FFFFFF" fill-rule="evenodd"/><text font-family="Microsoft YaHei,Microsoft YaHei_MSFontService,sans-serif" font-weight="400" font-size="14" transform="translate(46.228 319)">用户<tspan font-family="Arial,Arial_MSFontService,sans-serif" font-size="14" x="350.458" y="-154">1516A,Tit for Tat:</tspan><tspan font-family="Arial,Arial_MSFontService,sans-serif" font-size="14" x="462.292" y="-154">800, greedy</tspan></text><path d="M108.005 172 116.005 172.04 115.995 174.04 107.995 174ZM122.005 172.07 130.005 172.11 129.995 174.11 121.995 174.07ZM136.005 172.14 144.005 172.18 143.995 174.18 135.995 174.14ZM150.004 172.21 158.004 172.25 157.994 174.25 149.994 174.21ZM164.004 172.28 172.004 172.32 171.994 174.32 163.994 174.28ZM178.004 172.351 186.004 172.391 185.994 174.391 177.994 174.35ZM192.004 172.421 200.004 172.461 199.994 174.461 191.994 174.421ZM206.004 172.491 214.004 172.531 213.994 174.531 205.994 174.491ZM220.004 172.561 228.004 172.601 227.993 174.601 219.994 174.561ZM234.003 172.631 242.003 172.671 241.993 174.671 233.993 174.631ZM248.003 172.701 256.003 172.741 255.993 174.741 247.993 174.701ZM262.003 172.771 270.003 172.811 269.993 174.811 261.993 174.771ZM276.003 172.841 284.003 172.881 283.993 174.881 275.993 174.841ZM290.003 172.911 298.003 172.951 297.993 174.951 289.993 174.911ZM304.003 172.981 312.002 173.021 311.992 175.021 303.992 174.981ZM318.002 173.052 326.002 173.092 325.992 175.092 317.992 175.051ZM332.002 173.122 340.002 173.162 339.992 175.162 331.992 175.122ZM346.002 173.192 354.002 173.232 353.992 175.232 345.992 175.192ZM360.002 173.262 368.002 173.302 367.992 175.302 359.992 175.262ZM374.002 173.332 374.331 173.334 374.321 175.334 373.992 175.332ZM373.013 170.327 380.993 174.367 372.973 178.327Z" fill="#ED7D31"/><text font-family="Microsoft YaHei,Microsoft YaHei_MSFontService,sans-serif" font-weight="400" font-size="14" transform="translate(123.015 164)">步骤<tspan font-family="Arial,Arial_MSFontService,sans-serif" font-size="14" x="28" y="0">1</tspan><tspan font-size="14" x="35.8333" y="0">：给物品找一个特征</tspan><tspan font-family="Arial,Arial_MSFontService,sans-serif" font-size="14" x="273.671" y="26">1517A,Sum of 2050: 800, </tspan><tspan font-family="Arial,Arial_MSFontService,sans-serif" font-size="14" x="436.504" y="26">greedy#math</tspan></text><path d="M150.5 297.5C150.5 291.977 154.977 287.5 160.5 287.5L316.5 287.5C322.023 287.5 326.5 291.977 326.5 297.5L326.5 337.5C326.5 343.023 322.023 347.5 316.5 347.5L160.5 347.5C154.977 347.5 150.5 343.023 150.5 337.5Z" stroke="#000000" stroke-width="1.33333" stroke-linejoin="round" stroke-miterlimit="10" fill="#FFFFFF" fill-rule="evenodd"/><text font-family="Microsoft YaHei,Microsoft YaHei_MSFontService,sans-serif" font-weight="400" font-size="14" transform="translate(166.87 312)">行为的物品列表<tspan font-family="Arial,Arial_MSFontService,sans-serif" font-size="14" x="0" y="17">1516A,1517A…</tspan></text><path d="M2.60604e-06-1 8-0.999979 8 1.00002-2.60604e-06 1ZM14-0.999963 22-0.999943 22 1.00006 14 1.00004ZM28-0.999927 33.6193-0.999912 33.6193 1.00009 28 1.00007ZM32.286-3.99992 40.286 0.000104987 32.286 4.00008Z" fill="#ED7D31" transform="matrix(1 0 0 -1 110 317)"/><path d="M532.5 283.5C532.5 274.111 540.111 266.5 549.5 266.5L700.5 266.5C709.889 266.5 717.5 274.111 717.5 283.5L717.5 351.5C717.5 360.889 709.889 368.5 700.5 368.5L549.5 368.5C540.111 368.5 532.5 360.889 532.5 351.5Z" stroke="#000000" stroke-width="1.33333" stroke-linejoin="round" stroke-miterlimit="10" fill="#FFFFFF" fill-rule="evenodd"/><text font-family="Microsoft YaHei,Microsoft YaHei_MSFontService,sans-serif" font-weight="400" font-size="14" transform="translate(547.869 293)">用户偏好标签向量<tspan font-family="Arial,Arial_MSFontService,sans-serif" font-size="14" x="0" y="17">-</tspan><tspan font-family="Arial,Arial_MSFontService,sans-serif" font-size="14" x="18" y="17">800</tspan><tspan font-family="Arial,Arial_MSFontService,sans-serif" font-size="14" x="145.667" y="17">2</tspan><tspan font-family="Arial,Arial_MSFontService,sans-serif" font-size="14" x="0" y="34">-</tspan><tspan font-family="Arial,Arial_MSFontService,sans-serif" font-size="14" x="18" y="34">Greedy</tspan><tspan font-family="Arial,Arial_MSFontService,sans-serif" font-size="14" x="145.667" y="34">2</tspan><tspan font-family="Arial,Arial_MSFontService,sans-serif" font-size="14" x="0" y="51">-</tspan><tspan font-family="Arial,Arial_MSFontService,sans-serif" font-size="14" x="18" y="51">Math</tspan><tspan font-family="Arial,Arial_MSFontService,sans-serif" font-size="14" x="145.667" y="51">1</tspan></text><path d="M5.08486e-07-1 8-0.999996 8 1-5.08486e-07 1ZM14-0.999993 22-0.999989 22 1.00001 14 1.00001ZM28-0.999986 36-0.999982 36 1.00002 28 1.00001ZM42-0.999979 50-0.999975 50 1.00003 42 1.00002ZM56-0.999971 64-0.999967 64 1.00003 56 1.00003ZM70-0.999964 78-0.99996 78 1.00004 70 1.00004ZM84-0.999957 92-0.999953 92 1.00005 84 1.00004ZM98-0.99995 106-0.999946 106 1.00005 98 1.00005ZM112-0.999943 120-0.999939 120 1.00006 112 1.00006ZM126-0.999936 134-0.999932 134 1.00007 126 1.00006ZM140-0.999929 148-0.999925 148 1.00008 140 1.00007ZM154-0.999922 162-0.999918 162 1.00008 154 1.00008ZM168-0.999915 176-0.99991 176 1.00009 168 1.00009ZM182-0.999907 190-0.999903 190 1.0001 182 1.00009ZM196-0.9999 199.803-0.999898 199.803 1.0001 196 1.0001ZM198.47-3.9999 206.47 0.000104987 198.47 4.0001Z" fill="#ED7D31" transform="matrix(1 0 0 -1 326 317)"/><text font-family="Microsoft YaHei,Microsoft YaHei_MSFontService,sans-serif" font-weight="400" font-size="13" transform="translate(329.898 290)">步骤<tspan font-family="Arial,Arial_MSFontService,sans-serif" font-size="13" x="26.6667" y="0">2</tspan><tspan font-size="13" x="34" y="0">：根据用户历史记录，</tspan><tspan font-size="13" x="0" y="16">聚合标签偏好</tspan></text><path d="M150.5 442C150.5 435.097 156.097 429.5 163 429.5L314 429.5C320.904 429.5 326.5 435.097 326.5 442L326.5 492C326.5 498.904 320.904 504.5 314 504.5L163 504.5C156.097 504.5 150.5 498.904 150.5 492Z" stroke="#000000" stroke-width="1.33333" stroke-linejoin="round" stroke-miterlimit="10" fill="#FFFFFF" fill-rule="evenodd"/><text font-family="Microsoft YaHei,Microsoft YaHei_MSFontService,sans-serif" font-weight="400" font-size="14" transform="translate(161.217 451)">用户推荐列表：<tspan font-family="Arial,Arial_MSFontService,sans-serif" font-size="14" x="0" y="17">1616</tspan><tspan font-family="Arial,Arial_MSFontService,sans-serif" font-size="14" x="41.6267" y="17">A</tspan><tspan font-family="Arial,Arial_MSFontService,sans-serif" font-size="14" x="120.533" y="17">0</tspan><tspan font-family="Arial,Arial_MSFontService,sans-serif" font-size="14" x="130.933" y="17">.</tspan><tspan font-family="Arial,Arial_MSFontService,sans-serif" font-size="14" x="137.333" y="17">9</tspan><tspan font-family="Arial,Arial_MSFontService,sans-serif" font-size="14" x="0" y="34">1617</tspan><tspan font-family="Arial,Arial_MSFontService,sans-serif" font-size="14" x="41.6267" y="34">A</tspan><tspan font-family="Arial,Arial_MSFontService,sans-serif" font-size="14" x="120.533" y="34">0</tspan><tspan font-family="Arial,Arial_MSFontService,sans-serif" font-size="14" x="130.933" y="34">.</tspan><tspan font-family="Arial,Arial_MSFontService,sans-serif" font-size="14" x="137.333" y="34">8</tspan></text><path d="M625.864 368 625.864 376 623.864 376 623.864 368ZM625.864 382 625.864 390 623.864 390 623.864 382ZM625.864 396 625.864 404 623.864 404 623.864 396ZM625.864 410 625.864 418 623.864 418 623.864 410ZM625.864 424 625.864 432 623.864 432 623.864 424ZM625.864 438 625.864 446 623.864 446 623.864 438ZM625.864 452 625.864 460 623.864 460 623.864 452ZM625.864 466 625.864 467.571 617.435 467.571 617.435 465.571 624.864 465.571 623.864 466.571 623.864 466ZM611.435 467.571 603.435 467.571 603.435 465.571 611.435 465.571ZM597.435 467.571 589.435 467.571 589.435 465.571 597.435 465.571ZM583.435 467.571 575.435 467.571 575.435 465.571 583.435 465.571ZM569.435 467.571 561.435 467.571 561.435 465.571 569.435 465.571ZM555.435 467.571 547.435 467.571 547.435 465.571 555.435 465.571ZM541.435 467.571 533.435 467.571 533.435 465.571 541.435 465.571ZM527.435 467.571 519.435 467.571 519.435 465.571 527.435 465.571ZM513.435 467.571 505.435 467.571 505.435 465.571 513.435 465.571ZM499.435 467.571 491.435 467.571 491.435 465.571 499.435 465.571ZM485.435 467.571 477.435 467.571 477.435 465.571 485.435 465.571ZM471.435 467.571 463.435 467.571 463.435 465.571 471.435 465.571ZM457.435 467.571 449.435 467.571 449.435 465.571 457.435 465.571ZM443.435 467.571 435.435 467.571 435.435 465.571 443.435 465.571ZM429.435 467.571 421.435 467.571 421.435 465.571 429.435 465.571ZM415.435 467.571 407.435 467.571 407.435 465.571 415.435 465.571ZM401.435 467.571 393.435 467.571 393.435 465.571 401.435 465.571ZM387.435 467.571 379.435 467.571 379.435 465.571 387.435 465.571ZM373.435 467.571 365.435 467.571 365.435 465.571 373.435 465.571ZM359.435 467.571 351.435 467.571 351.435 465.571 359.435 465.571ZM345.435 467.571 337.435 467.571 337.435 465.571 345.435 465.571ZM334 470.571 326 466.571 334 462.571Z" fill="#4472C4"/><text font-family="Microsoft YaHei,Microsoft YaHei_MSFontService,sans-serif" font-weight="400" font-size="13" transform="translate(341.11 434)">步骤<tspan font-family="Arial,Arial_MSFontService,sans-serif" font-size="13" x="26.6667" y="0">3</tspan><tspan font-size="13" x="34" y="0">：使用余弦相似度算法</tspan><tspan font-size="13" x="0" y="16">计算用户标签向量最相似的</tspan><tspan font-family="Arial,Arial_MSFontService,sans-serif" font-size="13" x="160" y="16">TOPN</tspan><tspan font-size="13" x="197" y="16">推荐列表</tspan></text><path d="M150.17 467.307 142.17 467.307 142.17 465.307 150.17 465.307ZM136.17 467.307 128.17 467.307 128.17 465.307 136.17 465.307ZM122.17 467.307 114.17 467.307 114.17 465.307 122.17 465.307ZM108.17 467.307 100.17 467.307 100.17 465.307 108.17 465.307ZM94.1704 467.307 86.1704 467.307 86.1704 465.307 94.1704 465.307ZM80.1704 467.307 72.1704 467.307 72.1704 465.307 80.1704 465.307ZM66.1704 467.307 61 467.307 61 462.477 63 462.477 63 466.307 62 465.307 66.1704 465.307ZM61 456.477 61 448.477 63 448.477 63 456.477ZM61 442.477 61 434.477 63 434.477 63 442.477ZM61 428.477 61 420.477 63 420.477 63 428.477ZM61 414.477 61 406.477 63 406.477 63 414.477ZM61 400.477 61 392.477 63 392.477 63 400.477ZM61 386.477 61 378.477 63 378.477 63 386.477ZM61 372.477 61 364.477 63 364.477 63 372.477ZM61 358.477 61 353.667 63 353.667 63 358.477ZM58 355 62 347 66 355Z" fill="#4472C4"/></g></svg>