<svg width="728" height="382" xmlns="http://www.w3.org/2000/svg" xmlns:xlink="http://www.w3.org/1999/xlink" overflow="hidden"><defs><clipPath id="clip0"><rect x="271" y="189" width="728" height="382"/></clipPath></defs><g clip-path="url(#clip0)" transform="translate(-271 -189)"><path d="M273.5 205.334C273.5 199.35 278.35 194.5 284.334 194.5L357.666 194.5C363.65 194.5 368.5 199.35 368.5 205.334L368.5 248.666C368.5 254.65 363.65 259.5 357.666 259.5L284.334 259.5C278.35 259.5 273.5 254.65 273.5 248.666Z" stroke="#000000" stroke-width="1.33333" stroke-linejoin="round" stroke-miterlimit="10" fill="#FFFFFF" fill-rule="evenodd"/><text font-family="SimSun,SimSun_MSFontService,sans-serif" font-weight="400" font-size="19" transform="translate(303.39 232)">物品</text><path d="M641.5 206.5C641.5 200.425 646.425 195.5 652.5 195.5L966.5 195.5C972.575 195.5 977.5 200.425 977.5 206.5L977.5 250.5C977.5 256.575 972.575 261.5 966.5 261.5L652.5 261.5C646.425 261.5 641.5 256.575 641.5 250.5Z" stroke="#000000" stroke-width="1.33333" stroke-linejoin="round" stroke-miterlimit="10" fill="#FFFFFF" fill-rule="evenodd"/><path d="M274.5 350.667C274.5 345.052 279.052 340.5 284.667 340.5L360.333 340.5C365.948 340.5 370.5 345.052 370.5 350.667L370.5 391.333C370.5 396.948 365.948 401.5 360.333 401.5L284.667 401.5C279.052 401.5 274.5 396.948 274.5 391.333Z" stroke="#000000" stroke-width="1.33333" stroke-linejoin="round" stroke-miterlimit="10" fill="#FFFFFF" fill-rule="evenodd"/><text font-family="SimSun,SimSun_MSFontService,sans-serif" font-weight="400" font-size="19" transform="translate(305.454 378)">用户<tspan font-family="Times New Roman,Times New Roman_MSFontService,sans-serif" font-size="19" x="351.361" y="-155">1516A,Tit for Tat:</tspan><tspan font-family="Times New Roman,Times New Roman_MSFontService,sans-serif" font-size="19" x="491.895" y="-155">800, greedy</tspan></text><path d="M368.005 226 376.005 226.04 375.995 228.04 367.995 228ZM382.005 226.07 390.005 226.11 389.995 228.11 381.995 228.07ZM396.005 226.14 404.005 226.18 403.995 228.18 395.995 228.14ZM410.004 226.21 418.004 226.25 417.994 228.25 409.994 228.21ZM424.004 226.28 432.004 226.32 431.994 228.32 423.994 228.28ZM438.004 226.351 446.004 226.391 445.994 228.391 437.994 228.35ZM452.004 226.421 460.004 226.461 459.994 228.461 451.994 228.421ZM466.004 226.491 474.004 226.531 473.994 228.531 465.994 228.491ZM480.004 226.561 488.004 226.601 487.993 228.601 479.994 228.561ZM494.003 226.631 502.003 226.671 501.993 228.671 493.993 228.631ZM508.003 226.701 516.003 226.741 515.993 228.741 507.993 228.701ZM522.003 226.771 530.003 226.811 529.993 228.811 521.993 228.771ZM536.003 226.841 544.003 226.881 543.993 228.881 535.993 228.841ZM550.003 226.911 558.003 226.951 557.993 228.951 549.993 228.911ZM564.003 226.981 572.002 227.021 571.992 229.021 563.992 228.981ZM578.002 227.052 586.002 227.092 585.992 229.092 577.992 229.051ZM592.002 227.122 600.002 227.162 599.992 229.162 591.992 229.122ZM606.002 227.192 614.002 227.232 613.992 229.232 605.992 229.192ZM620.002 227.262 628.002 227.302 627.992 229.302 619.992 229.262ZM634.002 227.332 634.331 227.334 634.321 229.334 633.992 229.332ZM633.013 224.327 640.993 228.367 632.973 232.327Z" fill="#ED7D31"/><text font-family="SimSun,SimSun_MSFontService,sans-serif" font-weight="400" font-size="19" transform="translate(379.28 214)">步骤<tspan font-size="19" x="37.3333" y="0">1</tspan><tspan font-size="19" x="46.6667" y="0">：给物品找一个特征</tspan><tspan font-family="Times New Roman,Times New Roman_MSFontService,sans-serif" font-size="19" x="277.535" y="33">1517A,Sum of 2050: 800, </tspan><tspan font-family="Times New Roman,Times New Roman_MSFontService,sans-serif" font-size="19" x="476.535" y="33">greedy#math</tspan></text><path d="M410.5 351.334C410.5 345.903 414.903 341.5 420.334 341.5L576.667 341.5C582.097 341.5 586.5 345.903 586.5 351.334L586.5 390.666C586.5 396.097 582.097 400.5 576.667 400.5L420.334 400.5C414.903 400.5 410.5 396.097 410.5 390.666Z" stroke="#000000" stroke-width="1.33333" stroke-linejoin="round" stroke-miterlimit="10" fill="#FFFFFF" fill-rule="evenodd"/><text font-family="SimSun,SimSun_MSFontService,sans-serif" font-weight="400" font-size="19" transform="translate(417.812 366)">行为的物品列表<tspan font-family="Times New Roman,Times New Roman_MSFontService,sans-serif" font-size="19" x="0" y="21">1516A,1517A…</tspan></text><path d="M2.60604e-06-1 8-0.999979 8 1.00002-2.60604e-06 1ZM14-0.999963 22-0.999943 22 1.00006 14 1.00004ZM28-0.999927 33.6193-0.999912 33.6193 1.00009 28 1.00007ZM32.286-3.99992 40.286 0.000104987 32.286 4.00008Z" fill="#ED7D31" transform="matrix(1 0 0 -1 370 370)"/><path d="M792.5 336.5C792.5 327.111 800.111 319.5 809.5 319.5L960.5 319.5C969.889 319.5 977.5 327.111 977.5 336.5L977.5 404.5C977.5 413.889 969.889 421.5 960.5 421.5L809.5 421.5C800.111 421.5 792.5 413.889 792.5 404.5Z" stroke="#000000" stroke-width="1.33333" stroke-linejoin="round" stroke-miterlimit="10" fill="#FFFFFF" fill-rule="evenodd"/><text font-family="SimSun,SimSun_MSFontService,sans-serif" font-weight="400" font-size="19" transform="translate(807.998 347)">用户偏好标签向量<tspan font-family="Times New Roman,Times New Roman_MSFontService,sans-serif" font-size="19" x="0" y="21">-</tspan><tspan font-family="Times New Roman,Times New Roman_MSFontService,sans-serif" font-size="19" x="18" y="21">800</tspan><tspan font-family="Times New Roman,Times New Roman_MSFontService,sans-serif" font-size="19" x="144.167" y="21">2</tspan><tspan font-family="Times New Roman,Times New Roman_MSFontService,sans-serif" font-size="19" x="0" y="44">-</tspan><tspan font-family="Times New Roman,Times New Roman_MSFontService,sans-serif" font-size="19" x="18" y="44">Greedy</tspan><tspan font-family="Times New Roman,Times New Roman_MSFontService,sans-serif" font-size="19" x="144.167" y="44">2</tspan><tspan font-family="Times New Roman,Times New Roman_MSFontService,sans-serif" font-size="19" x="0" y="66">-</tspan><tspan font-family="Times New Roman,Times New Roman_MSFontService,sans-serif" font-size="19" x="18" y="66">Math</tspan><tspan font-family="Times New Roman,Times New Roman_MSFontService,sans-serif" font-size="19" x="144.167" y="66">1</tspan></text><path d="M5.08486e-07-1 8-0.999996 8 1-5.08486e-07 1ZM14-0.999993 22-0.999989 22 1.00001 14 1.00001ZM28-0.999986 36-0.999982 36 1.00002 28 1.00001ZM42-0.999979 50-0.999975 50 1.00003 42 1.00002ZM56-0.999971 64-0.999967 64 1.00003 56 1.00003ZM70-0.999964 78-0.99996 78 1.00004 70 1.00004ZM84-0.999957 92-0.999953 92 1.00005 84 1.00004ZM98-0.99995 106-0.999946 106 1.00005 98 1.00005ZM112-0.999943 120-0.999939 120 1.00006 112 1.00006ZM126-0.999936 134-0.999932 134 1.00007 126 1.00006ZM140-0.999929 148-0.999925 148 1.00008 140 1.00007ZM154-0.999922 162-0.999918 162 1.00008 154 1.00008ZM168-0.999915 176-0.99991 176 1.00009 168 1.00009ZM182-0.999907 190-0.999903 190 1.0001 182 1.00009ZM196-0.9999 199.803-0.999898 199.803 1.0001 196 1.0001ZM198.47-3.9999 206.47 0.000104987 198.47 4.0001Z" fill="#ED7D31" transform="matrix(1 0 0 -1 586 370)"/><text font-family="SimSun,SimSun_MSFontService,sans-serif" font-weight="400" font-size="19" transform="translate(594.522 340)">步骤<tspan font-size="19" x="37.3334" y="0">2</tspan><tspan font-size="19" x="46.6667" y="0">：根据用户历史</tspan><tspan font-size="19" x="0" y="23">记录，聚合标签偏好</tspan></text><path d="M410.5 497.167C410.5 489.067 417.067 482.5 425.167 482.5L570.833 482.5C578.933 482.5 585.5 489.067 585.5 497.167L585.5 555.833C585.5 563.933 578.933 570.5 570.833 570.5L425.167 570.5C417.067 570.5 410.5 563.933 410.5 555.833Z" stroke="#000000" stroke-width="1.33333" stroke-linejoin="round" stroke-miterlimit="10" fill="#FFFFFF" fill-rule="evenodd"/><text font-family="SimSun,SimSun_MSFontService,sans-serif" font-weight="400" font-size="19" transform="translate(425.512 511)">用户推荐列表：<tspan font-family="Times New Roman,Times New Roman_MSFontService,sans-serif" font-size="19" x="0" y="21">1616</tspan><tspan font-family="Times New Roman,Times New Roman_MSFontService,sans-serif" font-size="19" x="39.2533" y="21">A</tspan><tspan font-family="Times New Roman,Times New Roman_MSFontService,sans-serif" font-size="19" x="120.887" y="21">0</tspan><tspan font-family="Times New Roman,Times New Roman_MSFontService,sans-serif" font-size="19" x="130.693" y="21">.</tspan><tspan font-family="Times New Roman,Times New Roman_MSFontService,sans-serif" font-size="19" x="135.833" y="21">9</tspan><tspan font-family="Times New Roman,Times New Roman_MSFontService,sans-serif" font-size="19" x="0" y="44">1617</tspan><tspan font-family="Times New Roman,Times New Roman_MSFontService,sans-serif" font-size="19" x="39.2533" y="44">A</tspan><tspan font-family="Times New Roman,Times New Roman_MSFontService,sans-serif" font-size="19" x="120.887" y="44">0</tspan><tspan font-family="Times New Roman,Times New Roman_MSFontService,sans-serif" font-size="19" x="130.693" y="44">.</tspan><tspan font-family="Times New Roman,Times New Roman_MSFontService,sans-serif" font-size="19" x="135.833" y="44">8</tspan></text><path d="M885.841 421 885.841 429 883.841 429 883.841 421ZM885.841 435 885.841 443 883.841 443 883.841 435ZM885.841 449 885.841 457 883.841 457 883.841 449ZM885.841 463 885.841 471 883.841 471 883.841 463ZM885.841 477 885.841 485 883.841 485 883.841 477ZM885.841 491 885.841 499 883.841 499 883.841 491ZM885.841 505 885.841 513 883.841 513 883.841 505ZM885.841 519 885.841 526.725 883.566 526.725 883.566 524.725 884.841 524.725 883.841 525.725 883.841 519ZM877.566 526.725 869.566 526.725 869.566 524.725 877.566 524.725ZM863.566 526.725 855.566 526.725 855.566 524.725 863.566 524.725ZM849.566 526.725 841.566 526.725 841.566 524.725 849.566 524.725ZM835.566 526.725 827.566 526.725 827.566 524.725 835.566 524.725ZM821.566 526.725 813.566 526.725 813.566 524.725 821.566 524.725ZM807.566 526.725 799.566 526.725 799.566 524.725 807.566 524.725ZM793.566 526.725 785.566 526.725 785.566 524.725 793.566 524.725ZM779.566 526.725 771.566 526.725 771.566 524.725 779.566 524.725ZM765.566 526.725 757.566 526.725 757.566 524.725 765.566 524.725ZM751.566 526.725 743.566 526.725 743.566 524.725 751.566 524.725ZM737.566 526.725 729.566 526.725 729.566 524.725 737.566 524.725ZM723.566 526.725 715.566 526.725 715.566 524.725 723.566 524.725ZM709.566 526.725 701.566 526.725 701.566 524.725 709.566 524.725ZM695.566 526.725 687.566 526.725 687.566 524.725 695.566 524.725ZM681.566 526.725 673.566 526.725 673.566 524.725 681.566 524.725ZM667.566 526.725 659.566 526.725 659.566 524.725 667.566 524.725ZM653.566 526.725 645.566 526.725 645.566 524.725 653.566 524.725ZM639.566 526.725 631.566 526.725 631.566 524.725 639.566 524.725ZM625.566 526.725 617.566 526.725 617.566 524.725 625.566 524.725ZM611.566 526.725 603.566 526.725 603.566 524.725 611.566 524.725ZM597.566 526.725 591.667 526.725 591.667 524.725 597.566 524.725ZM593 529.725 585 525.725 593 521.725Z" fill="#4472C4"/><text font-family="SimSun,SimSun_MSFontService,sans-serif" font-weight="400" font-size="19" transform="translate(595.951 471)">步骤<tspan font-size="19" x="37.3334" y="0">3</tspan><tspan font-size="19" x="46.6667" y="0">：使用余弦相似度算法</tspan><tspan font-size="19" x="0" y="23">计算用户标签向量最相似的</tspan><tspan font-size="19" x="0" y="45">TOPN</tspan><tspan font-size="19" x="37.3334" y="45">推荐列表</tspan></text><path d="M410.171 527.461 402.171 527.461 402.171 525.461 410.171 525.461ZM396.171 527.461 388.171 527.461 388.171 525.461 396.171 525.461ZM382.171 527.461 374.171 527.461 374.171 525.461 382.171 525.461ZM368.171 527.461 360.171 527.461 360.171 525.461 368.171 525.461ZM354.171 527.461 346.171 527.461 346.171 525.461 354.171 525.461ZM340.171 527.461 332.171 527.461 332.171 525.461 340.171 525.461ZM326.171 527.461 321 527.461 321 522.631 323 522.631 323 526.461 322 525.461 326.171 525.461ZM321 516.631 321 508.631 323 508.631 323 516.631ZM321 502.631 321 494.631 323 494.631 323 502.631ZM321 488.631 321 480.631 323 480.631 323 488.631ZM321 474.631 321 466.631 323 466.631 323 474.631ZM321 460.631 321 452.631 323 452.631 323 460.631ZM321 446.631 321 438.631 323 438.631 323 446.631ZM321 432.631 321 424.631 323 424.631 323 432.631ZM321 418.631 321 410.631 323 410.631 323 418.631ZM318 409 322 401 326 409Z" fill="#4472C4"/></g></svg>