<svg width="902" height="1259" xmlns="http://www.w3.org/2000/svg" xmlns:xlink="http://www.w3.org/1999/xlink" overflow="hidden"><defs><clipPath id="clip0"><rect x="292" y="222" width="902" height="1259"/></clipPath><clipPath id="clip1"><rect x="734" y="474" width="46" height="46"/></clipPath><clipPath id="clip2"><rect x="734" y="474" width="46" height="46"/></clipPath><clipPath id="clip3"><rect x="734" y="474" width="46" height="46"/></clipPath><clipPath id="clip4"><rect x="585" y="428" width="38" height="38"/></clipPath><clipPath id="clip5"><rect x="585" y="428" width="38" height="38"/></clipPath><clipPath id="clip6"><rect x="585" y="428" width="38" height="38"/></clipPath><clipPath id="clip7"><rect x="674" y="428" width="37" height="38"/></clipPath><clipPath id="clip8"><rect x="674" y="428" width="37" height="38"/></clipPath><clipPath id="clip9"><rect x="674" y="428" width="37" height="38"/></clipPath><clipPath id="clip10"><rect x="761" y="428" width="38" height="38"/></clipPath><clipPath id="clip11"><rect x="761" y="428" width="38" height="38"/></clipPath><clipPath id="clip12"><rect x="761" y="428" width="38" height="38"/></clipPath><clipPath id="clip13"><rect x="582" y="277" width="50" height="43"/></clipPath><clipPath id="clip14"><rect x="582" y="277" width="50" height="43"/></clipPath><clipPath id="clip15"><rect x="582" y="277" width="50" height="43"/></clipPath><clipPath id="clip16"><rect x="905" y="283" width="37" height="37"/></clipPath><clipPath id="clip17"><rect x="905" y="283" width="37" height="37"/></clipPath><clipPath id="clip18"><rect x="905" y="283" width="37" height="37"/></clipPath><clipPath id="clip19"><rect x="750" y="802" width="42" height="41"/></clipPath><clipPath id="clip20"><rect x="750" y="802" width="42" height="41"/></clipPath><clipPath id="clip21"><rect x="750" y="802" width="42" height="41"/></clipPath><clipPath id="clip22"><rect x="665" y="1066" width="49" height="49"/></clipPath><clipPath id="clip23"><rect x="665" y="1066" width="49" height="49"/></clipPath><clipPath id="clip24"><rect x="665" y="1066" width="49" height="49"/></clipPath><clipPath id="clip25"><rect x="674" y="886" width="44" height="44"/></clipPath><clipPath id="clip26"><rect x="674" y="886" width="44" height="44"/></clipPath><clipPath id="clip27"><rect x="674" y="886" width="44" height="44"/></clipPath><clipPath id="clip28"><rect x="613" y="1252" width="42" height="42"/></clipPath><clipPath id="clip29"><rect x="613" y="1252" width="42" height="42"/></clipPath><clipPath id="clip30"><rect x="613" y="1252" width="42" height="42"/></clipPath><clipPath id="clip31"><rect x="605" y="1321" width="47" height="47"/></clipPath><clipPath id="clip32"><rect x="605" y="1321" width="47" height="47"/></clipPath><clipPath id="clip33"><rect x="605" y="1321" width="47" height="47"/></clipPath></defs><g clip-path="url(#clip0)" transform="translate(-292 -222)"><path d="M503 591.501C503 563.058 526.058 540 554.501 540L1140.5 540C1168.94 540 1192 563.058 1192 591.501L1192 797.499C1192 825.942 1168.94 849 1140.5 849L554.501 849C526.058 849 503 825.942 503 797.499Z" stroke="#000000" stroke-width="2" stroke-miterlimit="8" stroke-dasharray="8 6 2 6" fill="#FFFFFF" fill-rule="evenodd"/><path d="M507 273.834C507 245.759 529.759 223 557.834 223L1142.17 223C1170.24 223 1193 245.759 1193 273.834L1193 477.166C1193 505.241 1170.24 528 1142.17 528L557.834 528C529.759 528 507 505.241 507 477.166Z" stroke="#000000" stroke-width="2" stroke-miterlimit="8" stroke-dasharray="8 6 2 6" fill="#FFFFFF" fill-rule="evenodd"/><path d="M297 250.5C297 235.312 309.312 223 324.5 223L434.5 223C449.688 223 462 235.312 462 250.5L462 500.5C462 515.688 449.688 528 434.5 528L324.5 528C309.312 528 297 515.688 297 500.5Z" stroke="#000000" stroke-width="2" stroke-miterlimit="8" stroke-dasharray="8 6 2 6" fill="#FFFFFF" fill-rule="evenodd"/><text font-family="SimSun,SimSun_MSFontService,sans-serif" font-weight="700" font-size="27" transform="translate(325.961 308)">数据收集<tspan font-size="27" x="26.8333" y="30">模块</tspan><tspan font-family="Times New Roman,Times New Roman_MSFontService,sans-serif" font-weight="400" font-size="27" x="14.4133" y="94">Golang</tspan><tspan font-weight="400" font-size="27" x="0.333344" y="126">日志文件</tspan><tspan font-family="Times New Roman,Times New Roman_MSFontService,sans-serif" font-weight="400" font-size="27" x="19.5" y="158">HDFS</tspan></text><g clip-path="url(#clip1)"><g clip-path="url(#clip2)"><g clip-path="url(#clip3)"><path d="M770.321 490.771C769.65 485.596 765.242 481.667 759.875 481.667 755.371 481.667 751.537 484.446 750.004 488.375L749.333 488.375C746.171 488.375 743.487 490.579 742.817 493.55 738.792 494.7 735.917 498.438 735.917 502.75 735.917 508.021 740.229 512.333 745.5 512.333L767.542 512.333C773.388 512.046 778.083 507.254 778.083 501.312 778.083 496.329 774.825 492.208 770.321 490.771ZM750.292 492.208C750.292 491.154 751.154 490.292 752.208 490.292L761.792 490.292C762.846 490.292 763.708 491.154 763.708 492.208L763.708 497.958C763.708 499.013 762.846 499.875 761.792 499.875L752.208 499.875C751.154 499.875 750.292 499.013 750.292 497.958L750.292 492.208ZM753.071 507.062C753.071 507.446 752.879 507.638 752.496 507.638 752.112 507.638 751.921 507.446 751.921 507.062L751.921 505.337 749.525 505.337 749.525 507.062C749.525 507.446 749.333 507.638 748.95 507.638 748.567 507.638 748.375 507.35 748.375 507.062L748.375 502.654C748.375 502.271 748.567 502.079 748.95 502.079 749.333 502.079 749.525 502.271 749.525 502.654L749.525 504.283 751.921 504.283 751.921 502.654C751.921 502.271 752.112 502.079 752.496 502.079 752.879 502.079 753.071 502.271 753.071 502.654L753.071 507.062ZM755.658 507.542 754.317 507.542C753.933 507.542 753.742 507.35 753.742 506.967L753.742 502.654C753.742 502.271 753.933 502.079 754.317 502.079L755.562 502.079C757.287 502.175 758.246 503.038 758.246 504.858 758.246 506.583 757.383 507.446 755.658 507.542ZM761.408 503.133 759.971 503.133 759.971 504.283 761.217 504.283C761.6 504.283 761.696 504.475 761.792 504.858 761.792 505.242 761.6 505.337 761.217 505.433L759.971 505.433 759.971 507.158C759.971 507.542 759.779 507.733 759.396 507.733 759.013 507.733 758.821 507.542 758.821 507.158L758.821 502.75C758.821 502.367 759.013 502.175 759.396 502.175L761.408 502.175C761.696 502.175 761.888 502.367 761.888 502.654 761.888 502.942 761.696 503.133 761.408 503.133ZM763.9 507.638C762.654 507.638 762.079 507.35 762.079 506.871 762.079 506.487 762.271 506.392 762.558 506.296 762.654 506.296 762.846 506.296 763.133 506.392 763.421 506.487 763.708 506.583 763.9 506.583 764.379 506.583 764.667 506.296 764.667 505.913 764.667 505.625 764.379 505.433 763.708 505.242 762.846 505.146 762.271 504.667 762.079 503.804 762.175 502.75 762.75 502.175 763.996 502.079 764.954 502.175 765.433 502.367 765.529 502.846 765.529 503.229 765.338 503.421 765.05 503.421 764.954 503.421 764.858 503.421 764.667 503.325 764.379 503.229 764.188 503.229 764.092 503.229 763.708 503.229 763.517 503.421 763.421 503.708 763.421 503.9 763.708 504.092 764.283 504.283 765.242 504.379 765.817 504.954 766.008 506.008 765.721 506.967 765.146 507.542 763.9 507.638ZM755.562 503.133 754.892 503.133 754.892 506.487 755.658 506.487C756.617 506.487 757.096 505.913 757.096 504.858 757.096 503.708 756.617 503.229 755.562 503.133Z" fill="#525252"/><path d="M760.737 492.4C760.354 492.017 759.779 492.017 759.396 492.4L756.042 495.754 754.7 494.413C754.317 494.029 753.742 494.029 753.358 494.413 752.975 494.796 752.975 495.371 753.358 495.754L755.371 497.767C755.754 498.15 756.329 498.15 756.713 497.767L760.737 493.742C761.121 493.454 761.121 492.783 760.737 492.4Z" fill="#525252"/></g></g></g><text font-family="SimSun,SimSun_MSFontService,sans-serif" font-weight="400" font-size="27" transform="translate(798.191 510)">分布式文件存储</text><path d="M850.5 250.5 852.307 456.721" stroke="#000000" stroke-miterlimit="8" stroke-dasharray="4 3" fill="none" fill-rule="evenodd"/><text font-family="SimSun,SimSun_MSFontService,sans-serif" font-weight="400" font-size="27" transform="translate(547.348 268)">离线<tspan font-size="27" x="319.382" y="0">在线</tspan></text><g clip-path="url(#clip4)"><g clip-path="url(#clip5)"><g clip-path="url(#clip6)"><path d="M2.67548 24.3962 35.3245 24.3962 35.3245 13.6038 2.67548 13.6038ZM28.5613 17.4128C29.378 17.4128 30.019 18.1113 30.0773 18.9364 30.0773 19.8253 29.4362 20.5234 28.6782 20.5868 27.9202 20.6501 27.2205 19.8887 27.1622 19.0636 27.1622 18.1747 27.8033 17.4128 28.5613 17.4128ZM23.8974 17.4128C24.4802 17.4128 25.0052 17.7954 25.2382 18.3651 25.4711 18.9348 25.3546 19.6345 24.947 20.0792 24.5454 20.5081 23.9278 20.6583 23.374 20.4618 22.8494 20.2067 22.4409 19.6362 22.4409 19.0015 22.4983 18.11 23.1394 17.4128 23.8974 17.4128ZM7.33946 17.4128 15.5017 17.4128 15.5017 20.5868 7.33946 20.5868ZM2.67548 36.6396C2.67548 37.391 3.28454 38 4.03587 38L33.9641 38C34.7155 38 35.3245 37.391 35.3245 36.6396L35.3245 27.2076 2.67548 27.2076ZM28.5613 31.0166C29.378 31.0166 30.019 31.715 30.0773 32.5402 30.0773 33.4291 29.4362 34.1272 28.6782 34.1905 27.9202 34.2538 27.2205 33.4925 27.1622 32.6673 27.1622 31.7784 27.8033 31.0166 28.5613 31.0166ZM23.8974 31.0166C24.4802 31.0166 25.0052 31.3992 25.2382 31.9689 25.4711 32.5385 25.3546 33.2383 24.947 33.6829 24.5454 34.1119 23.9278 34.2621 23.374 34.0656 22.8494 33.8105 22.4409 33.2399 22.4409 32.6053 22.4983 31.7138 23.1394 31.0166 23.8974 31.0166ZM7.33946 31.0166 15.5017 31.0166 15.5017 34.1905 7.33946 34.1905ZM33.9641 0 4.03587 0C3.28454 2.04949e-08 2.67548 0.609061 2.67548 1.36038L2.67548 10.7925 35.3245 10.7925 35.3245 1.36038C35.3245 0.609061 34.7155-4.81338e-08 33.9641-6.8629e-08ZM15.5021 6.98298 7.33986 6.98298 7.33986 3.80905 15.5021 3.80905ZM24.947 6.4754C24.5454 6.90431 23.9278 7.05453 23.374 6.858 22.8494 6.60295 22.4409 6.03243 22.4409 5.39771 22.4983 4.50627 23.1394 3.80905 23.8974 3.80905 24.4802 3.80905 25.0052 4.19165 25.2382 4.76132 25.4711 5.33098 25.3546 6.03072 24.947 6.4754ZM28.6782 6.98298C27.9202 7.04674 27.2205 6.28496 27.1622 5.45979 27.1622 4.57087 27.8033 3.80905 28.5613 3.80905 29.378 3.80905 30.019 4.50753 30.0773 5.33269 30.0773 6.22161 29.4362 6.91964 28.6782 6.98298Z" transform="matrix(-1 0 0 1 623 428)"/></g></g></g><g clip-path="url(#clip7)"><g clip-path="url(#clip8)"><g clip-path="url(#clip9)"><path d="M2.60507 23.7542 34.3949 23.7542 34.3949 13.2458 2.60507 13.2458ZM27.8097 16.9546C28.6049 16.9546 29.2291 17.6347 29.2858 18.4381 29.2858 19.3036 28.6616 19.9833 27.9235 20.045 27.1855 20.1067 26.5042 19.3653 26.4474 18.5619 26.4474 17.6964 27.0717 16.9546 27.8097 16.9546ZM23.2685 16.9546C23.836 16.9546 24.3472 17.3271 24.574 17.8818 24.8008 18.4365 24.6874 19.1178 24.2905 19.5508 23.8994 19.9684 23.2981 20.1147 22.7589 19.9233 22.2481 19.6749 21.8503 19.1195 21.8503 18.5014 21.9062 17.6334 22.5304 16.9546 23.2685 16.9546ZM7.14631 16.9546 15.0938 16.9546 15.0938 20.045 7.14631 20.045ZM2.60507 35.6754C2.60507 36.4071 3.1981 37 3.92966 37L33.0703 37C33.8019 37 34.3949 36.4071 34.3949 35.6754L34.3949 26.4916 2.60507 26.4916ZM27.8097 30.2003C28.6049 30.2003 29.2291 30.8804 29.2858 31.6839 29.2858 32.5494 28.6616 33.2291 27.9235 33.2908 27.1855 33.3524 26.5042 32.6111 26.4474 31.8076 26.4474 30.9421 27.0717 30.2003 27.8097 30.2003ZM23.2685 30.2003C23.836 30.2003 24.3472 30.5729 24.574 31.1276 24.8008 31.6822 24.6874 32.3636 24.2905 32.7965 23.8994 33.2142 23.2981 33.3605 22.7589 33.1691 22.2481 32.9207 21.8503 32.3652 21.8503 31.7472 21.9062 30.8792 22.5304 30.2003 23.2685 30.2003ZM7.14631 30.2003 15.0938 30.2003 15.0938 33.2908 7.14631 33.2908ZM33.0703 0 3.92966 0C3.1981 1.99556e-08 2.60507 0.593033 2.60507 1.32458L2.60507 10.5085 34.3949 10.5085 34.3949 1.32458C34.3949 0.593033 33.8019-4.68671e-08 33.0703-6.68229e-08ZM15.0942 6.79922 7.14671 6.79922 7.14671 3.70882 15.0942 3.70882ZM24.2905 6.305C23.8994 6.72262 23.2981 6.86888 22.7589 6.67752 22.2481 6.42918 21.8503 5.87368 21.8503 5.25566 21.9062 4.38768 22.5304 3.70882 23.2685 3.70882 23.836 3.70882 24.3472 4.08135 24.574 4.63602 24.8008 5.1907 24.6874 5.87202 24.2905 6.305ZM27.9235 6.79922C27.1855 6.8613 26.5042 6.11956 26.4474 5.31611 26.4474 4.45059 27.0717 3.70882 27.8097 3.70882 28.6049 3.70882 29.2291 4.38891 29.2858 5.19236 29.2858 6.05788 28.6616 6.73754 27.9235 6.79922Z" transform="matrix(-1 0 0 1.02703 711 428)"/></g></g></g><g clip-path="url(#clip10)"><g clip-path="url(#clip11)"><g clip-path="url(#clip12)"><path d="M2.67548 24.3962 35.3245 24.3962 35.3245 13.6038 2.67548 13.6038ZM28.5613 17.4128C29.378 17.4128 30.019 18.1113 30.0773 18.9364 30.0773 19.8253 29.4362 20.5234 28.6782 20.5868 27.9202 20.6501 27.2205 19.8887 27.1622 19.0636 27.1622 18.1747 27.8033 17.4128 28.5613 17.4128ZM23.8974 17.4128C24.4802 17.4128 25.0052 17.7954 25.2382 18.3651 25.4711 18.9348 25.3546 19.6345 24.947 20.0792 24.5454 20.5081 23.9278 20.6583 23.374 20.4618 22.8494 20.2067 22.4409 19.6362 22.4409 19.0015 22.4983 18.11 23.1394 17.4128 23.8974 17.4128ZM7.33946 17.4128 15.5017 17.4128 15.5017 20.5868 7.33946 20.5868ZM2.67548 36.6396C2.67548 37.391 3.28454 38 4.03587 38L33.9641 38C34.7155 38 35.3245 37.391 35.3245 36.6396L35.3245 27.2076 2.67548 27.2076ZM28.5613 31.0166C29.378 31.0166 30.019 31.715 30.0773 32.5402 30.0773 33.4291 29.4362 34.1272 28.6782 34.1905 27.9202 34.2538 27.2205 33.4925 27.1622 32.6673 27.1622 31.7784 27.8033 31.0166 28.5613 31.0166ZM23.8974 31.0166C24.4802 31.0166 25.0052 31.3992 25.2382 31.9689 25.4711 32.5385 25.3546 33.2383 24.947 33.6829 24.5454 34.1119 23.9278 34.2621 23.374 34.0656 22.8494 33.8105 22.4409 33.2399 22.4409 32.6053 22.4983 31.7138 23.1394 31.0166 23.8974 31.0166ZM7.33946 31.0166 15.5017 31.0166 15.5017 34.1905 7.33946 34.1905ZM33.9641 0 4.03587 0C3.28454 2.04949e-08 2.67548 0.609061 2.67548 1.36038L2.67548 10.7925 35.3245 10.7925 35.3245 1.36038C35.3245 0.609061 34.7155-4.81338e-08 33.9641-6.8629e-08ZM15.5021 6.98298 7.33986 6.98298 7.33986 3.80905 15.5021 3.80905ZM24.947 6.4754C24.5454 6.90431 23.9278 7.05453 23.374 6.858 22.8494 6.60295 22.4409 6.03243 22.4409 5.39771 22.4983 4.50627 23.1394 3.80905 23.8974 3.80905 24.4802 3.80905 25.0052 4.19165 25.2382 4.76132 25.4711 5.33098 25.3546 6.03072 24.947 6.4754ZM28.6782 6.98298C27.9202 7.04674 27.2205 6.28496 27.1622 5.45979 27.1622 4.57087 27.8033 3.80905 28.5613 3.80905 29.378 3.80905 30.019 4.50753 30.0773 5.33269 30.0773 6.22161 29.4362 6.91964 28.6782 6.98298Z" transform="matrix(-1 0 0 1 799 428)"/></g></g></g><g clip-path="url(#clip13)"><g clip-path="url(#clip14)"><g clip-path="url(#clip15)"><path d="M8.0625 13.4375C9.54676 13.4375 10.75 14.6407 10.75 16.125L10.75 34.9375C10.75 36.4218 9.54676 37.625 8.0625 37.625L2.6875 37.625C1.20579 37.625 0 36.421 0 34.9375L0 16.125C0 14.6415 1.20579 13.4375 2.6875 13.4375L8.0625 13.4375ZM24.1875 5.375C25.6718 5.375 26.875 6.57824 26.875 8.0625L26.875 34.9375C26.875 36.4218 25.6718 37.625 24.1875 37.625L18.8125 37.625C17.3308 37.625 16.125 36.421 16.125 34.9375L16.125 8.0625C16.125 6.579 17.3308 5.375 18.8125 5.375L24.1875 5.375ZM40.3125 18.8125C41.7968 18.8125 43 20.0157 43 21.5L43 34.9375C43 36.4218 41.7968 37.625 40.3125 37.625L34.9375 37.625C33.4532 37.625 32.25 36.4218 32.25 34.9375L32.25 21.5C32.25 20.0157 33.4532 18.8125 34.9375 18.8125L40.3125 18.8125Z" fill="#525252" transform="matrix(1.16279 0 0 1 582 277)"/></g></g></g><text font-family="Times New Roman,Times New Roman_MSFontService,sans-serif" font-weight="400" font-size="27" transform="translate(643.61 305)">Codeforces</text><rect x="579.5" y="332.5" width="227" height="42" stroke="#000000" stroke-linejoin="round" stroke-miterlimit="10" fill="none"/><text font-family="SimSun,SimSun_MSFontService,sans-serif" font-weight="400" font-size="27" transform="translate(599.175 365)">分布式数据爬取</text><path d="M0.260979-0.426485 3.67286 1.66135 3.1509 2.51432-0.260979 0.426485ZM6.23177 3.22723 9.64366 5.31506 9.1217 6.16803 5.70981 4.0802ZM12.2026 6.88094 15.6144 8.96877 15.0925 9.82175 11.6806 7.73391ZM18.1734 10.5347 21.5852 12.6225 21.0633 13.4755 17.6514 11.3876ZM24.1442 14.1884 27.556 16.2762 27.0341 17.1292 23.6222 15.0413ZM30.115 17.8421 33.5268 19.9299 33.0049 20.7829 29.593 18.695ZM36.0857 21.4958 39.4976 23.5836 38.9757 24.4366 35.5638 22.3488ZM42.0565 25.1495 45.4684 27.2373 44.9465 28.0903 41.5346 26.0025ZM48.0273 28.8032 51.4392 30.891 50.9173 31.744 47.5054 29.6562ZM53.9981 32.4569 57.41 34.5448 56.8881 35.3977 53.4762 33.3099ZM59.9689 36.1106 63.3808 38.1985 62.8588 39.0514 59.447 36.9636ZM65.9397 39.7644 69.3516 41.8522 68.8296 42.7052 65.4178 40.6173ZM71.9105 43.4181 75.3224 45.5059 74.8004 46.3589 71.3885 44.271ZM77.8813 47.0718 81.2932 49.1596 80.7712 50.0126 77.3593 47.9247ZM83.9348 46.6728 88.6708 54.2604 79.7592 53.4966Z" transform="matrix(-1 0 0 1 693.171 374.5)"/><path d="M694 374.5 694 378.5 693 378.5 693 374.5ZM694 381.5 694 385.5 693 385.5 693 381.5ZM694 388.5 694 392.5 693 392.5 693 388.5ZM694 395.5 694 399.5 693 399.5 693 395.5ZM694 402.5 694 406.5 693 406.5 693 402.5ZM694 409.5 694 413.5 693 413.5 693 409.5ZM694 416.5 694 420.5 693 420.5 693 416.5ZM697.5 420.76 693.5 428.76 689.5 420.76Z"/><path d="M693.763 374.075 697.164 376.181 696.638 377.031 693.237 374.925ZM699.715 377.76 703.116 379.866 702.589 380.716 699.188 378.61ZM705.666 381.445 709.067 383.551 708.541 384.401 705.14 382.295ZM711.618 385.13 715.019 387.236 714.492 388.086 711.091 385.98ZM717.569 388.815 720.97 390.921 720.444 391.771 717.043 389.665ZM723.521 392.5 726.922 394.606 726.395 395.456 722.995 393.35ZM729.473 396.185 732.873 398.291 732.347 399.141 728.946 397.035ZM735.424 399.87 738.825 401.976 738.299 402.826 734.898 400.72ZM741.376 403.555 744.776 405.661 744.25 406.511 740.849 404.405ZM747.327 407.24 750.728 409.346 750.202 410.196 746.801 408.09ZM753.279 410.925 756.68 413.031 756.153 413.881 752.752 411.775ZM759.23 414.61 762.631 416.716 762.105 417.566 758.704 415.46ZM765.182 418.295 768.583 420.401 768.056 421.251 764.655 419.145ZM771.133 421.98 774.534 424.086 774.008 424.936 770.607 422.83ZM776.439 421.148 781.135 428.76 772.227 427.95Z"/><path d="M693.5 309.5 693.5 332.264" stroke="#000000" stroke-miterlimit="8" stroke-dasharray="4 3" fill="none" fill-rule="evenodd"/><g clip-path="url(#clip16)"><g clip-path="url(#clip17)"><g clip-path="url(#clip18)"><path d="M932.41 299.95C933.697 299.95 934.936 300.167 936.089 300.564L936.089 285.62C936.089 284.207 934.943 283.065 933.534 283.065L908.433 283.065C907.02 283.065 905.878 284.21 905.878 285.62L905.878 315.725C905.878 317.138 907.023 318.28 908.433 318.28L923.623 318.28C922.069 316.347 921.137 313.894 921.137 311.22 921.137 304.998 926.185 299.95 932.41 299.95ZM910.069 291.408C910.069 290.508 910.799 289.782 911.695 289.782L929.939 289.782C930.839 289.782 931.565 290.512 931.565 291.408 931.565 292.308 930.835 293.034 929.939 293.034L911.695 293.034C910.799 293.034 910.069 292.308 910.069 291.408ZM910.069 299.401C910.069 298.501 910.799 297.775 911.695 297.775L922.365 297.775C923.265 297.775 923.991 298.505 923.991 299.401 923.991 300.3 923.262 301.027 922.365 301.027L911.695 301.027C910.799 301.027 910.069 300.3 910.069 299.401ZM919.858 307.393C919.858 308.293 919.128 309.019 918.232 309.019L911.695 309.019C910.796 309.019 910.069 308.289 910.069 307.393 910.069 306.494 910.799 305.767 911.695 305.767L918.232 305.767C919.128 305.767 919.858 306.497 919.858 307.393Z" fill="#666666"/><path d="M932.41 302.508C927.597 302.508 923.695 306.41 923.695 311.223 923.695 316.036 927.597 319.939 932.41 319.939 937.223 319.939 941.126 316.036 941.126 311.223 941.126 306.41 937.223 302.508 932.41 302.508ZM937.765 311.982C937.765 312.528 937.324 312.969 936.779 312.969L932.121 312.969C931.576 312.969 931.135 312.528 931.135 311.982L931.135 305.594C931.135 305.048 931.576 304.607 932.121 304.607 932.667 304.607 933.108 305.048 933.108 305.594L933.108 310.996 936.775 310.996C937.321 310.996 937.765 311.44 937.765 311.982Z" fill="#666666"/></g></g></g><text font-family="Times New Roman,Times New Roman_MSFontService,sans-serif" font-weight="400" font-size="27" transform="translate(954.201 307)">Zap<tspan font-family="SimSun,SimSun_MSFontService,sans-serif" font-size="27" x="41.5" y="0">日志</tspan></text><rect x="896.5" y="332.5" width="244" height="42" stroke="#000000" stroke-linejoin="round" stroke-miterlimit="10" fill="none"/><text font-family="SimSun,SimSun_MSFontService,sans-serif" font-weight="400" font-size="27" transform="translate(911.456 363)">日志分割与预处理</text><rect x="896.5" y="426.5" width="244" height="42" stroke="#000000" stroke-linejoin="round" stroke-miterlimit="10" fill="none"/><text font-family="SimSun,SimSun_MSFontService,sans-serif" font-weight="400" font-size="27" transform="translate(964.484 459)">数据落盘</text><path d="M0.499991-0.00294932 0.523586 3.99698-0.476397 4.00288-0.499991 0.00294932ZM0.541282 6.99693 0.564876 10.9969-0.435106 11.0028-0.458701 7.00283ZM0.582572 13.9968 0.606167 17.9967-0.393816 18.0026-0.41741 14.0027ZM0.623863 20.9967 0.647457 24.9966-0.352525 25.0025-0.37612 21.0026ZM0.665153 27.9966 0.688748 31.9965-0.311235 32.0024-0.334829 28.0025ZM0.706444 34.9964 0.730038 38.9964-0.269944 39.0023-0.293539 35.0023ZM0.747734 41.9963 0.765444 44.9986-0.234539 45.0045-0.252248 42.0022ZM4.25752 43.6447 0.304777 51.6681-3.74234 43.6919Z" transform="matrix(-1 0 0 1 1018.8 374.5)"/><text font-family="SimSun,SimSun_MSFontService,sans-serif" font-weight="400" font-size="27" transform="translate(559.12 580)">Spark<tspan font-size="27" x="66.6667" y="0">离线处理</tspan></text><path d="M879.5 635.334C879.5 617.753 893.753 603.5 911.334 603.5L1133.67 603.5C1151.25 603.5 1165.5 617.753 1165.5 635.334L1165.5 762.666C1165.5 780.247 1151.25 794.5 1133.67 794.5L911.334 794.5C893.753 794.5 879.5 780.247 879.5 762.666Z" stroke="#000000" stroke-linejoin="round" stroke-miterlimit="10" fill="none" fill-rule="evenodd"/><rect x="920.5" y="729.5" width="192" height="42" stroke="#000000" stroke-linejoin="round" stroke-miterlimit="10" stroke-dasharray="3 1" fill="#FFFFFF"/><text font-family="Times New Roman,Times New Roman_MSFontService,sans-serif" font-weight="400" font-size="27" transform="translate(965.094 760)">Item2Vec</text><rect x="919.5" y="662.5" width="193" height="42" stroke="#000000" stroke-linejoin="round" stroke-miterlimit="10" stroke-dasharray="3 1" fill="#FFFFFF"/><text font-family="Times New Roman,Times New Roman_MSFontService,sans-serif" font-weight="400" font-size="27" transform="translate(935.752 692)">One-<tspan font-size="27" x="53.3334" y="0">Hot</tspan><tspan font-family="SimSun,SimSun_MSFontService,sans-serif" font-size="27" x="106.667" y="0">编码</tspan><tspan font-size="27" x="-42.653" y="-53">Spark </tspan><tspan font-size="27" x="26.1804" y="-53">Mllib</tspan><tspan font-size="27" x="-125.389" y="139">Redis </tspan><tspan font-family="SimSun,SimSun_MSFontService,sans-serif" font-size="27" x="-58.0555" y="139">缓存</tspan></text><g clip-path="url(#clip19)"><g clip-path="url(#clip20)"><g clip-path="url(#clip21)"><path d="M40.9916 24.4975C40.9744 24.8887 40.4567 25.326 39.3942 25.8813 37.2075 27.0207 25.871 31.6828 23.4588 32.9401 21.045 34.1974 19.7056 34.1855 17.7991 33.2732 15.8926 32.3627 3.83179 27.4888 1.65879 26.4518 0.574 25.9325 0.0205 25.4952 0.00170835 25.0818L0.00170835 29.2262C0.00170835 29.6396 0.57229 30.0786 1.65879 30.598 3.83179 31.6366 15.8943 36.5088 17.7991 37.4193 19.7056 38.3316 21.045 38.3435 23.4588 37.0845 25.871 35.8272 37.2058 31.1668 39.3942 30.0257 40.5063 29.4465 41 28.9955 41 28.5872L41 24.5009 40.9916 24.4975ZM40.9916 17.741C40.9708 18.1322 40.4551 18.5679 39.3942 19.1231 37.2075 20.2625 25.871 24.9246 23.4588 26.1819 21.045 27.4393 19.7056 27.4273 17.7991 26.5167 15.8926 25.6062 3.83179 20.7323 1.65879 19.6937 0.574 19.176 0.0205 18.737 0.00170835 18.3253L0.00170835 22.4697C0.00170835 22.8831 0.57229 23.3205 1.65879 23.8398 3.83179 24.8785 15.8926 29.7506 17.7991 30.6612 19.7056 31.5734 21.045 31.5854 23.4588 30.328 25.871 29.0707 37.2058 24.4087 39.3942 23.2692 40.5063 22.6884 41 22.2374 41 21.8291L41 17.7428 40.9896 17.741ZM40.9916 10.7335C41.0104 10.3166 40.4655 9.95103 39.3685 9.54788 37.2365 8.76715 25.9701 4.28278 23.8125 3.49183 21.6548 2.70258 20.7767 2.73504 18.2433 3.64558 15.7047 4.55272 3.70879 9.25915 1.57508 10.0928 0.507375 10.5131-0.0136667 10.9009 0.00341665 11.3143L0.00341665 15.4604C0.00341665 15.8738 0.574 16.3112 1.6605 16.8305 3.8335 17.8692 15.8943 22.743 17.8008 23.6536 19.7073 24.5641 21.0467 24.5761 23.4605 23.3188 25.8727 22.0614 37.2075 17.3994 39.3959 16.2599 40.5079 15.6791 41.0016 15.2281 41.0016 14.8198L41.0016 10.7335 40.988 10.7335ZM14.6814 14.6575 24.1815 13.1986 21.3115 17.4062 14.6831 14.6575ZM35.6939 10.8684 30.0752 13.0892 29.4653 13.3284 23.85 11.1076 30.0718 8.6476 35.6922 10.8684ZM19.1982 6.79747 18.2792 5.10278 21.1458 6.22347 23.8483 5.33853 23.1172 7.0896 25.871 8.1214 22.3194 8.4904 21.5233 10.4037 20.2386 8.27003 16.1386 7.90103 19.1982 6.79747ZM12.1206 9.18913C14.9257 9.18913 17.1978 10.0689 17.1978 11.1554 17.1978 12.2419 14.9257 13.1234 12.1206 13.1234 9.31553 13.1234 7.04175 12.2402 7.04175 11.1554 7.04175 10.0689 9.31553 9.1874 12.1206 9.1874Z" fill="#525252" transform="matrix(1.02439 0 0 1 750 802)"/></g></g></g><path d="M298 567.5C298 552.312 310.312 540 325.501 540L435.499 540C450.688 540 463 552.312 463 567.5L463 821.5C463 836.688 450.688 849 435.499 849L325.501 849C310.312 849 298 836.688 298 821.5Z" stroke="#000000" stroke-width="2" stroke-miterlimit="8" stroke-dasharray="8 6 2 6" fill="#FFFFFF" fill-rule="evenodd"/><text font-family="SimSun,SimSun_MSFontService,sans-serif" font-weight="700" font-size="27" transform="translate(326.569 658)">分布式处<tspan font-size="27" x="13.4133" y="30">理模块</tspan><tspan font-family="Times New Roman,Times New Roman_MSFontService,sans-serif" font-weight="400" font-size="27" x="22.58" y="94">Spark</tspan></text><path d="M550.5 634.334C550.5 616.753 564.753 602.5 582.334 602.5L803.666 602.5C821.247 602.5 835.5 616.753 835.5 634.334L835.5 761.666C835.5 779.247 821.247 793.5 803.666 793.5L582.334 793.5C564.753 793.5 550.5 779.247 550.5 761.666Z" stroke="#000000" stroke-linejoin="round" stroke-miterlimit="10" fill="none" fill-rule="evenodd"/><rect x="590.5" y="728.5" width="193" height="42" stroke="#000000" stroke-linejoin="round" stroke-miterlimit="10" stroke-dasharray="3 1" fill="#FFFFFF"/><text font-family="SimSun,SimSun_MSFontService,sans-serif" font-weight="400" font-size="27" transform="translate(633.256 758)">数据分析</text><rect x="590.5" y="660.5" width="193" height="42" stroke="#000000" stroke-linejoin="round" stroke-miterlimit="10" stroke-dasharray="3 1" fill="#FFFFFF"/><text font-family="SimSun,SimSun_MSFontService,sans-serif" font-weight="400" font-size="27" transform="translate(632.891 693)">数据清洗<tspan font-family="Times New Roman,Times New Roman_MSFontService,sans-serif" font-size="27" x="-69.3197" y="-55">Spark </tspan><tspan font-family="Times New Roman,Times New Roman_MSFontService,sans-serif" font-size="27" x="-0.486389" y="-55">SQL</tspan></text><path d="M503 909.001C503 885.252 522.252 866 546.001 866L1149 866C1172.75 866 1192 885.252 1192 909.001L1192 1081C1192 1104.75 1172.75 1124 1149 1124L546.001 1124C522.252 1124 503 1104.75 503 1081Z" stroke="#000000" stroke-width="2" stroke-miterlimit="8" stroke-dasharray="8 6 2 6" fill="#FFFFFF" fill-rule="evenodd"/><text font-family="SimSun,SimSun_MSFontService,sans-serif" font-weight="400" font-size="27" transform="translate(555.746 916)">模型训练</text><path d="M297 895.5C297 880.312 309.312 868 324.5 868L434.5 868C449.688 868 462 880.312 462 895.5L462 1097.5C462 1112.69 449.688 1125 434.5 1125L324.5 1125C309.312 1125 297 1112.69 297 1097.5Z" stroke="#000000" stroke-width="2" stroke-miterlimit="8" stroke-dasharray="8 6 2 6" fill="#FFFFFF" fill-rule="evenodd"/><text font-family="SimSun,SimSun_MSFontService,sans-serif" font-weight="700" font-size="27" transform="translate(325.961 959)">推荐<tspan font-size="27" x="53.6667" y="0">模块</tspan><tspan font-family="Times New Roman,Times New Roman_MSFontService,sans-serif" font-weight="400" font-size="27" x="-9.82001" y="64">TensorFlow</tspan></text><g clip-path="url(#clip22)"><g clip-path="url(#clip23)"><g clip-path="url(#clip24)"><path d="M687.731 1098.19 685.409 1098.19 684.485 1095.79 680.265 1095.79 679.39 1098.19 677.127 1098.19 681.242 1087.63 683.483 1087.63ZM683.801 1094 682.347 1090.08 680.92 1094ZM688.864 1098.19 688.864 1087.63 692.286 1087.63C693.135 1087.59 693.984 1087.65 694.822 1087.79 695.431 1087.95 695.967 1088.31 696.342 1088.82 696.771 1089.42 696.986 1090.14 696.954 1090.88 696.976 1091.44 696.854 1092.01 696.599 1092.52 696.39 1092.93 696.082 1093.29 695.703 1093.56 695.375 1093.8 695.003 1093.97 694.61 1094.07 693.886 1094.18 693.155 1094.23 692.423 1094.21L690.995 1094.21 690.995 1098.2ZM690.995 1089.45 690.995 1092.44 692.16 1092.44C692.728 1092.47 693.297 1092.42 693.849 1092.28 694.12 1092.18 694.354 1092 694.519 1091.76 694.68 1091.52 694.764 1091.23 694.759 1090.94 694.779 1090.58 694.657 1090.23 694.42 1089.96 694.196 1089.71 693.892 1089.54 693.559 1089.49 693.049 1089.43 692.536 1089.41 692.023 1089.42ZM698.643 1098.19 698.643 1087.63 700.775 1087.63 700.775 1098.19Z" fill="#2C2C2C"/><path d="M701.47 1105.05 690.164 1105.05 690.164 1102.53 701.47 1102.53C704.724 1102.53 707.313 1101.11 708.773 1098.51 710.377 1095.5 710.306 1091.87 708.587 1088.92 706.838 1086.04 703.667 1084.54 699.638 1084.67L698.342 1084.72 698.342 1083.41C698.342 1080.67 697.429 1078.39 695.713 1076.85 694.086 1075.43 691.992 1074.67 689.836 1074.71 685.589 1074.71 680.84 1077.44 680.84 1083.42L680.84 1084.71 679.517 1084.64C675.423 1084.44 672.197 1085.89 670.415 1088.74 668.676 1091.63 668.59 1095.22 670.191 1098.19 671.737 1100.98 674.565 1102.52 678.173 1102.52L682.737 1102.52 682.737 1105.03 678.171 1105.03C673.682 1105.03 669.971 1102.98 667.992 1099.41 665.945 1095.64 666.054 1091.06 668.279 1087.39 670.373 1084.04 673.925 1082.18 678.381 1082.09 678.998 1075.6 684.537 1072.18 689.834 1072.18 692.614 1072.14 695.311 1073.14 697.4 1074.97 699.413 1076.84 700.631 1079.41 700.801 1082.15 705.174 1082.32 708.684 1084.23 710.734 1087.62 712.944 1091.34 713.031 1095.95 710.963 1099.75 709.067 1103.11 705.604 1105.05 701.468 1105.05Z" fill="#2C2C2C"/><path d="M688.256 1103.8 692.63 1107.08 692.63 1100.52Z" fill="#2C2C2C"/></g></g></g><text font-family="Times New Roman,Times New Roman_MSFontService,sans-serif" font-weight="400" font-size="27" transform="translate(730.472 1100)">gRPC<tspan font-family="SimSun,SimSun_MSFontService,sans-serif" font-size="27" x="63.8334" y="0">或</tspan><tspan font-size="27" x="90.5" y="0">RESTful API</tspan><tspan font-family="SimSun,SimSun_MSFontService,sans-serif" font-size="27" x="233.527" y="0">调用</tspan></text><path d="M503 1204.83C503 1174.55 527.55 1150 557.834 1150L1137.17 1150C1167.45 1150 1192 1174.55 1192 1204.83L1192 1424.17C1192 1454.45 1167.45 1479 1137.17 1479L557.834 1479C527.55 1479 503 1454.45 503 1424.17Z" stroke="#000000" stroke-width="2" stroke-miterlimit="8" stroke-dasharray="8 6 2 6" fill="#FFFFFF" fill-rule="evenodd"/><path d="M294 1177.5C294 1162.31 306.312 1150 321.501 1150L431.499 1150C446.688 1150 459 1162.31 459 1177.5L459 1451.5C459 1466.69 446.688 1479 431.499 1479L321.501 1479C306.312 1479 294 1466.69 294 1451.5Z" stroke="#000000" stroke-width="2" stroke-miterlimit="8" stroke-dasharray="8 6 2 6" fill="#FFFFFF" fill-rule="evenodd"/><text font-family="SimSun,SimSun_MSFontService,sans-serif" font-weight="700" font-size="27" transform="translate(322.596 1228)">业务<tspan font-size="27" x="53.6667" y="0">模块</tspan><tspan font-family="Times New Roman,Times New Roman_MSFontService,sans-serif" font-weight="400" font-size="27" x="33.6667" y="64">Gin</tspan><tspan font-family="Times New Roman,Times New Roman_MSFontService,sans-serif" font-weight="400" font-size="27" x="32.2133" y="96">Vue</tspan><tspan font-family="Times New Roman,Times New Roman_MSFontService,sans-serif" font-weight="400" font-size="27" x="9.91333" y="128">MySQL</tspan><tspan font-family="Times New Roman,Times New Roman_MSFontService,sans-serif" font-weight="400" font-size="27" x="23.3333" y="160">Redis</tspan></text><path d="M551.5 1327C551.5 1321.75 555.754 1317.5 561 1317.5L1153 1317.5C1158.25 1317.5 1162.5 1321.75 1162.5 1327L1162.5 1365C1162.5 1370.25 1158.25 1374.5 1153 1374.5L561 1374.5C555.754 1374.5 551.5 1370.25 551.5 1365Z" stroke="#000000" stroke-width="1.33333" stroke-miterlimit="8" stroke-dasharray="4 1.33333" fill="#FFFFFF" fill-rule="evenodd"/><text font-family="Times New Roman,Times New Roman_MSFontService,sans-serif" font-weight="400" font-size="27" transform="translate(834.761 1354)">Gin</text><path d="M549.5 1254C549.5 1248.75 553.753 1244.5 559 1244.5L1153 1244.5C1158.25 1244.5 1162.5 1248.75 1162.5 1254L1162.5 1292C1162.5 1297.25 1158.25 1301.5 1153 1301.5L559 1301.5C553.753 1301.5 549.5 1297.25 549.5 1292Z" stroke="#000000" stroke-width="1.33333" stroke-miterlimit="8" stroke-dasharray="4 1.33333" fill="#FFFFFF" fill-rule="evenodd"/><text font-family="Times New Roman,Times New Roman_MSFontService,sans-serif" font-weight="400" font-size="27" transform="translate(832.315 1282)">Vue</text><path d="M534.5 1181.33C534.5 1175.9 538.903 1171.5 544.333 1171.5L720.667 1171.5C726.097 1171.5 730.5 1175.9 730.5 1181.33L730.5 1220.67C730.5 1226.1 726.097 1230.5 720.667 1230.5L544.333 1230.5C538.903 1230.5 534.5 1226.1 534.5 1220.67Z" stroke="#000000" stroke-width="1.33333" stroke-miterlimit="8" stroke-dasharray="4 1.33333" fill="#FFFFFF" fill-rule="evenodd"/><text font-family="SimSun,SimSun_MSFontService,sans-serif" font-weight="400" font-size="27" transform="translate(573.636 1212)">个人训练</text><path d="M754.5 1182.17C754.5 1176.83 758.828 1172.5 764.167 1172.5L940.833 1172.5C946.172 1172.5 950.5 1176.83 950.5 1182.17L950.5 1220.83C950.5 1226.17 946.172 1230.5 940.833 1230.5L764.167 1230.5C758.828 1230.5 754.5 1226.17 754.5 1220.83Z" stroke="#000000" stroke-width="1.33333" stroke-miterlimit="8" stroke-dasharray="4 1.33333" fill="#FFFFFF" fill-rule="evenodd"/><text font-family="SimSun,SimSun_MSFontService,sans-serif" font-weight="400" font-size="27" transform="translate(793.733 1213)">组队推荐</text><path d="M973.5 1182.17C973.5 1176.83 977.828 1172.5 983.167 1172.5L1159.83 1172.5C1165.17 1172.5 1169.5 1176.83 1169.5 1182.17L1169.5 1220.83C1169.5 1226.17 1165.17 1230.5 1159.83 1230.5L983.167 1230.5C977.828 1230.5 973.5 1226.17 973.5 1220.83Z" stroke="#000000" stroke-width="1.33333" stroke-miterlimit="8" stroke-dasharray="4 1.33333" fill="#FFFFFF" fill-rule="evenodd"/><text font-family="SimSun,SimSun_MSFontService,sans-serif" font-weight="400" font-size="27" transform="translate(1005.13 1213)">可视化分析</text><path d="M535.5 1407.17C535.5 1401.83 539.828 1397.5 545.167 1397.5L720.833 1397.5C726.172 1397.5 730.5 1401.83 730.5 1407.17L730.5 1445.83C730.5 1451.17 726.172 1455.5 720.833 1455.5L545.167 1455.5C539.828 1455.5 535.5 1451.17 535.5 1445.83Z" stroke="#000000" stroke-width="1.33333" stroke-miterlimit="8" fill="#FFFFFF" fill-rule="evenodd"/><text font-family="Times New Roman,Times New Roman_MSFontService,sans-serif" font-weight="400" font-size="27" transform="translate(589.959 1434)">MySQL</text><path d="M759.5 1409C759.5 1403.75 763.753 1399.5 769 1399.5L946 1399.5C951.247 1399.5 955.5 1403.75 955.5 1409L955.5 1447C955.5 1452.25 951.247 1456.5 946 1456.5L769 1456.5C763.753 1456.5 759.5 1452.25 759.5 1447Z" stroke="#000000" stroke-width="1.33333" stroke-miterlimit="8" fill="#FFFFFF" fill-rule="evenodd"/><text font-family="Times New Roman,Times New Roman_MSFontService,sans-serif" font-weight="400" font-size="27" transform="translate(828.077 1435)">Redis</text><path d="M975.5 1409C975.5 1403.75 979.753 1399.5 985 1399.5L1161 1399.5C1166.25 1399.5 1170.5 1403.75 1170.5 1409L1170.5 1447C1170.5 1452.25 1166.25 1456.5 1161 1456.5L985 1456.5C979.753 1456.5 975.5 1452.25 975.5 1447Z" stroke="#000000" stroke-width="1.33333" stroke-miterlimit="8" fill="#FFFFFF" fill-rule="evenodd"/><text font-family="Times New Roman,Times New Roman_MSFontService,sans-serif" font-weight="400" font-size="27" transform="translate(1039.34 1435)">HDFS</text><g clip-path="url(#clip25)"><g clip-path="url(#clip26)"><g clip-path="url(#clip27)"><path d="M35.9333 22 36.1167 30.6167 30.4333 27.3167 30.4333 39.6 22.9167 44 22.9167 0 41.6167 10.8167 41.6167 20.5333 30.4333 13.9333 30.4333 18.8833ZM2.38333 10.8167 21.0833 0 21.0833 44 13.5667 39.6 13.5667 13.9333 2.38333 20.5333Z" fill="#525252" transform="matrix(-1 0 0 1 718 886)"/></g></g></g><path d="M559.5 962.667C559.5 953.186 567.186 945.5 576.667 945.5L809.333 945.5C818.814 945.5 826.5 953.186 826.5 962.667L826.5 1031.33C826.5 1040.81 818.814 1048.5 809.333 1048.5L576.667 1048.5C567.186 1048.5 559.5 1040.81 559.5 1031.33Z" stroke="#000000" stroke-width="1.33333" stroke-miterlimit="8" fill="#FFFFFF" fill-rule="evenodd"/><text font-family="Times New Roman,Times New Roman_MSFontService,sans-serif" font-weight="400" font-size="27" transform="translate(637.399 990)">NeaulCF<tspan font-family="SimSun,SimSun_MSFontService,sans-serif" font-size="27" x="0" y="34">模型训练</tspan></text><path d="M879.5 963.667C879.5 954.186 887.186 946.5 896.667 946.5L1130.33 946.5C1139.81 946.5 1147.5 954.186 1147.5 963.667L1147.5 1032.33C1147.5 1041.81 1139.81 1049.5 1130.33 1049.5L896.667 1049.5C887.186 1049.5 879.5 1041.81 879.5 1032.33Z" stroke="#000000" stroke-width="1.33333" stroke-miterlimit="8" fill="#FFFFFF" fill-rule="evenodd"/><text font-family="Times New Roman,Times New Roman_MSFontService,sans-serif" font-weight="400" font-size="27" transform="translate(900.303 992)">TensorFlow Serving<tspan font-family="SimSun,SimSun_MSFontService,sans-serif" font-size="27" x="65" y="34">模型服务</tspan></text><g clip-path="url(#clip28)"><g clip-path="url(#clip29)"><g clip-path="url(#clip30)"><path d="M634 1272.67 644.369 1254.82 638.856 1254.82 634 1263.29 629.144 1254.89 623.631 1254.89 634 1272.67ZM646.6 1254.89 634 1276.61 621.4 1254.82 613 1254.82 634 1291.18 655 1254.89 646.6 1254.89Z" fill="#525252"/></g></g></g><g clip-path="url(#clip31)"><g clip-path="url(#clip32)"><g clip-path="url(#clip33)"><path d="M608.547 1341.98C608.455 1341.98 608.433 1341.94 608.478 1341.87L608.96 1341.25C609.005 1341.18 609.118 1341.14 609.21 1341.14L617.381 1341.14C617.471 1341.14 617.494 1341.21 617.449 1341.27L617.059 1341.87C617.014 1341.94 616.899 1342.01 616.83 1342.01L608.547 1341.98ZM605.092 1344.09C605 1344.09 604.977 1344.04 605.023 1343.98L605.503 1343.36C605.548 1343.29 605.664 1343.24 605.756 1343.24L616.19 1343.24C616.282 1343.24 616.327 1343.31 616.304 1343.38L616.121 1343.93C616.098 1344.02 616.008 1344.07 615.916 1344.07L605.092 1344.09ZM610.63 1346.19C610.538 1346.19 610.515 1346.13 610.562 1346.06L610.881 1345.48C610.926 1345.42 611.018 1345.35 611.11 1345.35L615.687 1345.35C615.779 1345.35 615.824 1345.42 615.824 1345.51L615.779 1346.06C615.779 1346.15 615.687 1346.22 615.618 1346.22L610.63 1346.19ZM634.383 1341.57C632.942 1341.94 631.956 1342.21 630.539 1342.58 630.194 1342.67 630.172 1342.69 629.873 1342.35 629.532 1341.96 629.279 1341.71 628.8 1341.48 627.356 1340.77 625.96 1340.98 624.658 1341.82 623.101 1342.83 622.3 1344.32 622.323 1346.17 622.345 1348 623.604 1349.51 625.412 1349.76 626.969 1349.97 628.271 1349.42 629.303 1348.25 629.509 1348 629.691 1347.73 629.92 1347.41L625.504 1347.41C625.024 1347.41 624.908 1347.11 625.069 1346.72 625.367 1346.01 625.915 1344.82 626.236 1344.23 626.336 1344 626.561 1343.86 626.808 1343.86L635.137 1343.86C635.092 1344.48 635.092 1345.1 635 1345.71 634.763 1347.34 634.117 1348.89 633.124 1350.2 631.477 1352.37 629.324 1353.72 626.602 1354.09 624.36 1354.39 622.276 1353.95 620.447 1352.58 618.753 1351.3 617.792 1349.6 617.541 1347.5 617.244 1345 617.976 1342.76 619.486 1340.79 621.111 1338.67 623.261 1337.31 625.893 1336.84 628.044 1336.45 630.104 1336.7 631.956 1337.96 633.171 1338.76 634.038 1339.85 634.612 1341.18 634.749 1341.39 634.657 1341.5 634.383 1341.57M641.958 1354.23C639.874 1354.18 637.974 1353.58 636.372 1352.21 635.04 1351.09 634.161 1349.52 633.901 1347.8 633.49 1345.21 634.199 1342.92 635.756 1340.88 637.426 1338.69 639.439 1337.54 642.163 1337.06 644.498 1336.65 646.695 1336.88 648.685 1338.23 650.492 1339.47 651.614 1341.14 651.912 1343.33 652.3 1346.42 651.408 1348.94 649.28 1351.09 647.77 1352.63 645.915 1353.58 643.787 1354.02 643.17 1354.14 642.553 1354.16 641.958 1354.23ZM647.402 1344.98C647.38 1344.68 647.38 1344.45 647.335 1344.23 646.924 1341.96 644.84 1340.68 642.667 1341.18 640.538 1341.66 639.165 1343.01 638.662 1345.16 638.251 1346.95 639.12 1348.76 640.767 1349.49 642.026 1350.04 643.283 1349.97 644.498 1349.35 646.305 1348.41 647.288 1346.95 647.404 1344.98Z" fill="#525252"/></g></g></g></g></svg>