<svg width="981" height="409" xmlns="http://www.w3.org/2000/svg" xmlns:xlink="http://www.w3.org/1999/xlink" overflow="hidden"><defs><clipPath id="clip0"><rect x="87" y="46" width="981" height="409"/></clipPath></defs><g clip-path="url(#clip0)" transform="translate(-87 -46)"><path d="M185 392.167C185 385.447 190.447 380 197.167 380L346.833 380C353.553 380 359 385.447 359 392.167L359 440.833C359 447.553 353.553 453 346.833 453L197.167 453C190.447 453 185 447.553 185 440.833Z" stroke="#4472C4" stroke-width="2" stroke-miterlimit="8" fill="#FFFFFF" fill-rule="evenodd"/><text font-family="SimSun,SimSun_MSFontService,sans-serif" font-weight="400" font-size="24" transform="translate(200.201 427)">数据收集模块</text><path d="M185 73.1669C185 66.4473 190.447 61 197.167 61L346.833 61C353.553 61 359 66.4473 359 73.1669L359 121.833C359 128.553 353.553 134 346.833 134L197.167 134C190.447 134 185 128.553 185 121.833Z" stroke="#4472C4" stroke-width="2" stroke-miterlimit="8" fill="#FFFFFF" fill-rule="evenodd"/><text font-family="SimSun,SimSun_MSFontService,sans-serif" font-weight="400" font-size="24" transform="translate(200.201 108)">系统业务模块<tspan font-size="24" x="300.067" y="-29">返回</tspan>推荐列表</text><path d="M785 392.167C785 385.447 790.447 380 797.167 380L947.833 380C954.553 380 960 385.447 960 392.167L960 440.833C960 447.553 954.553 453 947.833 453L797.167 453C790.447 453 785 447.553 785 440.833Z" stroke="#4472C4" stroke-width="2" stroke-miterlimit="8" fill="#FFFFFF" fill-rule="evenodd"/><text font-family="SimSun,SimSun_MSFontService,sans-serif" font-weight="400" font-size="24" transform="translate(800.334 427)">特征处理模块</text><path d="M785 73.167C785 66.4473 790.447 61 797.167 61L947.833 61C954.553 61 960 66.4473 960 73.167L960 121.833C960 128.553 954.553 134 947.833 134L797.167 134C790.447 134 785 128.553 785 121.833Z" stroke="#4472C4" stroke-width="2" stroke-miterlimit="8" fill="#FFFFFF" fill-rule="evenodd"/><text font-family="SimSun,SimSun_MSFontService,sans-serif" font-weight="400" font-size="24" transform="translate(824.334 108)">推荐模块</text><path d="M2.46679e-07-1 418.935-0.999897 418.935 1.0001-2.46679e-07 1ZM417.601-3.9999 425.601 0.000104987 417.601 4.0001Z" transform="matrix(-1 0 0 1 784.601 97)"/><path d="M1-4.25945e-07 1.0001 239.813-0.999898 239.813-1 4.25945e-07ZM4.0001 238.48 0.000104987 246.48-3.9999 238.48Z" transform="matrix(1 0 0 -1 872 380.48)"/><text font-family="SimSun,SimSun_MSFontService,sans-serif" font-weight="400" font-size="24" transform="translate(893.9 251)">输入<tspan font-family="Times New Roman,Times New Roman_MSFontService,sans-serif" font-size="24" x="48" y="0">Embedding</tspan><tspan font-size="24" x="55.3334" y="31">向量</tspan></text><path d="M273 140.667 273 373.813 271 373.813 271 140.667ZM268 142 272 134 276 142ZM276 372.48 272 380.48 268 372.48Z"/><text font-family="SimSun,SimSun_MSFontService,sans-serif" font-weight="400" font-size="24" transform="translate(103.335 267)">日志文件落盘<tspan font-size="24" x="0" y="34">请求爬取信息</tspan></text><path d="M359 416 777.935 416 777.935 418 359 418ZM776.601 413 784.601 417 776.601 421Z"/><text font-family="SimSun,SimSun_MSFontService,sans-serif" font-weight="400" font-size="24" transform="translate(500.267 391)">提供原始数据</text></g></svg>