<svg width="1158" height="523" xmlns="http://www.w3.org/2000/svg" xmlns:xlink="http://www.w3.org/1999/xlink" overflow="hidden"><defs><clipPath id="clip0"><rect x="32" y="83" width="1158" height="523"/></clipPath><clipPath id="clip1"><rect x="111" y="206" width="79" height="202"/></clipPath><clipPath id="clip2"><rect x="189" y="206" width="79" height="202"/></clipPath><clipPath id="clip3"><rect x="267" y="206" width="79" height="202"/></clipPath><clipPath id="clip4"><rect x="33" y="244" width="79" height="203"/></clipPath><clipPath id="clip5"><rect x="111" y="244" width="79" height="203"/></clipPath><clipPath id="clip6"><rect x="189" y="244" width="79" height="203"/></clipPath><clipPath id="clip7"><rect x="267" y="244" width="79" height="203"/></clipPath><clipPath id="clip8"><rect x="33" y="283" width="79" height="202"/></clipPath><clipPath id="clip9"><rect x="111" y="283" width="79" height="202"/></clipPath><clipPath id="clip10"><rect x="189" y="283" width="79" height="202"/></clipPath><clipPath id="clip11"><rect x="267" y="283" width="79" height="202"/></clipPath><clipPath id="clip12"><rect x="33" y="321" width="79" height="203"/></clipPath><clipPath id="clip13"><rect x="111" y="321" width="79" height="203"/></clipPath><clipPath id="clip14"><rect x="189" y="321" width="79" height="203"/></clipPath><clipPath id="clip15"><rect x="267" y="321" width="79" height="203"/></clipPath><clipPath id="clip16"><rect x="33" y="359" width="79" height="203"/></clipPath><clipPath id="clip17"><rect x="111" y="359" width="79" height="203"/></clipPath><clipPath id="clip18"><rect x="189" y="359" width="79" height="203"/></clipPath><clipPath id="clip19"><rect x="267" y="359" width="79" height="203"/></clipPath><clipPath id="clip20"><rect x="557" y="55" width="88" height="203"/></clipPath><clipPath id="clip21"><rect x="644" y="55" width="88" height="203"/></clipPath><clipPath id="clip22"><rect x="471" y="93" width="87" height="203"/></clipPath><clipPath id="clip23"><rect x="557" y="93" width="88" height="203"/></clipPath><clipPath id="clip24"><rect x="644" y="93" width="88" height="203"/></clipPath><clipPath id="clip25"><rect x="471" y="132" width="87" height="202"/></clipPath><clipPath id="clip26"><rect x="557" y="132" width="88" height="202"/></clipPath><clipPath id="clip27"><rect x="644" y="132" width="88" height="202"/></clipPath><clipPath id="clip28"><rect x="471" y="170" width="87" height="203"/></clipPath><clipPath id="clip29"><rect x="557" y="170" width="88" height="203"/></clipPath><clipPath id="clip30"><rect x="644" y="170" width="88" height="203"/></clipPath><clipPath id="clip31"><rect x="471" y="209" width="87" height="202"/></clipPath><clipPath id="clip32"><rect x="557" y="209" width="88" height="202"/></clipPath><clipPath id="clip33"><rect x="644" y="209" width="88" height="202"/></clipPath><clipPath id="clip34"><rect x="536" y="398" width="66" height="202"/></clipPath><clipPath id="clip35"><rect x="601" y="398" width="66" height="202"/></clipPath><clipPath id="clip36"><rect x="666" y="398" width="66" height="202"/></clipPath><clipPath id="clip37"><rect x="471" y="436" width="66" height="203"/></clipPath><clipPath id="clip38"><rect x="536" y="436" width="66" height="203"/></clipPath><clipPath id="clip39"><rect x="601" y="436" width="66" height="203"/></clipPath><clipPath id="clip40"><rect x="666" y="436" width="66" height="203"/></clipPath><clipPath id="clip41"><rect x="471" y="475" width="66" height="202"/></clipPath><clipPath id="clip42"><rect x="536" y="475" width="66" height="202"/></clipPath><clipPath id="clip43"><rect x="601" y="475" width="66" height="202"/></clipPath><clipPath id="clip44"><rect x="666" y="475" width="66" height="202"/></clipPath><clipPath id="clip45"><rect x="952" y="206" width="79" height="202"/></clipPath><clipPath id="clip46"><rect x="1030" y="206" width="80" height="202"/></clipPath><clipPath id="clip47"><rect x="1109" y="206" width="79" height="202"/></clipPath><clipPath id="clip48"><rect x="873" y="244" width="80" height="203"/></clipPath><clipPath id="clip49"><rect x="952" y="244" width="79" height="203"/></clipPath><clipPath id="clip50"><rect x="1030" y="244" width="80" height="203"/></clipPath><clipPath id="clip51"><rect x="1109" y="244" width="79" height="203"/></clipPath><clipPath id="clip52"><rect x="873" y="283" width="80" height="202"/></clipPath><clipPath id="clip53"><rect x="952" y="283" width="79" height="202"/></clipPath><clipPath id="clip54"><rect x="1030" y="283" width="80" height="202"/></clipPath><clipPath id="clip55"><rect x="1109" y="283" width="79" height="202"/></clipPath><clipPath id="clip56"><rect x="873" y="321" width="80" height="203"/></clipPath><clipPath id="clip57"><rect x="952" y="321" width="79" height="203"/></clipPath><clipPath id="clip58"><rect x="1030" y="321" width="80" height="203"/></clipPath><clipPath id="clip59"><rect x="1109" y="321" width="79" height="203"/></clipPath><clipPath id="clip60"><rect x="873" y="359" width="80" height="203"/></clipPath><clipPath id="clip61"><rect x="952" y="359" width="79" height="203"/></clipPath><clipPath id="clip62"><rect x="1030" y="359" width="80" height="203"/></clipPath><clipPath id="clip63"><rect x="1109" y="359" width="79" height="203"/></clipPath></defs><g clip-path="url(#clip0)" transform="translate(-32 -83)"><path d="M33.1988 403.2 111.303 403.2 111.303 441.6 33.1988 441.6Z" fill="#FFF2CC" fill-rule="evenodd"/><path d="M111.303 403.2 189.407 403.2 189.407 441.6 111.303 441.6Z" fill="#FFF2CC" fill-rule="evenodd"/><path d="M189.407 403.2 267.511 403.2 267.511 441.6 189.407 441.6Z" fill="#FFF2CC" fill-rule="evenodd"/><path d="M267.511 403.2 345.615 403.2 345.615 441.6 267.511 441.6Z" fill="#FFF2CC" fill-rule="evenodd"/><path d="M111.303 287.333 111.303 480.666" stroke="#000000" stroke-width="1.33333" stroke-linejoin="round" stroke-miterlimit="10" fill="none" fill-rule="evenodd"/><path d="M189.407 287.333 189.407 480.666" stroke="#000000" stroke-width="1.33333" stroke-linejoin="round" stroke-miterlimit="10" fill="none" fill-rule="evenodd"/><path d="M267.511 287.333 267.511 480.666" stroke="#000000" stroke-width="1.33333" stroke-linejoin="round" stroke-miterlimit="10" fill="none" fill-rule="evenodd"/><path d="M32.5322 326.4 346.281 326.4" stroke="#000000" stroke-width="1.33333" stroke-linejoin="round" stroke-miterlimit="10" fill="none" fill-rule="evenodd"/><path d="M32.5322 364.8 346.281 364.8" stroke="#000000" stroke-width="1.33333" stroke-linejoin="round" stroke-miterlimit="10" fill="none" fill-rule="evenodd"/><path d="M32.5322 403.2 346.281 403.2" stroke="#000000" stroke-width="1.33333" stroke-linejoin="round" stroke-miterlimit="10" fill="none" fill-rule="evenodd"/><path d="M32.5322 441.6 346.281 441.6" stroke="#000000" stroke-width="1.33333" stroke-linejoin="round" stroke-miterlimit="10" fill="none" fill-rule="evenodd"/><path d="M33.1988 287.333 33.1988 480.666" stroke="#000000" stroke-width="1.33333" stroke-linejoin="round" stroke-miterlimit="10" fill="none" fill-rule="evenodd"/><path d="M345.615 287.333 345.615 480.666" stroke="#000000" stroke-width="1.33333" stroke-linejoin="round" stroke-miterlimit="10" fill="none" fill-rule="evenodd"/><path d="M32.5322 288 346.281 288" stroke="#000000" stroke-width="1.33333" stroke-linejoin="round" stroke-miterlimit="10" fill="none" fill-rule="evenodd"/><path d="M32.5322 480 346.281 480" stroke="#000000" stroke-width="1.33333" stroke-linejoin="round" stroke-miterlimit="10" fill="none" fill-rule="evenodd"/><g clip-path="url(#clip1)"><text font-family="Arial,Arial_MSFontService,sans-serif" font-weight="400" font-size="24" transform="translate(120.903 316)">I1</text></g><g clip-path="url(#clip2)"><text font-family="Arial,Arial_MSFontService,sans-serif" font-weight="400" font-size="24" transform="translate(199.007 316)">I2</text></g><g clip-path="url(#clip3)"><text font-family="Arial,Arial_MSFontService,sans-serif" font-weight="400" font-size="24" transform="translate(277.111 316)">I3</text></g><g clip-path="url(#clip4)"><text font-family="Arial,Arial_MSFontService,sans-serif" font-weight="400" font-size="24" transform="translate(42.7988 354)">U1</text></g><g clip-path="url(#clip5)"><text font-family="Arial,Arial_MSFontService,sans-serif" font-weight="400" font-size="24" transform="translate(120.903 354)">?</text></g><g clip-path="url(#clip6)"><text font-family="Arial,Arial_MSFontService,sans-serif" font-weight="400" font-size="24" transform="translate(199.007 354)">3</text></g><g clip-path="url(#clip7)"><text font-family="Arial,Arial_MSFontService,sans-serif" font-weight="400" font-size="24" transform="translate(277.111 354)">5</text></g><g clip-path="url(#clip8)"><text font-family="Arial,Arial_MSFontService,sans-serif" font-weight="400" font-size="24" transform="translate(42.7988 393)">U2</text></g><g clip-path="url(#clip9)"><text font-family="Arial,Arial_MSFontService,sans-serif" font-weight="400" font-size="24" transform="translate(120.903 393)">4</text></g><g clip-path="url(#clip10)"><text font-family="Arial,Arial_MSFontService,sans-serif" font-weight="400" font-size="24" transform="translate(199.007 393)">?</text></g><g clip-path="url(#clip11)"><text font-family="Arial,Arial_MSFontService,sans-serif" font-weight="400" font-size="24" transform="translate(277.111 393)">6</text></g><g clip-path="url(#clip12)"><text font-family="Arial,Arial_MSFontService,sans-serif" font-weight="400" font-size="24" transform="translate(42.7988 431)">U3</text></g><g clip-path="url(#clip13)"><text font-family="Arial,Arial_MSFontService,sans-serif" font-weight="400" font-size="24" transform="translate(120.903 431)">?</text></g><g clip-path="url(#clip14)"><text font-family="Arial,Arial_MSFontService,sans-serif" font-weight="400" font-size="24" transform="translate(199.007 431)">?</text></g><g clip-path="url(#clip15)"><text font-family="Arial,Arial_MSFontService,sans-serif" font-weight="400" font-size="24" transform="translate(277.111 431)">7</text></g><g clip-path="url(#clip16)"><text font-family="Arial,Arial_MSFontService,sans-serif" font-weight="400" font-size="24" transform="translate(42.7988 469)">U4</text></g><g clip-path="url(#clip17)"><text font-family="Arial,Arial_MSFontService,sans-serif" font-weight="400" font-size="24" transform="translate(120.903 469)">8</text></g><g clip-path="url(#clip18)"><text font-family="Arial,Arial_MSFontService,sans-serif" font-weight="400" font-size="24" transform="translate(199.007 469)">8</text></g><g clip-path="url(#clip19)"><text font-family="Arial,Arial_MSFontService,sans-serif" font-weight="400" font-size="24" transform="translate(277.111 469)">?</text></g><path d="M471.193 252.3 557.798 252.3 557.798 290.7 471.193 290.7Z" fill="#FFF2CC" fill-rule="evenodd"/><path d="M557.798 252.3 644.404 252.3 644.404 290.7 557.798 290.7Z" fill="#FFF2CC" fill-rule="evenodd"/><path d="M644.404 252.3 731.009 252.3 731.009 290.7 644.404 290.7Z" fill="#FFF2CC" fill-rule="evenodd"/><path d="M557.798 136.433 557.798 329.766" stroke="#000000" stroke-width="1.33333" stroke-linejoin="round" stroke-miterlimit="10" fill="none" fill-rule="evenodd"/><path d="M644.404 136.433 644.404 329.766" stroke="#000000" stroke-width="1.33333" stroke-linejoin="round" stroke-miterlimit="10" fill="none" fill-rule="evenodd"/><path d="M470.526 175.5 731.676 175.5" stroke="#000000" stroke-width="1.33333" stroke-linejoin="round" stroke-miterlimit="10" fill="none" fill-rule="evenodd"/><path d="M470.526 213.9 731.676 213.9" stroke="#000000" stroke-width="1.33333" stroke-linejoin="round" stroke-miterlimit="10" fill="none" fill-rule="evenodd"/><path d="M470.526 252.3 731.676 252.3" stroke="#000000" stroke-width="1.33333" stroke-linejoin="round" stroke-miterlimit="10" fill="none" fill-rule="evenodd"/><path d="M470.526 290.7 731.676 290.7" stroke="#000000" stroke-width="1.33333" stroke-linejoin="round" stroke-miterlimit="10" fill="none" fill-rule="evenodd"/><path d="M471.193 136.433 471.193 329.766" stroke="#000000" stroke-width="1.33333" stroke-linejoin="round" stroke-miterlimit="10" fill="none" fill-rule="evenodd"/><path d="M731.009 136.433 731.009 329.766" stroke="#000000" stroke-width="1.33333" stroke-linejoin="round" stroke-miterlimit="10" fill="none" fill-rule="evenodd"/><path d="M470.526 137.1 731.676 137.1" stroke="#000000" stroke-width="1.33333" stroke-linejoin="round" stroke-miterlimit="10" fill="none" fill-rule="evenodd"/><path d="M470.526 329.1 731.676 329.1" stroke="#000000" stroke-width="1.33333" stroke-linejoin="round" stroke-miterlimit="10" fill="none" fill-rule="evenodd"/><g clip-path="url(#clip20)"><text font-family="Arial,Arial_MSFontService,sans-serif" font-weight="400" font-size="24" transform="translate(567.398 165)">K1</text></g><g clip-path="url(#clip21)"><text font-family="Arial,Arial_MSFontService,sans-serif" font-weight="400" font-size="24" transform="translate(654.004 165)">K2</text></g><g clip-path="url(#clip22)"><text font-family="Arial,Arial_MSFontService,sans-serif" font-weight="400" font-size="24" transform="translate(480.793 203)">U1</text></g><g clip-path="url(#clip23)"><text font-family="Arial,Arial_MSFontService,sans-serif" font-weight="400" font-size="24" transform="translate(567.398 203)">0.4</text></g><g clip-path="url(#clip24)"><text font-family="Arial,Arial_MSFontService,sans-serif" font-weight="400" font-size="24" transform="translate(654.004 203)">0.3</text></g><g clip-path="url(#clip25)"><text font-family="Arial,Arial_MSFontService,sans-serif" font-weight="400" font-size="24" transform="translate(480.793 242)">U2</text></g><g clip-path="url(#clip26)"><text font-family="Arial,Arial_MSFontService,sans-serif" font-weight="400" font-size="24" transform="translate(567.398 242)">0.2</text></g><g clip-path="url(#clip27)"><text font-family="Arial,Arial_MSFontService,sans-serif" font-weight="400" font-size="24" transform="translate(654.004 242)">0.5</text></g><g clip-path="url(#clip28)"><text font-family="Arial,Arial_MSFontService,sans-serif" font-weight="400" font-size="24" transform="translate(480.793 280)">U3</text></g><g clip-path="url(#clip29)"><text font-family="Arial,Arial_MSFontService,sans-serif" font-weight="400" font-size="24" transform="translate(567.398 280)">0.6</text></g><g clip-path="url(#clip30)"><text font-family="Arial,Arial_MSFontService,sans-serif" font-weight="400" font-size="24" transform="translate(654.004 280)">0.5</text></g><g clip-path="url(#clip31)"><text font-family="Arial,Arial_MSFontService,sans-serif" font-weight="400" font-size="24" transform="translate(480.793 318)">U4</text></g><g clip-path="url(#clip32)"><text font-family="Arial,Arial_MSFontService,sans-serif" font-weight="400" font-size="24" transform="translate(567.398 318)">0.4</text></g><g clip-path="url(#clip33)"><text font-family="Arial,Arial_MSFontService,sans-serif" font-weight="400" font-size="24" transform="translate(654.004 318)">0.8</text></g><path d="M536.147 480 601.101 480 601.101 518.4 536.147 518.4Z" fill="#FFF2CC" fill-rule="evenodd"/><path d="M601.101 480 666.055 480 666.055 518.4 601.101 518.4Z" fill="#FFF2CC" fill-rule="evenodd"/><path d="M666.055 480 731.009 480 731.009 518.4 666.055 518.4Z" fill="#FFF2CC" fill-rule="evenodd"/><path d="M536.147 518.4 601.101 518.4 601.101 556.8 536.147 556.8Z" fill="#FFF2CC" fill-rule="evenodd"/><path d="M601.101 518.4 666.055 518.4 666.055 556.8 601.101 556.8Z" fill="#FFF2CC" fill-rule="evenodd"/><path d="M666.055 518.4 731.009 518.4 731.009 556.8 666.055 556.8Z" fill="#FFF2CC" fill-rule="evenodd"/><path d="M536.147 556.8 601.101 556.8 601.101 595.2 536.147 595.2Z" fill="#FFF2CC" fill-rule="evenodd"/><path d="M601.101 556.8 666.055 556.8 666.055 595.2 601.101 595.2Z" fill="#FFF2CC" fill-rule="evenodd"/><path d="M666.055 556.8 731.009 556.8 731.009 595.2 666.055 595.2Z" fill="#FFF2CC" fill-rule="evenodd"/><path d="M536.147 479.333 536.147 595.866" stroke="#000000" stroke-width="1.33333" stroke-linejoin="round" stroke-miterlimit="10" fill="none" fill-rule="evenodd"/><path d="M601.101 479.333 601.101 595.866" stroke="#000000" stroke-width="1.33333" stroke-linejoin="round" stroke-miterlimit="10" fill="none" fill-rule="evenodd"/><path d="M666.055 479.333 666.055 595.866" stroke="#000000" stroke-width="1.33333" stroke-linejoin="round" stroke-miterlimit="10" fill="none" fill-rule="evenodd"/><path d="M470.526 518.4 731.676 518.4" stroke="#000000" stroke-width="1.33333" stroke-linejoin="round" stroke-miterlimit="10" fill="none" fill-rule="evenodd"/><path d="M470.526 556.8 731.676 556.8" stroke="#000000" stroke-width="1.33333" stroke-linejoin="round" stroke-miterlimit="10" fill="none" fill-rule="evenodd"/><path d="M471.193 479.333 471.193 595.866" stroke="#000000" stroke-width="1.33333" stroke-linejoin="round" stroke-miterlimit="10" fill="none" fill-rule="evenodd"/><path d="M731.009 479.333 731.009 595.866" stroke="#000000" stroke-width="1.33333" stroke-linejoin="round" stroke-miterlimit="10" fill="none" fill-rule="evenodd"/><path d="M470.526 480 731.676 480" stroke="#000000" stroke-width="1.33333" stroke-linejoin="round" stroke-miterlimit="10" fill="none" fill-rule="evenodd"/><path d="M470.526 595.2 731.676 595.2" stroke="#000000" stroke-width="1.33333" stroke-linejoin="round" stroke-miterlimit="10" fill="none" fill-rule="evenodd"/><g clip-path="url(#clip34)"><text font-family="Arial,Arial_MSFontService,sans-serif" font-weight="400" font-size="24" transform="translate(545.747 508)">I1</text></g><g clip-path="url(#clip35)"><text font-family="Arial,Arial_MSFontService,sans-serif" font-weight="400" font-size="24" transform="translate(610.701 508)">I2</text></g><g clip-path="url(#clip36)"><text font-family="Arial,Arial_MSFontService,sans-serif" font-weight="400" font-size="24" transform="translate(675.655 508)">I3</text></g><g clip-path="url(#clip37)"><text font-family="Arial,Arial_MSFontService,sans-serif" font-weight="400" font-size="24" transform="translate(480.793 546)">K1</text></g><g clip-path="url(#clip38)"><text font-family="Arial,Arial_MSFontService,sans-serif" font-weight="400" font-size="24" transform="translate(545.747 546)">0.3</text></g><g clip-path="url(#clip39)"><text font-family="Arial,Arial_MSFontService,sans-serif" font-weight="400" font-size="24" transform="translate(610.701 546)">0.2</text></g><g clip-path="url(#clip40)"><text font-family="Arial,Arial_MSFontService,sans-serif" font-weight="400" font-size="24" transform="translate(675.655 546)">0.6</text></g><g clip-path="url(#clip41)"><text font-family="Arial,Arial_MSFontService,sans-serif" font-weight="400" font-size="24" transform="translate(480.793 585)">K2</text></g><g clip-path="url(#clip42)"><text font-family="Arial,Arial_MSFontService,sans-serif" font-weight="400" font-size="24" transform="translate(545.747 585)">0.4</text></g><g clip-path="url(#clip43)"><text font-family="Arial,Arial_MSFontService,sans-serif" font-weight="400" font-size="24" transform="translate(610.701 585)">0.5</text></g><g clip-path="url(#clip44)"><text font-family="Arial,Arial_MSFontService,sans-serif" font-weight="400" font-size="24" transform="translate(675.655 585)">0.4</text></g><text font-family="SimSun,SimSun_MSFontService,sans-serif" font-weight="400" font-size="24" transform="translate(117.466 275)">输入矩阵<tspan font-size="24" x="108" y="0">4*</tspan>3<tspan font-size="24" x="431.29" y="-160">User</tspan>矩阵<tspan font-size="24" x="539.29" y="-160">4*2</tspan><tspan font-size="24" x="435.645" y="192">Item</tspan>矩阵<tspan font-size="24" x="543.645" y="192">2*3</tspan></text><path d="M873.958 403.2 952.349 403.2 952.349 441.6 873.958 441.6Z" fill="#FFF2CC" fill-rule="evenodd"/><path d="M952.349 403.2 1030.74 403.2 1030.74 441.6 952.349 441.6Z" fill="#FFF2CC" fill-rule="evenodd"/><path d="M1030.74 403.2 1109.13 403.2 1109.13 441.6 1030.74 441.6Z" fill="#FFF2CC" fill-rule="evenodd"/><path d="M1109.13 403.2 1187.52 403.2 1187.52 441.6 1109.13 441.6Z" fill="#FFF2CC" fill-rule="evenodd"/><path d="M952.349 287.333 952.349 480.666" stroke="#000000" stroke-width="1.33333" stroke-linejoin="round" stroke-miterlimit="10" fill="none" fill-rule="evenodd"/><path d="M1030.74 287.333 1030.74 480.666" stroke="#000000" stroke-width="1.33333" stroke-linejoin="round" stroke-miterlimit="10" fill="none" fill-rule="evenodd"/><path d="M1109.13 287.333 1109.13 480.666" stroke="#000000" stroke-width="1.33333" stroke-linejoin="round" stroke-miterlimit="10" fill="none" fill-rule="evenodd"/><path d="M873.291 326.4 1188.19 326.4" stroke="#000000" stroke-width="1.33333" stroke-linejoin="round" stroke-miterlimit="10" fill="none" fill-rule="evenodd"/><path d="M873.291 364.8 1188.19 364.8" stroke="#000000" stroke-width="1.33333" stroke-linejoin="round" stroke-miterlimit="10" fill="none" fill-rule="evenodd"/><path d="M873.291 403.2 1188.19 403.2" stroke="#000000" stroke-width="1.33333" stroke-linejoin="round" stroke-miterlimit="10" fill="none" fill-rule="evenodd"/><path d="M873.291 441.6 1188.19 441.6" stroke="#000000" stroke-width="1.33333" stroke-linejoin="round" stroke-miterlimit="10" fill="none" fill-rule="evenodd"/><path d="M873.958 287.333 873.958 480.666" stroke="#000000" stroke-width="1.33333" stroke-linejoin="round" stroke-miterlimit="10" fill="none" fill-rule="evenodd"/><path d="M1187.52 287.333 1187.52 480.666" stroke="#000000" stroke-width="1.33333" stroke-linejoin="round" stroke-miterlimit="10" fill="none" fill-rule="evenodd"/><path d="M873.291 288 1188.19 288" stroke="#000000" stroke-width="1.33333" stroke-linejoin="round" stroke-miterlimit="10" fill="none" fill-rule="evenodd"/><path d="M873.291 480 1188.19 480" stroke="#000000" stroke-width="1.33333" stroke-linejoin="round" stroke-miterlimit="10" fill="none" fill-rule="evenodd"/><g clip-path="url(#clip45)"><text font-family="Arial,Arial_MSFontService,sans-serif" font-weight="400" font-size="24" transform="translate(961.949 316)">I1</text></g><g clip-path="url(#clip46)"><text font-family="Arial,Arial_MSFontService,sans-serif" font-weight="400" font-size="24" transform="translate(1040.34 316)">I2</text></g><g clip-path="url(#clip47)"><text font-family="Arial,Arial_MSFontService,sans-serif" font-weight="400" font-size="24" transform="translate(1118.73 316)">I3</text></g><g clip-path="url(#clip48)"><text font-family="Arial,Arial_MSFontService,sans-serif" font-weight="400" font-size="24" transform="translate(883.558 354)">U1</text></g><g clip-path="url(#clip49)"><text font-family="Arial,Arial_MSFontService,sans-serif" font-weight="400" font-size="24" transform="translate(961.949 354)">6.3</text></g><g clip-path="url(#clip50)"><text font-family="Arial,Arial_MSFontService,sans-serif" font-weight="400" font-size="24" transform="translate(1040.34 354)">2.8</text></g><g clip-path="url(#clip51)"><text font-family="Arial,Arial_MSFontService,sans-serif" font-weight="400" font-size="24" transform="translate(1118.73 354)">4.6</text></g><g clip-path="url(#clip52)"><text font-family="Arial,Arial_MSFontService,sans-serif" font-weight="400" font-size="24" transform="translate(883.558 393)">U2</text></g><g clip-path="url(#clip53)"><text font-family="Arial,Arial_MSFontService,sans-serif" font-weight="400" font-size="24" transform="translate(961.949 393)">4.5</text></g><g clip-path="url(#clip54)"><text font-family="Arial,Arial_MSFontService,sans-serif" font-weight="400" font-size="24" transform="translate(1040.34 393)">3.6</text></g><g clip-path="url(#clip55)"><text font-family="Arial,Arial_MSFontService,sans-serif" font-weight="400" font-size="24" transform="translate(1118.73 393)">5.8</text></g><g clip-path="url(#clip56)"><text font-family="Arial,Arial_MSFontService,sans-serif" font-weight="400" font-size="24" transform="translate(883.558 431)">U3</text></g><g clip-path="url(#clip57)"><text font-family="Arial,Arial_MSFontService,sans-serif" font-weight="400" font-size="24" transform="translate(961.949 431)">5.8</text></g><g clip-path="url(#clip58)"><text font-family="Arial,Arial_MSFontService,sans-serif" font-weight="400" font-size="24" transform="translate(1040.34 431)">5.7</text></g><g clip-path="url(#clip59)"><text font-family="Arial,Arial_MSFontService,sans-serif" font-weight="400" font-size="24" transform="translate(1118.73 431)">6.8</text></g><g clip-path="url(#clip60)"><text font-family="Arial,Arial_MSFontService,sans-serif" font-weight="400" font-size="24" transform="translate(883.558 469)">U4</text></g><g clip-path="url(#clip61)"><text font-family="Arial,Arial_MSFontService,sans-serif" font-weight="400" font-size="24" transform="translate(961.949 469)">7.8</text></g><g clip-path="url(#clip62)"><text font-family="Arial,Arial_MSFontService,sans-serif" font-weight="400" font-size="24" transform="translate(1040.34 469)">7.5</text></g><g clip-path="url(#clip63)"><text font-family="Arial,Arial_MSFontService,sans-serif" font-weight="400" font-size="24" transform="translate(1118.73 469)">6.8</text></g><text font-family="SimSun,SimSun_MSFontService,sans-serif" font-weight="400" font-size="24" transform="translate(959.374 275)">输出矩阵<tspan font-size="24" x="108" y="0">4*</tspan>3</text><path d="M1.15298-0.9595 121.934 144.176 119.628 146.095-1.15298 0.9595ZM123.28 141.104 125.578 150.9 116.362 146.861Z" fill="#ED7D31" transform="matrix(1 0 0 -1 346.5 384.4)"/><path d="M347.661 383.551 468.492 531.344 466.169 533.243 345.339 385.449ZM469.865 528.284 472.078 538.1 462.898 533.981Z" fill="#ED7D31"/><path d="M1.09805-1.0219 138.937 147.088 136.741 149.132-1.09805 1.0219ZM140.111 143.946 142.949 153.6 133.523 150.077Z" fill="#ED7D31" transform="matrix(1 0 0 -1 731.5 538.1)"/><path d="M732.589 232.468 870.38 377.924 868.202 379.987 730.411 234.532ZM871.526 374.772 874.449 384.4 864.993 380.961Z" fill="#ED7D31"/><rect x="382.5" y="349.5" width="125" height="68" stroke="#ED7D31" stroke-width="1.33333" stroke-miterlimit="8" fill="#FFFFFF"/><text font-family="SimSun,SimSun_MSFontService,sans-serif" font-weight="400" font-size="24" transform="translate(391.275 379)">矩阵分解<tspan font-size="24" x="0" y="29">K=2</tspan></text><rect x="667.5" y="349.5" width="172" height="68" stroke="#ED7D31" stroke-width="1.33333" stroke-miterlimit="8" fill="#FFFFFF"/><text font-family="SimSun,SimSun_MSFontService,sans-serif" font-weight="400" font-size="24" transform="translate(676.977 379)">矩阵乘法<tspan font-size="24" x="0" y="29">近似</tspan>于原矩阵</text></g></svg>