<svg viewBox="0 0 645 293.367" xmlns="http://www.w3.org/2000/svg" width="645" height="293" xmlns:xlink="http://www.w3.org/1999/xlink">
    <defs/>
    <g id="group1" transform="translate(1.00,1.00)">
        <g id="shape2" transform="translate(236.26,99.00)">
            <path stroke="#323232" fill-rule="nonzero" fill="#ffffff" d="M143.9,34.0L143.9,.0L.0,.0L.0,34.0L143.9,34.0z"/>
            <text style="fill:#191919;font-family:Times New Roman;font-size:14.00pt" xml:space="preserve">
                <tspan y="22.0" x="58.4">Gin</tspan>
            </text>
        </g>
        <g id="shape3" transform="translate(236.26,0.00)">
            <path stroke="#323232" fill-rule="nonzero" fill="#ffffff" d="M143.9,34.0L143.9,.0L.0,.0L.0,34.0L143.9,34.0z"/>
            <text style="fill:#191919;font-family:Times New Roman;font-size:14.00pt" xml:space="preserve">
                <tspan y="22.0" x="57.2">Vue</tspan>
            </text>
        </g>
        <g id="shape4" transform="translate(0.00,86.00)">
            <path stroke="#323232" fill-rule="nonzero" fill="#ffffff" d="M143.9,60.0L143.9,.0L.0,.0L.0,60.0L143.9,60.0z"/>
            <text style="fill:#191919;font-family:Times New Roman;font-size:14.00pt" xml:space="preserve">
                <tspan y="24.0" x="24.4">Python Faiss </tspan>
                <tspan y="45.6" x="25.2">ANN Search</tspan>
            </text>
        </g>
        <g id="shape5" transform="translate(236.26,116.00)">
            <path stroke="#191919" fill="none" d="M.0,.0L-86.4,.0"/>
            <path stroke="#191919" fill="#191919" stroke-linecap="round" d="M-86.4,3.0L-92.4,.0L-86.4,-3.0L-86.4,3.0" stroke-width="1"/>
            <rect y="-10.8" fill="#ffffff" x="-65.0" width="36.8" height="18.4"/>
            <text style="fill:#191919;font-family:Times New Roman;font-size:12.00pt" xml:space="preserve">
                <tspan y="3.6" x="-65.0">gRPC</tspan>
            </text>
        </g>
        <g id="shape6" transform="translate(308.21,34.00)">
            <path stroke="#191919" fill="none" d="M.0,.0L-0.0,59.0"/>
            <path stroke="#191919" fill="#191919" stroke-linecap="round" d="M3.0,59.0L-0.0,65.0L-3.0,59.0L3.0,59.0" stroke-width="1"/>
            <rect y="22.0" fill="#ffffff" x="-41.0" width="84.0" height="18.4"/>
            <text style="fill:#191919;font-family:Times New Roman;font-size:12.00pt" xml:space="preserve">
                <tspan y="36.4" x="-41.0">RUSTful API</tspan>
            </text>
        </g>
        <g id="shape7" transform="translate(212.28,239.00)">
            <path fill-rule="nonzero" fill="#ffffff" d="M.0,8.7L.0,43.3L.0,43.3C.0,48.1,19.4,52.0,43.3,52.0C67.3,52.0,86.7,48.1,86.7,43.3L86.7,8.7L86.7,8.7C86.7,3.9,67.3,.0,43.3,.0C19.4,.0,.0,3.9,.0,8.7z"/>
            <path stroke="#323232" fill="none" d="M.0,8.7L.0,43.3L.0,43.3C.0,48.1,19.4,52.0,43.3,52.0C67.3,52.0,86.7,48.1,86.7,43.3L86.7,8.7L86.7,8.7C86.7,3.9,67.3,.0,43.3,.0C19.4,.0,.0,3.9,.0,8.7zM86.7,8.7C86.7,13.5,67.3,17.3,43.3,17.3C19.4,17.3,.0,13.5,.0,8.7"/>
            <text style="fill:#191919;font-family:Times New Roman;font-size:14.00pt" xml:space="preserve">
                <tspan y="37.5" x="14.1">MySQL</tspan>
            </text>
        </g>
        <g id="shape8" transform="translate(336.39,239.33)">
            <path fill-rule="nonzero" fill="#ffffff" d="M.0,8.7L.0,43.0L.0,43.0C.0,47.8,19.4,51.7,43.3,51.7C67.3,51.7,86.7,47.8,86.7,43.0L86.7,8.7L86.7,8.7C86.7,3.9,67.3,.0,43.3,.0C19.4,.0,.0,3.9,.0,8.7z"/>
            <path stroke="#323232" fill="none" d="M.0,8.7L.0,43.0L.0,43.0C.0,47.8,19.4,51.7,43.3,51.7C67.3,51.7,86.7,47.8,86.7,43.0L86.7,8.7L86.7,8.7C86.7,3.9,67.3,.0,43.3,.0C19.4,.0,.0,3.9,.0,8.7zM86.7,8.7C86.7,13.5,67.3,17.3,43.3,17.3C19.4,17.3,.0,13.5,.0,8.7"/>
            <text style="fill:#191919;font-family:Times New Roman;font-size:14.00pt" xml:space="preserve">
                <tspan y="37.3" x="22.5">Redis</tspan>
            </text>
        </g>
        <g id="shape9" transform="translate(206.51,178.00)">
            <path stroke="#323232" fill-rule="nonzero" fill="#ffffff" d="M98.2,34.0L98.2,.0L.0,.0L.0,34.0L98.2,34.0z"/>
            <text style="fill:#191919;font-family:Times New Roman;font-size:14.00pt" xml:space="preserve">
                <tspan y="22.0" x="27.5">Gorm</tspan>
            </text>
        </g>
        <g id="shape10" transform="translate(330.62,178.00)">
            <path stroke="#323232" fill-rule="nonzero" fill="#ffffff" d="M98.2,34.0L98.2,.0L.0,.0L.0,34.0L98.2,34.0z"/>
            <text style="fill:#191919;font-family:Times New Roman;font-size:14.00pt" xml:space="preserve">
                <tspan y="22.0" x="13.9">Go-Redis</tspan>
            </text>
        </g>
        <g id="shape11" transform="translate(255.62,212.00)">
            <path stroke="#191919" fill="none" d="M.0,.0L.0,21.0"/>
            <path stroke="#191919" fill="#191919" stroke-linecap="round" d="M3.0,21.0L.0,27.0L-3.0,21.0L3.0,21.0" stroke-width="1"/>
        </g>
        <g id="shape12" transform="translate(379.73,212.00)">
            <path stroke="#191919" fill="none" d="M.0,.0L.0,21.3"/>
            <path stroke="#191919" fill="#191919" stroke-linecap="round" d="M3.0,21.3L.0,27.3L-3.0,21.3L3.0,21.3" stroke-width="1"/>
        </g>
        <g id="shape13" transform="translate(308.21,133.00)">
            <path stroke="#191919" fill="none" d="M.0,.0L.0,13.0L-52.6,13.0L-52.6,39.0"/>
            <path stroke="#191919" fill="#191919" stroke-linecap="round" d="M-49.6,39.0L-52.6,45.0L-55.6,39.0L-49.6,39.0" stroke-width="1"/>
        </g>
        <g id="shape14" transform="translate(308.21,133.00)">
            <path stroke="#191919" fill="none" d="M.0,.0L.0,13.0L71.5,13.0L71.5,39.0"/>
            <path stroke="#191919" fill="#191919" stroke-linecap="round" d="M74.5,39.0L71.5,45.0L68.5,39.0L74.5,39.0" stroke-width="1"/>
        </g>
        <g id="shape15" transform="translate(471.95,21.50)">
            <path stroke="#323232" fill-rule="nonzero" fill="#ffffff" d="M171.0,189.0L171.0,.0L.0,.0L.0,189.0L171.0,189.0z"/>
            <text style="fill:#191919;font-family:Times New Roman;font-size:14.00pt" xml:space="preserve">
                <tspan y="40.1" x="13.9">Viper</tspan>
                <tspan style="font-family:宋体" x="54.7"> - 抽离配置</tspan>
                <tspan y="63.3" x="15.5">Cron</tspan>
                <tspan style="font-family:宋体" x="53.1"> - 定时任务</tspan>
                <tspan y="86.5" x="22.3">Air</tspan>
                <tspan style="font-family:宋体" x="46.3"> - 监听修改</tspan>
                <tspan y="109.7" x="20.3">Zap</tspan>
                <tspan style="font-family:宋体" x="48.3"> - 记录日志</tspan>
                <tspan y="132.9" x="8.7">Casbin</tspan>
                <tspan style="font-family:宋体" x="59.9"> - 权限管理</tspan>
                <tspan y="156.1" x="11.1">Go-Echarts</tspan>
                <tspan style="font-family:宋体" x="94.3"> - 绘图</tspan>
            </text>
        </g>
        <g id="shape16" transform="translate(0.00,193.38)">
            <path stroke="#323232" fill-rule="nonzero" fill="#ffffff" d="M.0,86.0L.0,.0L143.9,.0L143.9,86.0L143.9,86.0C133.9,78.5,121.4,74.0,107.9,74.0C94.4,74.0,82.0,78.5,72.0,86.0L72.0,86.0C61.9,93.5,49.5,98.0,36.0,98.0C22.5,98.0,10.0,93.5,.0,86.0z"/>
            <text style="fill:#191919;font-family:Times New Roman;font-size:14.00pt" xml:space="preserve">
                <tspan y="20.0" x="10.4">User Embedding</tspan>
                <tspan y="41.6" x="40.4">Problem </tspan>
                <tspan y="63.2" x="29.6">Embedding</tspan>
            </text>
        </g>
        <g id="shape17" transform="translate(471.95,116.00)">
            <path stroke="#191919" fill="none" d="M.0,.0L-85.8,.0"/>
            <path stroke="#191919" fill="#191919" stroke-linecap="round" d="M-85.8,3.0L-91.8,.0L-85.8,-3.0L-85.8,3.0" stroke-width="1"/>
        </g>
        <g id="shape18" transform="translate(71.95,146.00)">
            <path stroke="#191919" fill="none" d="M.0,.0L.0,41.4"/>
            <path stroke="#191919" fill="#191919" stroke-linecap="round" d="M3.0,41.4L.0,47.4L-3.0,41.4L3.0,41.4" stroke-width="1"/>
        </g>
    </g>
</svg>
