<svg viewBox="0 0 877 329.938" height="330" xmlns:xlink="http://www.w3.org/1999/xlink" width="877" xmlns="http://www.w3.org/2000/svg">
    <defs/>
    <g id="group1" transform="translate(1.00,1.00)">
        <g id="shape2" transform="translate(32.06,21.87)">
            <path fill="#ffffff" stroke="#323232" d="M22.0,44.0L78.0,44.0L78.0,44.0C90.2,44.0,100.0,34.2,100.0,22.0C100.0,9.8,90.2,.0,78.0,.0L22.0,.0L22.0,.0C9.8,.0,.0,9.8,.0,22.0C.0,34.2,9.8,44.0,22.0,44.0z" fill-rule="nonzero"/>
            <text xml:space="preserve" style="fill:#191919;font-family:Times New Roman;font-size:14.00pt">
                <tspan x="31.6" y="27.6">开始</tspan>
            </text>
        </g>
        <g id="shape3" transform="translate(160.43,11.87)">
            <path fill="#ffffff" stroke="#323232" d="M144.2,64.0L144.2,.0L.0,.0L.0,64.0L144.2,64.0z" fill-rule="nonzero"/>
            <text xml:space="preserve" style="fill:#191919;font-family:Times New Roman;font-size:14.00pt">
                <tspan x="26.1" y="37.6">获取用户名</tspan>
            </text>
        </g>
        <g id="shape4" transform="translate(752.47,134.94)">
            <path fill="#ffffff" stroke="#323232" d="M22.0,44.0L78.0,44.0L78.0,44.0C90.2,44.0,100.0,34.2,100.0,22.0C100.0,9.8,90.2,.0,78.0,.0L22.0,.0L22.0,.0C9.8,.0,.0,9.8,.0,22.0C.0,34.2,9.8,44.0,22.0,44.0z" fill-rule="nonzero"/>
            <text xml:space="preserve" style="fill:#191919;font-family:Times New Roman;font-size:14.00pt">
                <tspan x="31.6" y="27.6">结束</tspan>
            </text>
        </g>
        <g id="shape5" transform="translate(505.65,-0.00)">
            <path fill="#ffffff" stroke="#323232" d="M90.7,87.5L181.3,43.8L90.7,.0L.0,43.8L90.7,87.5z" fill-rule="nonzero"/>
            <text xml:space="preserve" style="fill:#191919;font-family:Times New Roman;font-size:14.00pt">
                <tspan x="35.5" y="49.4">页面是否存在</tspan>
            </text>
        </g>
        <g id="shape6" transform="translate(132.06,43.87)">
            <path fill="none" stroke="#191919" d="M.0,.0L22.4,.0"/>
            <path stroke-width="1" stroke-linecap="round" fill="#191919" stroke="#191919" d="M22.4,-3.0L28.4,.0L22.4,3.0L22.4,-3.0"/>
        </g>
        <g id="shape7" transform="translate(304.67,43.87)">
            <path fill="none" stroke="#191919" d="M.0,.0L22.4,.0"/>
            <path stroke-width="1" stroke-linecap="round" fill="#191919" stroke="#191919" d="M22.4,-3.0L28.4,.0L22.4,3.0L22.4,-3.0"/>
        </g>
        <g id="shape8" transform="translate(333.04,11.87)">
            <path fill="#ffffff" stroke="#323232" d="M144.2,64.0L144.2,.0L.0,.0L.0,64.0L144.2,64.0z" fill-rule="nonzero"/>
            <text xml:space="preserve" style="fill:#191919;font-family:Times New Roman;font-size:14.00pt">
                <tspan x="10.5" y="37.6">访问用户profile</tspan>
            </text>
        </g>
        <g id="shape9" transform="translate(477.28,43.87)">
            <path fill="none" stroke="#191919" d="M.0,.0L12.4,.0L12.4,-0.1L22.4,-0.1"/>
            <path stroke-width="1" stroke-linecap="round" fill="#191919" stroke="#191919" d="M22.4,-3.1L28.4,-0.1L22.4,2.9L22.4,-3.1"/>
        </g>
        <g id="shape10" transform="translate(524.19,135.19)">
            <path fill="#ffffff" stroke="#323232" d="M144.2,43.8L144.2,.0L.0,.0L.0,43.8L144.2,43.8z" fill-rule="nonzero"/>
            <text xml:space="preserve" style="fill:#191919;font-family:Times New Roman;font-size:14.00pt">
                <tspan x="7.7" y="27.5">返回用户不存在</tspan>
            </text>
        </g>
        <g id="shape11" transform="translate(596.31,87.50)">
            <path fill="none" stroke="#191919" d="M.0,.0L.0,41.7"/>
            <path stroke-width="1" stroke-linecap="round" fill="#191919" stroke="#191919" d="M3.0,41.7L.0,47.7L-3.0,41.7L3.0,41.7"/>
            <rect height="18.4" x="-4.6" width="11.2" fill="#ffffff" y="9.0"/>
            <text xml:space="preserve" style="fill:#191919;font-family:Microsoft YaHei;font-size:10.00pt">
                <tspan x="-4.6" y="23.4">N</tspan>
            </text>
        </g>
        <g id="shape12" transform="translate(668.43,157.06)">
            <path fill="none" stroke="#191919" d="M.0,.0L52.0,.0L52.0,-0.1L78.0,-0.1"/>
            <path stroke-width="1" stroke-linecap="round" fill="#191919" stroke="#191919" d="M78.0,-3.1L84.0,-0.1L78.0,2.9L78.0,-3.1"/>
        </g>
        <g id="shape13" transform="translate(730.35,11.88)">
            <path fill="#ffffff" stroke="#323232" d="M144.2,64.0L144.2,.0L.0,.0L.0,64.0L144.2,64.0z" fill-rule="nonzero"/>
            <text xml:space="preserve" style="fill:#191919;font-family:Times New Roman;font-size:14.00pt">
                <tspan x="35.3" y="37.6">爬取信息</tspan>
            </text>
        </g>
        <g id="shape14" transform="translate(686.98,43.75)">
            <path fill="none" stroke="#191919" d="M.0,.0L27.4,.0L27.4,.1L37.4,.1"/>
            <path stroke-width="1" stroke-linecap="round" fill="#191919" stroke="#191919" d="M37.4,-2.9L43.4,.1L37.4,3.1L37.4,-2.9"/>
            <rect height="18.4" x="15.5" width="8.0" fill="#ffffff" y="-10.3"/>
            <text xml:space="preserve" style="fill:#191919;font-family:Microsoft YaHei;font-size:10.00pt">
                <tspan x="15.5" y="4.1">Y</tspan>
            </text>
        </g>
        <g id="shape15" transform="translate(802.47,75.88)">
            <path fill="none" stroke="#191919" d="M.0,.0L.0,53.1"/>
            <path stroke-width="1" stroke-linecap="round" fill="#191919" stroke="#191919" d="M3.0,53.1L.0,59.1L-3.0,53.1L3.0,53.1"/>
        </g>
        <g id="shape16" transform="translate(0.00,223.94)">
            <path fill="#ffffff" stroke="#323232" d="M164.1,64.0L164.1,.0L.0,.0L.0,64.0L164.1,64.0z" fill-rule="nonzero"/>
            <text xml:space="preserve" style="fill:#191919;font-family:Times New Roman;font-size:14.00pt">
                <tspan x="8.5" y="37.6">爬取一页题目列表</tspan>
            </text>
        </g>
        <g id="shape17" transform="translate(82.06,65.87)">
            <path fill="none" stroke="#191919" d="M.0,.0L.0,152.1"/>
            <path stroke-width="1" stroke-linecap="round" fill="#191919" stroke="#191919" d="M3.0,152.1L.0,158.1L-3.0,152.1L3.0,152.1"/>
        </g>
        <g id="shape18" transform="translate(164.12,255.94)">
            <path fill="none" stroke="#191919" d="M.0,.0L54.0,.0"/>
            <path stroke-width="1" stroke-linecap="round" fill="#191919" stroke="#191919" d="M54.0,-3.0L60.0,.0L54.0,3.0L54.0,-3.0"/>
        </g>
        <g id="shape19" transform="translate(224.12,223.94)">
            <path fill="#ffffff" stroke="#323232" d="M164.1,64.0L164.1,.0L.0,.0L.0,64.0L164.1,64.0z" fill-rule="nonzero"/>
            <text xml:space="preserve" style="fill:#191919;font-family:Times New Roman;font-size:14.00pt">
                <tspan x="26.9" y="25.6">获取每道题目</tspan>
                <tspan x="45.3" y="48.8">详细信息</tspan>
            </text>
        </g>
        <g id="shape20" transform="translate(448.24,212.44)">
            <path fill="#ffffff" stroke="#323232" d="M90.7,87.0L181.3,43.5L90.7,.0L.0,43.5L90.7,87.0z" fill-rule="nonzero"/>
            <text xml:space="preserve" style="fill:#191919;font-family:Times New Roman;font-size:14.00pt">
                <tspan x="35.5" y="49.1">是否有下一页</tspan>
            </text>
        </g>
        <g id="shape21" transform="translate(388.24,255.94)">
            <path fill="none" stroke="#191919" d="M.0,.0L54.0,.0"/>
            <path stroke-width="1" stroke-linecap="round" fill="#191919" stroke="#191919" d="M54.0,-3.0L60.0,.0L54.0,3.0L54.0,-3.0"/>
        </g>
        <g id="shape22" transform="translate(538.90,299.44)">
            <path fill="none" stroke="#191919" d="M.0,.0L.0,15.5L-456.8,15.5L-456.8,-5.5"/>
            <path stroke-width="1" stroke-linecap="round" fill="#191919" stroke="#191919" d="M-459.8,-5.5L-456.8,-11.5L-453.8,-5.5L-459.8,-5.5"/>
            <rect height="18.4" x="-233.8" width="8.0" fill="#ffffff" y="5.2"/>
            <text xml:space="preserve" style="fill:#191919;font-family:Microsoft YaHei;font-size:10.00pt">
                <tspan x="-233.8" y="19.6">Y</tspan>
            </text>
        </g>
        <g id="shape23" transform="translate(730.35,234.06)">
            <path fill="#ffffff" stroke="#323232" d="M144.2,43.8L144.2,.0L.0,.0L.0,43.8L144.2,43.8z" fill-rule="nonzero"/>
            <text xml:space="preserve" style="fill:#191919;font-family:Times New Roman;font-size:14.00pt">
                <tspan x="22.9" y="27.5">保存csv文件</tspan>
            </text>
        </g>
        <g id="shape24" transform="translate(629.57,255.94)">
            <path fill="none" stroke="#191919" d="M.0,.0L94.8,.0"/>
            <path stroke-width="1" stroke-linecap="round" fill="#191919" stroke="#191919" d="M94.8,-3.0L100.8,.0L94.8,3.0L94.8,-3.0"/>
            <rect height="18.4" x="45.2" width="11.2" fill="#ffffff" y="-10.3"/>
            <text xml:space="preserve" style="fill:#191919;font-family:Microsoft YaHei;font-size:10.00pt">
                <tspan x="45.2" y="4.1">N</tspan>
            </text>
        </g>
        <g id="shape25" transform="translate(802.47,234.06)">
            <path fill="none" stroke="#191919" d="M.0,.0L.0,-49.1"/>
            <path stroke-width="1" stroke-linecap="round" fill="#191919" stroke="#191919" d="M-3.0,-49.1L.0,-55.1L3.0,-49.1L-3.0,-49.1"/>
        </g>
    </g>
</svg>
