<?xml version="1.0" standalone="no"?><!DOCTYPE svg PUBLIC "-//W3C//DTD SVG 1.1//EN" "http://www.w3.org/Graphics/SVG/1.1/DTD/svg11.dtd"><svg t="1620905498745" class="icon" viewBox="0 0 1024 1024" version="1.1" xmlns="http://www.w3.org/2000/svg" p-id="12353" xmlns:xlink="http://www.w3.org/1999/xlink" width="128" height="128"><defs><style type="text/css"></style></defs><path d="M515.242667 2.816L379.008 139.946667H142.848v231.850666L0 512.426667l142.890667 140.714666v229.973334h229.290666l140.16 138.069333 140.16-138.069333h231.68v-229.290667L1024 513.109333l-137.898667-138.752V141.696H653.226667z m0 31.957333l106.24 106.922667h-72.106667v274.816l-34.133333 34.346667-34.56-34.773334V139.946667H410.752z m-349.866667 127.616h191.274667L276.693333 242.858667l181.461334 182.570666v27.904H424.106667L242.090667 274.048l-76.714667 75.52z m223.018667 0h69.76v231.04l-149.717334-150.613333z m183.552 1.834667h71.978666l78.08 78.592-150.058666 150.997333z m103.722666 0h187.904v187.477333l-78.08-78.592-180.949333 182.058667h-32.597333v-29.44l181.802666-182.912z m109.824 140.8l78.08 78.634667v71.509333h-227.285333z m-543.36 0.554667l149.973334 147.712H165.376v-72.106667zM142.848 403.370667v72.405333h272.085333l37.162667 36.608-33.365333 32.853333H142.933333v76.202667L32.128 512.426667z m743.253333 2.901333l106.154667 106.794667-108.074667 108.8v-76.629334h-273.493333l-32-32.170666 35.2-35.413334h272.213333z m-405.418666 41.728l34.56 34.773333 7.936-8.021333 26.197333-26.368v29.269333h32.768l-35.2 35.413334 32 32.170666h-30.677333v34.474667l-35.925334-35.413333-31.616 31.146666v-30.165333h-29.866666l33.322666-32.853333-8.021333-7.936-29.098667-28.672h33.621334z m-315.306667 119.765333h230.485333l-153.728 151.466667-76.714666-75.605333z m262.570667 0h30.208v29.866667l-187.904 185.088 79.018666 77.824h-183.893333v-185.258667l76.714667 75.52z m142.848 0h30.506666l184.192 185.301334 7.936-7.978667 68.224-68.693333v184.149333h-186.282666l79.061333-77.866667-8.021333-7.893333-175.616-172.970667z m62.293333 0h228.565333v76.714667l-76.16 76.629333z m-120.746667 8.149334l35.925334 35.370666v271.786667h72.149333l-108.032 106.453333-108.074667-106.453333h76.373334V607.146667z m-54.186666 53.376v231.253333H381.397333l-79.018666-77.781333z m112.64 4.138666l151.552 149.290667-79.061334 77.866667h-72.533333z" p-id="12354"></path></svg>