<?xml version="1.0" standalone="no"?><!DOCTYPE svg PUBLIC "-//W3C//DTD SVG 1.1//EN" "http://www.w3.org/Graphics/SVG/1.1/DTD/svg11.dtd"><svg t="1620905814720" class="icon" viewBox="0 0 1025 1024" version="1.1" xmlns="http://www.w3.org/2000/svg" p-id="22504" xmlns:xlink="http://www.w3.org/1999/xlink" width="128.125" height="128"><defs><style type="text/css"></style></defs><path d="M885.532 853.333H136.533c-31.414 0-56.889-25.475-56.889-56.889V47.445c0-18.477-13.835-35.055-32.301-36.01-19.684-1.036-35.965 14.62-35.965 34.076v762.311c0 62.84 50.938 113.778 113.778 113.778h762.31c19.457 0 35.112-16.282 34.088-35.965-0.967-18.466-17.533-32.302-36.022-32.302z" p-id="22505"></path><path d="M534.756 807.822c25.133 0 45.51-20.377 45.51-45.51V56.888c0-25.134-20.377-45.511-45.51-45.511s-45.512 20.377-45.512 45.51v705.423c0 25.134 20.378 45.511 45.512 45.511zM193.422 807.822c25.134 0 45.511-20.377 45.511-45.51v-364.09c0-25.133-20.377-45.51-45.51-45.51s-45.512 20.377-45.512 45.51v364.09c0 25.133 20.378 45.51 45.511 45.51zM364.089 807.822c25.133 0 45.511-20.377 45.511-45.51v-91.023c0-25.134-20.378-45.511-45.511-45.511s-45.511 20.377-45.511 45.51v91.023c0 25.134 20.377 45.511 45.51 45.511zM705.422 807.822c25.134 0 45.511-20.377 45.511-45.51V375.466c0-25.134-20.377-45.511-45.51-45.511s-45.512 20.377-45.512 45.51v386.845c0 25.134 20.378 45.511 45.511 45.511zM876.089 512c-25.134 0-45.511 20.378-45.511 45.511v204.8c0 25.134 20.377 45.511 45.51 45.511s45.512-20.377 45.512-45.51v-204.8c0-25.134-20.378-45.512-45.511-45.512z" p-id="22506"></path></svg>