<?xml version="1.0" standalone="no"?><!DOCTYPE svg PUBLIC "-//W3C//DTD SVG 1.1//EN" "http://www.w3.org/Graphics/SVG/1.1/DTD/svg11.dtd"><svg t="1620906027898" class="icon" viewBox="0 0 1024 1024" version="1.1" xmlns="http://www.w3.org/2000/svg" p-id="26524" xmlns:xlink="http://www.w3.org/1999/xlink" width="128" height="128"><defs><style type="text/css"></style></defs><path d="M117.66113281 774.88964844v87.59179687h175.17480469v-87.59179687H117.66113281z m175.17480469-525.53320313v-87.59179687H117.66113281v87.59179687h175.17480469zM117.66113281 293.15234375h175.17480469v437.95019531H117.66113281V293.15234375z" p-id="26525"></path><path d="M736.859375 873.21289063l-22.66699219-84.60351563 169.20703125-45.34277344 22.66699219 84.60351563-169.20703125 45.34277343z m-147.34863281-549.93164063L758.70898438 277.94726562 872.06152344 700.96484375l-169.20703125 45.34277344-113.34375-423.02636719z m-34.02246094-126.90527344l169.22460938-45.34277343 22.66699218 84.60351562-169.20703125 45.34277344-22.68457031-84.60351563zM380.41894531 774.88964844h175.18359375v87.59179687H380.41894531v-87.59179687z m0-481.73730469h175.18359375v437.95019531H380.41894531V293.15234375z m0-131.38769531h175.18359375v87.59179687H380.41894531v-87.59179687z" p-id="26526"></path></svg>