<?xml version="1.0" standalone="no"?><!DOCTYPE svg PUBLIC "-//W3C//DTD SVG 1.1//EN" "http://www.w3.org/Graphics/SVG/1.1/DTD/svg11.dtd"><svg t="1620911927200" class="icon" viewBox="0 0 1024 1024" version="1.1" xmlns="http://www.w3.org/2000/svg" p-id="1926" xmlns:xlink="http://www.w3.org/1999/xlink" width="128" height="128"><defs><style type="text/css"></style></defs><path d="M72.097106 657.414255h879.805788V366.585745H72.097106zM769.6525 469.229754c22.006601 0 39.281954 18.821887 40.851399 41.057603 0 23.954087-17.275353 42.764518-37.701053 44.471433s-39.281954-18.810431-40.851399-41.046147c0-23.954087 17.275353-44.482889 37.701053-44.482889z m-125.681632 0c15.705908 0 29.853827 10.310224 36.131608 25.661002s3.13889 34.207032-7.847226 46.189804a39.820377 39.820377 0 0 1-42.386477 10.310224c-14.136463-6.873483-25.145491-22.247172-25.145491-39.350689 1.546534-24.022822 18.821887-42.810342 39.247586-42.810341z m-446.192131 0h219.951447v85.529036h-219.951447zM72.097106 987.341425a36.658575 36.658575 0 0 0 36.658574 36.658575h806.48864a36.658575 36.658575 0 0 0 36.658574-36.658575V733.17149H72.097106zM769.6525 835.815499c22.006601 0 39.281954 18.821887 40.851399 41.057603 0 23.954087-17.275353 42.764518-37.701053 44.471434s-39.281954-18.810431-40.851399-41.046148c0-23.954087 17.275353-44.482889 37.701053-44.482889z m-125.681632 0c15.705908 0 29.853827 10.310224 36.131608 25.661002s3.13889 34.207032-7.847226 46.189804a39.820377 39.820377 0 0 1-42.386477 10.310224c-14.136463-6.873483-25.145491-22.247172-25.145491-39.350689 1.546534-24.022822 18.821887-42.810342 39.247586-42.810341z m-446.192131 0h219.951447v85.529037h-219.951447zM915.24432 0H108.75568A36.658575 36.658575 0 0 0 72.097106 36.658575v254.169935h879.805788V36.658575a36.658575 36.658575 0 0 0-36.658574-36.658575zM417.74164 188.173045h-219.951447V102.644009h219.951447z m254.51361-13.67823a39.820377 39.820377 0 0 1-42.386477 10.310224c-14.136463-6.873483-25.145491-22.247172-25.145491-39.350689C606.269816 121.431528 623.545169 102.644009 643.970868 102.644009c15.705908 0 29.853827 10.310224 36.131608 25.661002s3.13889 34.207032-7.847226 46.189804z m100.547596 13.67823c-20.425699 1.718371-39.281954-18.810431-40.851399-41.046147 0-23.954087 17.275353-44.482889 37.701053-44.482889 22.006601 0 39.281954 18.821887 40.851399 41.057603 0 23.954087-17.275353 42.764518-37.701053 44.471433z" p-id="1927"></path></svg>