<svg width="640" height="145" xmlns="http://www.w3.org/2000/svg" xmlns:xlink="http://www.w3.org/1999/xlink" overflow="hidden"><defs><clipPath id="clip0"><rect x="260" y="166" width="640" height="145"/></clipPath></defs><g clip-path="url(#clip0)" transform="translate(-260 -166)"><path d="M267.5 179.667C267.5 172.947 272.947 167.5 279.667 167.5L405.333 167.5C412.053 167.5 417.5 172.947 417.5 179.667L417.5 228.333C417.5 235.053 412.053 240.5 405.333 240.5L279.667 240.5C272.947 240.5 267.5 235.053 267.5 228.333Z" stroke="#4472C4" stroke-width="1.33333" stroke-miterlimit="8" fill="#FFFFFF" fill-rule="evenodd"/><text font-family="SimSun,SimSun_MSFontService,sans-serif" font-weight="400" font-size="24" transform="translate(305.725 214)">卷积层</text><path d="M490.5 179.667C490.5 172.947 495.947 167.5 502.667 167.5L628.333 167.5C635.053 167.5 640.5 172.947 640.5 179.667L640.5 228.333C640.5 235.053 635.053 240.5 628.333 240.5L502.667 240.5C495.947 240.5 490.5 235.053 490.5 228.333Z" stroke="#4472C4" stroke-width="1.33333" stroke-miterlimit="8" fill="#FFFFFF" fill-rule="evenodd"/><text font-family="SimSun,SimSun_MSFontService,sans-serif" font-weight="400" font-size="24" transform="translate(529.138 214)">池化层</text><path d="M714.5 179.667C714.5 172.947 719.947 167.5 726.667 167.5L851.333 167.5C858.053 167.5 863.5 172.947 863.5 179.667L863.5 228.333C863.5 235.053 858.053 240.5 851.333 240.5L726.667 240.5C719.947 240.5 714.5 235.053 714.5 228.333Z" stroke="#4472C4" stroke-width="1.33333" stroke-miterlimit="8" fill="#FFFFFF" fill-rule="evenodd"/><text font-family="SimSun,SimSun_MSFontService,sans-serif" font-weight="400" font-size="24" transform="translate(740.55 214)">全连接层<tspan font-size="24" x="-464.734" y="78">提取图像特征</tspan><tspan font-size="24" x="-271.413" y="78">降</tspan>维、防止过拟合<tspan font-size="24" x="-0.00012207" y="78">输出结果</tspan></text></g></svg>