<svg width="1017" height="336" xmlns="http://www.w3.org/2000/svg" xmlns:xlink="http://www.w3.org/1999/xlink" overflow="hidden"><defs><clipPath id="clip0"><rect x="159" y="143" width="1017" height="336"/></clipPath></defs><g clip-path="url(#clip0)" transform="translate(-159 -143)"><rect x="162" y="247" width="202" height="89" stroke="#000000" stroke-width="4" stroke-miterlimit="8" stroke-dasharray="4 4" fill="#FFFFFF"/><rect x="364" y="247" width="202" height="89" stroke="#000000" stroke-width="4" stroke-miterlimit="8" stroke-dasharray="4 4" fill="#FFFFFF"/><rect x="566" y="247" width="203" height="89" stroke="#000000" stroke-width="4" stroke-miterlimit="8" stroke-dasharray="4 4" fill="#FFFFFF"/><path d="M769 368C769 379.046 767.508 388 765.667 388L468.833 388C466.992 388 465.5 396.954 465.5 408 465.5 396.954 464.008 388 462.167 388L165.333 388C163.492 388 162 379.045 162 367.999" stroke="#000000" stroke-width="2" stroke-miterlimit="8" fill="none" fill-rule="evenodd"/><text font-family="Times New Roman,Times New Roman_MSFontService,sans-serif" font-weight="400" font-size="64" transform="translate(248.438 315)">7<tspan font-size="64" x="200.85" y="0">3</tspan><tspan font-size="64" x="404.654" y="-1">6</tspan><tspan font-size="32" x="188.135" y="136">48px</tspan></text><rect x="769" y="247" width="202" height="89" stroke="#000000" stroke-width="4" stroke-miterlimit="8" stroke-dasharray="4 4" fill="#DEEBF7"/><rect x="971" y="248" width="202" height="89" stroke="#000000" stroke-width="4" stroke-miterlimit="8" stroke-dasharray="4 4" fill="#DEEBF7"/><text font-family="Times New Roman,Times New Roman_MSFontService,sans-serif" font-weight="400" font-size="64" transform="translate(854.691 315)">1<tspan font-size="64" x="200.87" y="3">5</tspan><tspan font-size="27" x="-623.425" y="52">16px</tspan><tspan font-size="27" x="-432.825" y="53">16px</tspan><tspan font-size="27" x="-233.558" y="53">16px</tspan><tspan font-size="27" x="-45.1581" y="62">left:</tspan><tspan font-size="27" x="-2.49139" y="62">-</tspan><tspan font-size="27" x="6.34192" y="62">48px</tspan><tspan font-size="27" x="156.309" y="62">left:</tspan><tspan font-size="27" x="198.975" y="62">-</tspan><tspan font-size="27" x="207.809" y="62">32px</tspan></text><path d="M274 180 274 184 270 184 270 180ZM274 188 274 192 270 192 270 188ZM274 196 274 200 270 200 270 196ZM274 204 274 208 270 208 270 204ZM274 212 274 216 270 216 270 212ZM274 220 274 224 270 224 270 220ZM274 228 274 232 270 232 270 228ZM274 236 274 240 270 240 270 236ZM280.728 230.048 272 245.009 263.273 230.048C262.716 229.094 263.038 227.869 263.992 227.312 264.946 226.756 266.171 227.078 266.728 228.032L273.728 240.032 270.273 240.032 277.273 228.032C277.829 227.078 279.054 226.756 280.008 227.312 280.962 227.869 281.284 229.094 280.728 230.048Z"/><path d="M269 177 881.267 179.133" stroke="#000000" stroke-width="4" stroke-miterlimit="8" stroke-dasharray="4 4" fill="none" fill-rule="evenodd"/><path d="M0 0 1.06667 60.7333" stroke="#000000" stroke-width="4" stroke-miterlimit="8" stroke-dasharray="4 4" fill="none" fill-rule="evenodd" transform="matrix(-1 0 0 1 876.067 183)"/><path d="M0-1.5 24-1.5 24 1.5 0 1.5ZM33-1.5 36-1.5 36 1.5 33 1.5ZM45-1.5 69-1.5 69 1.5 45 1.5ZM78-1.5 81-1.5 81 1.5 78 1.5ZM90-1.5 108.294-1.5 108.294 7.2064 105.294 7.2064 105.294 0 106.794 1.5 90 1.5ZM108.294 16.2064 108.294 19.2064 105.294 19.2064 105.294 16.2064ZM108.294 28.2064 108.294 52.2064 105.294 52.2064 105.294 28.2064ZM108.294 61.2064 108.294 64.2064 105.294 64.2064 105.294 61.2064ZM108.294 73.2064 108.294 97.2064 105.294 97.2064 105.294 73.2064ZM108.294 106.206 108.294 109.206 105.294 109.206 105.294 106.206ZM108.294 118.206 108.294 142.206 105.294 142.206 105.294 118.206ZM108.294 151.206 108.294 154.206 105.294 154.206 105.294 151.206ZM108.294 163.206 108.294 187.206 105.294 187.206 105.294 163.206ZM108.294 196.206 108.294 199.206 105.294 199.206 105.294 196.206ZM108.294 208.206 108.294 232.206 105.294 232.206 105.294 208.206ZM108.294 241.206 108.294 244.206 105.294 244.206 105.294 241.206ZM108.294 253.206 108.294 277.206 105.294 277.206 105.294 253.206ZM108.294 286.206 108.294 289.206 105.294 289.206 105.294 286.206ZM108.294 298.206 108.294 322.206 105.294 322.206 105.294 298.206ZM108.294 331.206 108.294 334.206 105.294 334.206 105.294 331.206ZM108.294 343.206 108.294 367.206 105.294 367.206 105.294 343.206ZM108.294 376.206 108.294 379.206 105.294 379.206 105.294 376.206ZM108.294 388.206 108.294 412.206 105.294 412.206 105.294 388.206ZM108.294 421.206 108.294 424.206 105.294 424.206 105.294 421.206ZM108.294 433.206 108.294 457.206 105.294 457.206 105.294 433.206ZM108.294 466.206 108.294 469.206 105.294 469.206 105.294 466.206ZM108.294 478.206 108.294 502.206 105.294 502.206 105.294 478.206ZM108.294 511.206 108.294 514.206 105.294 514.206 105.294 511.206ZM108.294 523.206 108.294 547.206 105.294 547.206 105.294 523.206ZM108.294 556.206 108.294 559.206 105.294 559.206 105.294 556.206ZM108.294 568.206 108.294 592.206 105.294 592.206 105.294 568.206ZM108.294 601.206 108.294 604.206 105.294 604.206 105.294 601.206ZM99.8525 607.765 75.8525 607.765 75.8525 604.765 99.8525 604.765ZM66.8525 607.765 63.8525 607.765 63.8525 604.765 66.8525 604.765ZM54.8525 607.765 30.8525 607.765 30.8525 604.765 54.8525 604.765ZM21.8525 607.765 18.8525 607.765 18.8525 604.765 21.8525 604.765ZM13.4083 610.765 4.40829 606.265 13.4083 601.765Z" transform="matrix(-1.83697e-16 -1 -1 1.83697e-16 1071.77 251.908)"/></g></svg>